<?xml version="1.0" encoding="utf-8"?>
<!-- Generator: Adobe Illustrator 15.1.0, SVG Export Plug-In . SVG Version: 6.00 Build 0)  -->
<svg version="1.2" baseProfile="tiny" id="Layer_1" xmlns="http://www.w3.org/2000/svg" xmlns:xlink="http://www.w3.org/1999/xlink"
	 x="0px" y="0px" width="1024px" height="563px" viewBox="0 0 1024 563" overflow="inherit" xml:space="preserve">
<g id="_x37_ehRjW.tif">
	<g>
		<path fill-rule="evenodd" d="M20.4,10.3c1.8,0,3.5,4.9,4.6,6.9c1.4,2.7,3.2,5.2,4.6,6.9c4.9,5.7,10.4,11.5,15.5,17.5
			c5.2,6.1,10.9,11.8,17.2,15.8c0.6,0.7,1.1,1.4,1.4,2.3c11.6,7,24.3,13.4,37.9,18.7c6.6,2.6,12.9,4.7,19.8,7.5
			c10.9,4.4,23.7,7.8,36.2,11.2c10.1,2.7,20.5,4.5,30.7,7.2c5.1,1.4,10.1,2.8,15.2,4c10.3,2.4,20.4,4.3,30.4,6.3
			c12.9,2.6,26,4.4,41.1,6.6c2.7,0.4,6.3,0.2,8.3,0.9c2.9,1,7,8.5,8.6,11.2c1.3,2.1,2.5,4.2,3.7,6c1.3,1.9,3.5,3.4,3.4,5.7
			c5.4,3.7,7.3,10.8,13.2,14.1c1.8-3.5,2.6-7.2,3.4-11.2c1-4.5,2.8-9.5,4.6-14.6c1.2-3.6,1.5-7.5,3.7-10.6c9.5,3.4,21.3,5,32.4,6.9
			c4.3,0.7,8.7,1.2,12.9,2c1,0.2,2.3,0.5,3.2,1.4c37,4.9,74.5,17.1,113.4,20.4c3.2,0.3,6.6,1.4,9.8,1.7c3.5,0.4,6.9,0.2,10.3,0.6
			c2.1,0.2,4.2,1,6.3,1.1c2.3,0.2,4.7-0.3,6.9,0c2,0.3,4.2,1.2,6.9,1.1c3.1,0,6-0.3,9.2,0c9.3,0.9,21.2,1.5,31.9,1.4
			c7.7,0,15.4,1.1,23,1.1c11.3,0.1,21.8-0.3,32.4-0.3c6,0,11.9,0.7,17.8,0.6c13.2-0.3,26.6-0.4,39.9-0.6c5.3-0.1,10.6-1.3,16.1-1.1
			c13.5,0.3,26.7-1.2,39.9-2c8.4-0.5,17.1-1.1,25.3-2.3c15.8-2.4,32.6-3.5,48.8-7.5c4.5-1.1,9-1.3,13.5-2c6-0.9,12-2.3,18.1-3.4
			c6.1-1.1,12.4-1.7,18.4-2.9c1.7-0.3,3.2-1.4,4.9-1.7c3.9-0.8,8.4-0.5,11.8-3.2c6.9,0,13.4-3.5,19.2-5.5c9.5-3.2,18.9-6.2,28.1-9.5
			c4.4-1.6,8.6-3.8,12.9-5.7c4.4-2,8.8-3.6,13.2-5.5c8.9-3.8,17.7-7.5,26.1-11.5c8.8-4.1,17.3-8,26.1-11.2c0.4-0.1,8.3-5,8-0.9
			c-0.2,2.3-4.1,2.6-6.3,3.4c-2.4,1-4.6,2-6.3,2.9c-5.9,2.9-13,5.6-18.9,8c-5.3,2.2-10.5,4.9-16.1,7.2c-7,2.9-14.4,5.4-22.4,8.6
			c-3.5,1.4-6.8,3.6-10.3,5.2c-3.7,1.6-7.8,2.4-11.8,3.7c-3.7,1.3-7.4,3-11.2,4.3c-3.9,1.4-8,2.2-11.5,3.7c-2.3,1-4.2,3.2-6,4.3
			c-6.1,0.4-12.6,2.3-18.9,3.7c-5.2,1.2-10.3,2.2-15.5,3.2c-10.1,1.8-20.2,4.1-30.4,5.7c-1.7,0.3-3.5,0-5.2,0.3
			c-10.7,1.7-21.1,4.2-31.9,5.5c-4.9,0.5-9.7,1.6-14.6,2.3c-4.9,0.7-10.1,0.6-15.2,1.1c-5.9,0.6-11.7,1.5-17.8,2
			c-11.6,1-23.7,2.1-36.7,2.6c-4.8,0.2-9.9,0.1-14.9,0.3c-28.4,1.2-55.9,1.6-83.3,0.3c-16.8,1.1-40.2-0.6-59.7-1.1
			c-26.9-0.7-52.6-4.7-77.8-7.5c-21.3-2.3-42.7-9-62.3-12.3c-10.7-1.8-20.7-4.7-32.2-6.6c-4.2-0.7-8.5-1.1-12.6-2
			c-7.6-1.6-16.2-2.8-24.7-5.2c-3.7,0.8-6.2-0.4-10-0.6c-4.5,11.1-6.5,24.7-10.6,37c-1.4,0.6-2.7-0.4-4,0.3
			c-10.5-12.3-18.9-26.7-29-39.3c-12.4-2.9-25.7-4-39.3-6.9c-6.5-1.4-12-1.8-19.5-3.4c-12.2-2.6-26.2-6.2-39.9-9.5
			c-22.1-5.2-44.2-10.6-64.3-18.4c-4.1-1.6-8.4-2.7-12.3-4.3c-16-6.3-31.6-12.8-45.1-21.8c-1.3,0.2-1.7-0.6-2.9-0.6
			C47.4,51.6,35.6,42.8,29,28.7c-2.8-4-6.8-6.8-7.8-12.6c-1.1-1.3-2.3-2.5-2-5.2C19.7,11,20.1,9.6,20.4,10.3z"/>
		<path fill-rule="evenodd" fill="#FFFFFF" d="M458.5,243.2c1-0.3,0.4,1.6-0.3,1.4C457.9,243.8,458.6,243.8,458.5,243.2z"/>
		<path fill-rule="evenodd" d="M664,285.1c-0.6,2.4-3.8,3.1-6,3.7c-6.2,1.8-14.9,4.7-21.2,6c-5.9,1.3-8.7-0.3-9.5,6.9
			c-0.1,0.7,0.1,1.3,0,2c-1,6.4-1,15.6-1.1,23c-0.3,12.5-0.4,22.2,0,34.2c15-0.5,28.8,2.4,41.3,4.3c1.1-3.2,0.1-8.2-0.6-11.5
			c-8.7-2.4-21.5-1.5-31.6-0.9c-0.1-1.2-1.2-1.3-2-1.7c0.7-5.5-0.2-12.2,0.9-16.7c6.6-1,13.4,0.8,21,0.9c1-4.2-0.1-7.6,0-11.8
			c-6.7-2-15.5,2.6-19.8-1.4c1.1-4.4-0.3-9.9,0.6-15.2c3.1-1.4,7.3,0.1,10.9,0.3c4.2,0.2,8.7-0.1,12.9,0c1.5-6.7-0.6-15.7,4.9-18.7
			c2.5,0.7,0.7,2.6,0.3,4.3c-1.1,5.1,0.1,12.5-1.1,17.2c-1.5-0.3-2.1,0.4-2.6,1.1c-7.5-1.3-13.6-0.8-21.2-0.9
			c-0.6,2.9,0.2,6.8,0.3,9.5c6.5,1.9,13.9-2.9,18.7,0c-0.6,6.3,1.6,12,0.3,18.1c-1.1,0.4-2.8,0.3-3.2,1.4
			c-4.9-1.7-12.1-1.5-18.4-1.1c-0.6,2.7,0.8,7.4,0,10.3c10.8,1.3,22.5-0.1,32.2,0.9c1.9,6.5,2.1,12,2,18.7c-0.9,1-2.5,0-3.4,1.1
			c-15.6-3.6-31-6.4-45.9-4c-0.7-1.1-1.8-3.2-0.6-4.6c-1.2-15.6,0-33.6,0.6-47.7c0.3-7.4-0.3-15.1,3.2-19.8
			c4.7-0.1,12.6-1.3,19.2-3.2c1.2-0.4,2.2-1.3,3.4-1.7c5.2-1.8,9.6-1.4,12.6-4.6C662.4,283.9,663.3,283.7,664,285.1z"/>
		<path fill-rule="evenodd" d="M683.8,293.4c1.9-7.4,12.9-8.7,21.2-8.3c5.2,0.3,8.6,2.5,11.8,4.9c1.9,1.4,3,3.1,4.9,4.6
			c0.2,0.2,1.2,0,1.4,0.3c0.8,0.7,1.5,2.2,2.3,3.2c3.8,4.4,7.4,11.8,9.8,16.4c0.6,3.4,1.6,6.9,2.9,10c0.9,5.2,0.6,13,0,16.9
			c-2,4.5-2.9,12.3-8,15.2c0,0.5,0,1,0,1.4c-4.1,2-5.7,6.7-9.8,8.6c-4,1.8-10.8,2.4-16.7,2c-6.7-0.5-14.2-4.5-18.4-9.2
			c-7.9-8.9-11.8-19.1-13.8-32.4c-0.5-3.3-0.3-8.4,0.3-12.3c1.3-8,4-16.2,7.8-22.4C681.5,291.6,682.9,292.2,683.8,293.4z
			 M679.5,301.1c-0.3,0.9-1.2,1.7-1.4,2.6c-0.4,1.3-0.2,2.9-0.6,4.6c-0.3,1.4-1.5,2.8-1.7,4c-0.5,2.6-0.7,5.7-0.9,8
			c-0.3,4.5,0.9,10.5,2,15.5c1.8,8,5.2,13.5,9.2,18.4c4.3,5.3,9.7,10.6,17.8,10.9c5,0.2,11.1,0,14.6-2.3c2.5-1.6,5.2-4.9,7.8-7.8
			c4.8-5.4,7.4-12.1,8-21c0.9-13.9-4.9-21.1-9.2-31c-2.1-2.3-4.5-4.3-5.7-7.5c-3.9-1.3-6.6-5.6-11.2-7.2c-6.8-2.3-16.2-0.9-20.1,2.6
			c-1.8,2.3-1.8,6.3-4.9,7.2c-1.2-0.6,0.9-2.8-0.9-2.9C680,296,680.2,299,679.5,301.1z"/>
		<path fill-rule="evenodd" fill="#FFFFFF" d="M682.4,295.4c1.7,0.1-0.4,2.3,0.9,2.9c3.1-0.9,3.1-4.9,4.9-7.2
			c3.9-3.5,13.3-4.9,20.1-2.6c4.6,1.5,7.3,5.9,11.2,7.2c1.3,3.1,3.7,5.1,5.7,7.5c4.2,9.9,10.1,17.1,9.2,31c-0.6,8.8-3.2,15.5-8,21
			c-2.5,2.9-5.3,6.2-7.8,7.8c-3.5,2.3-9.7,2.5-14.6,2.3c-8.1-0.3-13.5-5.6-17.8-10.9c-4-4.9-7.4-10.4-9.2-18.4c-1.1-5-2.3-11-2-15.5
			c0.1-2.3,0.4-5.5,0.9-8c0.2-1.3,1.4-2.6,1.7-4c0.4-1.6,0.2-3.3,0.6-4.6c0.3-0.8,1.1-1.7,1.4-2.6C680.2,299,680,296,682.4,295.4z
			 M701.6,315.5c-5.5-0.2-8.9,4.7-9.2,8.6c-0.6,8.7,10.3,11.3,17.2,7.2C713.6,325.3,707.2,315.7,701.6,315.5z"/>
		<path fill-rule="evenodd" d="M709.7,331.3c-7,4.2-17.9,1.6-17.2-7.2c0.3-3.9,3.7-8.8,9.2-8.6C707.2,315.7,713.6,325.3,709.7,331.3
			z M706.8,328.4c1.4-3.9-2.4-8.4-4.6-8.6c-2.2-0.2-2.5,2.5-4.9,1.4C692.4,327.2,702.1,334,706.8,328.4z"/>
		<path fill-rule="evenodd" fill="#FFFFFF" d="M697.3,321.2c2.3,1.1,2.7-1.6,4.9-1.4c2.2,0.2,6,4.7,4.6,8.6
			C702.1,334,692.4,327.2,697.3,321.2z"/>
		<path fill-rule="evenodd" fill="#FFFFFF" d="M213.3,325.3c0.6,0.5,1.7,1.6,1.1,2.3C214,326.9,213.3,326.4,213.3,325.3z"/>
		<path fill-rule="evenodd" d="M272.1,380.7c0.4,1.6-0.3,3.5-0.3,5.2c0,14.1,9.8,20.4,21.8,16.4c3.7-2.9,3.7-9.5,4.6-14.6
			c0.4-2.2,1.3-5.8,2.6-6c2.2-0.4,2.9,3.1,3.2,5.5c0.9,8.7-1.8,17.8-7.8,21c-7.9-0.4-15.3-1.1-20.7-4c-4.4-5.3-10.1-9.2-9.2-19.8
			C267,381.9,269.1,378.6,272.1,380.7z"/>
		<path fill-rule="evenodd" d="M396.7,391.9c2-0.7,3,0.2,3.7,1.4c-0.9,12-9.2,22-22.1,18.4c-2.2-0.6-4-2.1-6.3-3.2
			c-4.3-5.4-8.2-14.9-6.9-22.4c0.7-0.6,1.1-1.6,1.4-2.6c1-0.2,1.1,0.6,2,0.6c0.3,1.4,1.1,3.5,2,5.2c-1.6,6.5,1.2,11,3.4,15.2
			c2.6,3,6.8,3.9,10.9,2.6C391.3,405.1,395.7,398.7,396.7,391.9z"/>
		<path fill-rule="evenodd" d="M393.6,412.8c-0.2,0.3-0.4,0.8-0.3,1.4c-1.1,0.1-1.7-0.2-1.7-1.1
			C392.5,413.2,392.6,412.6,393.6,412.8z"/>
		<path fill-rule="evenodd" fill="#FFFFFF" d="M347.6,442.7c0.8,0.7-0.8,1.5-0.9,2.3C345.5,444.4,347.4,443.4,347.6,442.7z"/>
		<path fill-rule="evenodd" fill="#FFFFFF" d="M300.6,502.7c-1,0.9-4.3,1.8-5.2,0.3C297.2,503,299,502.4,300.6,502.7z"/>
		<path fill-rule="evenodd" fill="#FFFFFF" d="M360.3,503.5c-0.7,1.2-2.9,2.2-4.6,1.4C357.3,504,358.4,503.9,360.3,503.5z"/>
		<path fill-rule="evenodd" d="M498.1,402.2c-1.6,0.7-3.7-0.4-3.7-2.3c-1,1.4-2.2,2.6-2,5.2c-5.3,12.2-9.8,25.2-17.5,35
			c-0.2,2.2-1.6,3.2-2.3,4.9c0.1,0.9-0.9,0.6-1.4,0.9c0,4-3,7.3-4.9,10.3c22,2.9,52.5,5.6,74.4,10c1.3,0.3,2.6,1.1,4,1.4
			c2.9,0.6,8.8,1.1,8.9,4.3c0.1,4-7.2,4.8-10,3.7c0.6-1.4,2.7-1.3,4.6-1.4c0.1-1,1.2-1.1,1.1-2.3c-1.2-2.3-5.6-1.4-7.5-3.2
			c-24.4-4.6-49.1-8.2-76.4-10.6c-1.3,0.3-1.1,2.2-2.3,2.6c-1,6.6-3.6,10.4-5.7,15.5c11.1,0.9,26.7,2.5,37.9,4
			c2.1,0.3,4.8,0,5.7,2.3c-0.4,1.3-1.9,1.4-3.2,1.7c-1.2,0.1-0.9-1.4-1.7-1.7c-9-1.1-20.6-2.9-31.6-3.7c-2.8-0.2-6.5-1-8.6,0
			c-1.5,0.7-2.1,2.4-3.2,3.7c-1.1,1.4-2.4,2.4-2.9,4c-0.5,0.1-0.5-0.3-0.9-0.3c-3,5.1-7.8,8.5-11.8,12.6c0.9,1.8,4.4,1,5.5,2.6
			c4.5-0.1,8.6,2.5,13.2,3.2c3.5,0.5,8.4,1.1,11.5,3.4c1.6-0.7,3.1,0.9,5.2,0.6c12.3,4.7,24.8,7.4,37,12.1c0.5,1.4,2.4,1.4,2.3,3.4
			c-2.6,1.5-4.6-0.3-5.7-2c-22.1-7.8-47-15-71.2-21c-3.1,2-4.4,5.4-6.9,7.8c-2.7,2.7-6.6,3.7-9.2,6.9c-1.9,2.3-3.8,5-6.9,6.9
			c-1.8,1.1-4.6,1.7-6.6,2.6c-1.8,0.8-3.6,2.1-5.7,3.2c-4.6,2.2-10,3.1-14.4,5.2c-4.1,2-7.3,4.8-11.5,6.3c-4.3,0.3-9.2,2.2-13.8,3.2
			c-5.6,1.2-11.6,1-17.5,1.1c-8.1,0.2-15.8,0.1-23.5-0.6c-0.7-0.1-1.3-0.7-2-0.9c-1.2-0.2-3.7,1.2-4-0.9c0.5-1.7,2.3-0.6,3.4-0.6
			c10.1-0.1,23.5,0.8,34.4,0.3c0.5-0.3,1.5,0,1.4-0.9c13-0.8,23-4.5,32.4-10.3c8.9-1.9,14.5-7.1,23-9.5c1.9-1.7,3.5-2.1,5.7-3.4
			c4.4-7,12.1-10.7,17.2-16.9c-3.6-1.7-8.2-1.9-13.2-3.2c-1.1-0.3-2-1.2-3.2-1.4c-1.4-0.3-3,0-4.3-0.3c-2.5-0.6-4.9-2-7.5-2.6
			c-7.4-1.8-15-2.8-22.7-4.9c-3.2,3.7-4.3,9.5-7.8,12.9c-4.4,0.9-9.5,6.9-13.8,7.5c-8.9,1.1-15.5-3.4-21.8-6.9c-0.3-0.9-0.5-2-2-1.7
			c-0.2-2.2-2.3-3.3-3.2-4.9c-2.1-4-2.8-8.1-4.3-13.5c-1.7,4.5-4.5,8-6.9,11.8c-2.3,0.5-2.9,2.8-4.6,4c-1.2,0.9-3.3,1.5-5.2,2.6
			c-2.1,1.3-3.8,3.2-6,4.6c-0.2,0.1-0.9-0.1-1.1,0c-0.4,0.3-0.4,1.1-0.6,1.1c-6.3,2.9-11.8-0.3-16.4-3.7c-3.6-2.7-7.1-5.2-9.5-8.9
			c-0.8-1.3-1.4-3.2-2.3-4.6c-1.8-3-3-5.4-3.7-9.2c-0.1-1.4,1.7-0.8,1.7-2c-8,0.2-16.8-0.3-25.3,0c-9.8,0.4-20.6-0.4-31.3,1.1
			c-0.1,2,1.2,2.6,1.7,4c1.4-0.5,0.2-2,1.4-2.9c2.6-1.4,3.5,1.5,4.6,2.9c11.1,14.2,22.2,29.8,37,40.8c6.6,1.2,10.6,3.2,14.9,6.6
			c1.3,0.3,0.6-1.3,2-0.9c2.4,0.7,4.7,1.4,5.5,3.7c5.7,1.4,9.1,5.2,15.5,6c0,1.3,1.6,0.8,1.4,2.3c-2.5,3.5-6.1-2.3-9.5-1.4
			c0.2-0.5,0.9-0.2,0.3-0.9c-4.2-1.1-7.4-3.2-10.9-4.9c-1.3,0-3.3,1.1-5.2,0.3c-1.8-1-2-2.9-3.4-4c-2.6-2-6.7-2.3-9.8-3.4
			c-2.7-1-4.5-3.5-7.2-5.7c-4.1-3.5-9.4-7.3-12.3-12.1c-8.1-6.6-12.6-16.9-20.4-23.8c-1.2,1-1,2.3-2.6,2.6c-4.6,0.8-4.5-7.4-7.2-8.9
			c-9.1,0.7-19.2,1.8-29.3,3.4c-5.9,0.9-11,2.4-17.5,3.7c-10.8,2.1-21.6,5.2-31.9,8.3c-10.5,3.2-20.9,6-30.7,9.8
			c-2.3,0.9-5.6,1.9-9.2,1.7c1.5-2.4,4.6-3.3,7.2-4.3c8-3.2,17.2-5.5,26.1-8c5.8-1.6,11.6-3.4,17.5-4.9c9.3-2.4,18.5-3.9,28.1-6.3
			c8.3-2.1,15.8-2.5,24.7-4c4-0.7,9.5-1.4,14.1-2c-1.6-5.3-3.8-10-6-14.6c-14.3,1.2-28.5,1.4-41.3,4.3c-0.9,0.2-1,1.3-2,1.4
			c-1.8-0.1-3-0.8-4.3-1.4c3.9-3.4,10.2-3.1,16.1-3.7c10.1-1,21.2-2.2,30.4-3.2c-1.5-6.3-3.6-11.3-5.7-18.4
			c-20.9-0.2-46.1,3.2-66.3,4.9c0.3-3.2,3-2.4,5.2-2.6c18.3-2,38.1-4.3,60.9-4.3c-4.4-15.1-1.5-32.4-4-50.2c-0.6-3.9-0.4-8.7,0-12.6
			c2-3.6,2.6-8.4,3.7-12.1c0-1.5-1.3-3,0-4c5.5,0.6,2.3,6.5,1.1,10.3c-1.3,4.3-2.5,7.9-2,14.1c0.6,7,1.7,14.6,1.7,21.5
			c0,11.9,0.1,23.3,2.9,33c4.5,1.2,10.4-0.9,14.1,1.4c3.6-1.3,13.4,0.4,18.4,0.6c-0.2,0.5-0.9,0.2-0.3,0.9c0.9,0.2,0.4-1,1.4-0.6
			c4.9,1.1,11.3,0.1,15.2,2.9c2-1.9,4.1,0.2,6,0.6c1.1,0.3,2.3-0.1,3.4,0c1.7,0.2,2.9,0.9,5.5,0.9c2.1,0,4.2,1,8,0.6
			c2.9,1,7.3,2.6,10,2.3c1.2,2.6,5.9,1.5,6.6,4.6c-2.5,1.7-3.5-2.5-6-1.7c-1.1,0.3-0.6-1-1.1-1.1c-22.8-4.2-51.6-9.1-80.7-9.2
			c1,7.4,3.8,12.5,5.5,18.7c28-2.2,59.5,1.6,83.5,5.5c1.9,1.2,4.6,1.7,7.2,2.3c0.4,1.4,4.3,0.9,3.2,2.9c-3,0.4-5.6-1.5-8.3-2.3
			c-5.5-1.5-12.2-2.4-18.9-3.4c-2.1-0.3-4.9,0.3-7.2-0.3c0,0,0.6-0.4,0.6-0.6c-16.8-1.4-37.9-3.5-58.6-1.7c1,5.5,4.4,8.8,5.7,14.6
			c2.6,0,4.7-0.9,6.9,0c20.7-1.6,41.4-1.4,59.1,0c5.1-0.2,11,0.5,15.8,2c2.3,0,4.3,0.2,4.6,2.3c-3,0.9-6.4-1.2-10.3-1.7
			c-5.3-0.7-11.1-0.4-16.1-1.1c2.8,9.4,7.2,17.2,15.2,21.2c8.5-0.4,16.8,0.1,21.2-4.3c1.7-1.7,3.3-4.3,4.9-6.3
			c2.5-3.1,4.8-5.3,7.2-8.6c0.6-6.3,0.3-10.6-4-13.5c0.5-0.9,1.6-1.3,2.6-1.7c0.2-1.4,0.6-3.3,0-5.2c-2.6-8.1-12.7-14-14.9-22.1
			c-1.7-6.2,5.9-8.5,11.8-8.9c12.1-0.9,22.7,1.8,32.4,5.2c0.7,0.9,1.5,1.6,2.3,2.3c0.9,8.4-2.7,13.7-10.6,14.6
			c-1.5,1.6-4,2.1-5.7,3.4c-0.1,0.9,0.9,0.7,0.6,1.7c-3.3,4.1-4.7,8.7-4.9,15.5c-0.6,0.9-1.6,1-2.3,1.1c0.1,4.1,1.7,8.2,1.7,12.1
			c3.1,5.4,4,11.5,8.9,15.2c1,0.8,2.3,1.1,3.2,2.3c10.9,1.2,16.7-4.6,25-6.9c1.9-1.9,2.2-5.4,4.6-6.9c-1.7-2.5-5.1-1.5-7.8-2
			c-1.6-0.3-3.5-1.5-5.2-1.7c-2.2-0.3-4.7,0.6-6.3-1.1c1.7-4.3,7.5-0.7,12.3,0.3c2.3,0.5,5.5,1.3,7.2,1.1c1.2-0.1,2.4-1.3,3.4-1.1
			c1.4,0.2,2,1.9,2.6,2.6c18.8,3.4,35.7,9.1,53.1,12.3c7-6.1,13.5-12.5,18.9-20.1c-24.4-2.8-44.4-4-66.3-4.9
			c-2.2-0.1-4.4-0.8-6.6-0.9c-2.3-0.1-4.8,0.8-6.9-0.3c-3.9,1.3-9.2,0.2-13.8,0.6c-3.1,0.2-7.1,2-9.5-0.9c2.3-2.6,6.1-1.4,9.2-1.4
			c5.1-0.1,11,0,16.1-0.3c6.7-0.3,13,0.7,19.5,0.9c20.4,0.5,41.1,4.6,59.7,4.9c2.4-3.1,3.2-8.3,2.9-13.2c1.4-0.2,2-0.8,3.2,0
			c0.4-1.7,1-3.2,1.4-4.9c-24.6-2.9-52.9-2.7-76.4-2c-11.7,0.4-24.1,2.8-33.3,4c-2.1,3.8-6.6-0.5-2-2.6c2.4-1,7.5-0.8,11.2-1.1
			c21.1-2,48.5-4.2,73.2-1.7c8.5-0.8,20.4,1.4,27.6,1.7c3.1,0.1,3.8-5.3,6.6-6.9c-0.1-4,2.7-5.1,3.2-8.6c3.3-3.6,4.7-9.1,8.3-12.3
			c0.7-2.7,2-4.7,3.4-6.6c3.7-9.4,5.2-19.1,10.9-26.4c1.3,0.1,1,0.2,2.3,0.3c2.5-8.2,2.2-16,5.2-22.4c-0.3-4.9,1.4-10,0.6-14.9
			c2.7-6.8,0.9-16,1.4-22.1c-0.7-1.6-1.7-2.9-3.2-4.3c4.2-12.8,4.9-26.1,8.3-38.8c0.2-6.9,1.2-17.2,2.9-23.8
			c1-14.7,3.9-29.4,4.6-45.9c0.3-7.1,1.3-14.4,1.4-21.2c0.2-10.1,1.9-21.2-4.3-27.8c-1.6-1.7-4.9-0.3-7.2,0
			c-7.3,1-14.2,1.5-19.5,4.6c-0.9,0.5-1.6,1.6-2.6,2.3c-1,0.7-2.2,1.1-3.2,1.7c-5.2,3.7-8.3,9.6-14.1,12.3c-1.9,2.5-3.8,5-7.2,6
			c-2.1,4.2-6.9,6-9.8,9.8c-0.7,1-1.3,2.4-2,3.4c-1.7,2.4-2.8,4.7-4.9,7.2c-0.8,0-1.5,0-2.3,0c-8.3,11.7-15.6,24.4-22.1,37.9
			c-3.2,4-5.8,8.5-8,13.5c-3.8,3.4-5.7,9-8.3,14.1c-0.8,1.5-2.3,2.9-2.9,4.3c-1,2.4-0.5,5.2-0.9,7.5c-2,3.8-6.3-0.3-8-2
			c-6.3-0.5-9.7-1.1-16.4-1.7c-12.9-3.7-25.1-1.5-36.2,1.1c-0.8,0.2-1,0.9-1.7,1.1c-1.8,0.1-3.5-0.2-4.3-0.3
			c-0.9-1.3-1.2-3.8-0.6-5.7c-13.7-1.3-26,4.8-35.6,10.3c-0.5,0.7,0,2.5-0.9,2.9c-1.4-0.5-2.7-1.1-4.3-1.4c-0.7-1.2-0.7-1.5-0.9-3.2
			c-10.5-20.6-22.6-39.8-36.5-57.1c-0.5,2.2-1.2,4.6-1.4,7.8c-2,0.6-2.7-0.9-4.9-0.9c-4.7-9-11.9-16.1-18.4-24.1
			c-6.3-7.8-13.9-14.1-20.7-21.5c-3.3-3.6-6.6-7.4-10.3-10.9c-7.5-7-14.5-12.5-24.1-18.4c-5.5-3.3-10.8-7-17.2-6.9
			c-0.9,8.4-2.5,17.9,1.1,25.3c-0.5,5.6,1.5,11.7,2.6,16.9c0.3,1.3,0.5,3.2,0.6,4.6c0.6,15.1,4.4,29.8,8.6,42.8
			c0,0.7-0.5,0.8-0.3,1.7c5,18.7,12.6,36.9,18.4,54c3.5,10.5,7.6,20.6,11.8,31c1.1,2.2,3.9,4.2,2.6,7.2c-2.1,0.4-2.7-2.1-3.4-3.4
			c-5.6-10.6-10.3-25.3-15.2-37c-1.8-6.5-5.1-15.8-7.8-23c-2.7-7.2-6.1-14.3-8-21.5c-1.6-6-2-12.3-4.6-17.2c0-1.6-0.3-5-1.4-6.3
			c-1.2-8.1-3.1-16.5-4-25c-0.2-1.4,0.2-2.6,0-4c-0.2-1.7-1.1-3.4-1.4-5.2c-1.1-6.9-0.9-13.9-2.6-20.4c-1-3.9-0.5-7.2-0.6-12.3
			c0-4.5-1.4-9.1,2.3-11.2c4.1-0.4,6,1.2,9.2,1.7c10.7,6.6,21.2,11.9,30.1,20.1c9.9,9.2,19.5,19.2,29.6,28.4
			c8.6,9.8,16.8,20,25,30.1c0.9-2.6,0.5-8.8,3.7-8.9c2.5-0.1,2.3,3.3,4.6,4c0.9,3.2,3.1,5.1,4.3,8c10.5,12,18.3,26.7,27,40.5
			c1.4,4.6,3.6,6.7,5.5,10.6c11.7-6.1,25.4-12.5,41.9-10.6c0.1,2.1-0.6,3.4-0.6,5.5c7.2-1.6,14.5-2.8,21.8-3.4
			c8.5-0.7,17.5,1.5,27,2.6c3.9,0.4,7.4,1.2,10.3,0.9c6.3-14,14.8-25.8,22.4-38.5c0.1-0.7,0.5-1.1,0.3-2c4.2-5.2,6-12.8,10.6-17.5
			c2.7-7.7,8.2-11.7,11.2-19.5c1.5,0.1,1.9-0.8,3.2-0.9c8.1-10.3,18.4-18.4,28.4-26.7c2.9-5,8.3-8.6,13.2-12.1
			c2-1.5,2.6-1.7,5.7-2.6c2-0.6,4-1.9,6-2.3c5.6-1.2,11.4-1.1,17.2-2.9c1.9,0.7,2.2,3,4.6,3.2c1.9,3.5,3.5,7.3,4.9,11.2
			c-0.3,20.8-1.4,44.4-4.3,67.2c-3.4,26.5-5.6,54.6-11.8,78.1c0.1,1,0.6,1.5,0.9,2.3c-0.4,0.7-0.6,1.7-0.9,2.6
			c1.2,5.8,1,11.8,0.3,18.1c-0.8,7.2-0.9,14.9-2,22.1c-0.9,5.5-2.9,10.4-3.7,16.4c-0.2,1.2-0.4,2.4-0.6,3.4c-0.2,1-0.7,1.9-0.9,2.9
			C498.5,396.1,498.4,401.3,498.1,402.2z M346.8,445c0.1-0.8,1.6-1.6,0.9-2.3C347.4,443.4,345.5,444.4,346.8,445z M295.4,503
			c0.8,1.5,4.2,0.6,5.2-0.3C299,502.4,297.2,503,295.4,503z M355.7,505c1.7,0.8,3.9-0.2,4.6-1.4C358.4,503.9,357.3,504,355.7,505z"
			/>
		<path fill-rule="evenodd" fill="#FFFFFF" d="M0.3,0c341,0,681.9,0,1022.9,0c0.3,0,0.6,0,0.9,0c0,186,0,372.1,0,558.1
			c-0.2,0-0.4,0-0.6,0c-340.8,0-681.7,0-1022.6,0c-1.5,0.1-0.9-2.3-0.9-3.7C0,371.8,0,184.1,0,0.9C0,0.5,0,0,0.3,0z M498.4,396.7
			c0.2-1,0.7-1.8,0.9-2.9c0.2-1.1,0.4-2.2,0.6-3.4c0.9-5.9,2.9-10.8,3.7-16.4c1.1-7.2,1.2-14.9,2-22.1c0.7-6.3,0.9-12.3-0.3-18.1
			c0.3-0.9,0.5-1.8,0.9-2.6c-0.3-0.8-0.8-1.3-0.9-2.3c6.1-23.4,8.4-51.6,11.8-78.1c2.9-22.8,4-46.4,4.3-67.2
			c-1.4-3.9-3-7.7-4.9-11.2c-2.4-0.2-2.7-2.5-4.6-3.2c-5.8,1.7-11.6,1.7-17.2,2.9c-2.1,0.4-4,1.7-6,2.3c-3.1,0.9-3.7,1.1-5.7,2.6
			c-4.9,3.5-10.4,7-13.2,12.1c-10,8.3-20.3,16.4-28.4,26.7c-1.3,0.1-1.7,1-3.2,0.9c-3,7.8-8.5,11.9-11.2,19.5
			c-4.7,4.7-6.4,12.3-10.6,17.5c0.2,0.9-0.2,1.3-0.3,2c-7.6,12.7-16.1,24.5-22.4,38.5c-2.9,0.4-6.5-0.4-10.3-0.9
			c-9.5-1-18.4-3.3-27-2.6c-7.3,0.6-14.6,1.8-21.8,3.4c-0.1-2.1,0.6-3.4,0.6-5.5c-16.5-1.8-30.2,4.5-41.9,10.6
			c-1.8-3.9-4.1-6-5.5-10.6c-8.7-13.8-16.5-28.5-27-40.5c-1.2-2.9-3.4-4.8-4.3-8c-2.3-0.7-2.1-4.1-4.6-4c-3.2,0.1-2.9,6.3-3.7,8.9
			c-8.2-10.2-16.4-20.4-25-30.1c-10.1-9.2-19.6-19.3-29.6-28.4c-8.9-8.2-19.5-13.5-30.1-20.1c-3.1-0.5-5.1-2.2-9.2-1.7
			c-3.6,2.1-2.3,6.7-2.3,11.2c0,5.2-0.4,8.4,0.6,12.3c1.6,6.5,1.5,13.5,2.6,20.4c0.3,1.8,1.2,3.5,1.4,5.2c0.2,1.4-0.2,2.7,0,4
			c0.9,8.5,2.8,16.9,4,25c1.1,1.4,1.5,4.7,1.4,6.3c2.6,4.9,3,11.2,4.6,17.2c1.9,7.2,5.4,14.4,8,21.5c2.7,7.2,6,16.4,7.8,23
			c4.9,11.8,9.7,26.4,15.2,37c0.7,1.3,1.3,3.8,3.4,3.4c1.3-2.9-1.5-5-2.6-7.2c-4.2-10.4-8.3-20.5-11.8-31
			c-5.7-17.1-13.4-35.3-18.4-54c-0.2-0.9,0.3-1,0.3-1.7c-4.2-12.9-8-27.7-8.6-42.8c-0.1-1.4-0.3-3.3-0.6-4.6
			c-1.1-5.3-3.1-11.3-2.6-16.9c-3.7-7.3-2-16.8-1.1-25.3c6.4-0.1,11.8,3.6,17.2,6.9c9.6,5.9,16.6,11.4,24.1,18.4
			c3.8,3.5,7.1,7.3,10.3,10.9c6.8,7.4,14.4,13.8,20.7,21.5c6.5,8,13.6,15.1,18.4,24.1c2.2,0,2.9,1.4,4.9,0.9
			c0.3-3.2,0.9-5.5,1.4-7.8c13.9,17.3,25.9,36.5,36.5,57.1c0.2,1.7,0.1,1.9,0.9,3.2c1.6,0.3,2.9,1,4.3,1.4c0.9-0.4,0.3-2.2,0.9-2.9
			c9.6-5.5,21.9-11.6,35.6-10.3c-0.6,1.9-0.3,4.4,0.6,5.7c0.8,0.1,2.5,0.4,4.3,0.3c0.7-0.2,1-0.9,1.7-1.1
			c11.1-2.6,23.2-4.9,36.2-1.1c6.6,0.7,10,1.2,16.4,1.7c1.7,1.7,6,5.8,8,2c0.4-2.2-0.1-5,0.9-7.5c0.6-1.4,2.1-2.8,2.9-4.3
			c2.6-5.1,4.6-10.7,8.3-14.1c2.2-5,4.9-9.5,8-13.5c6.5-13.5,13.8-26.2,22.1-37.9c0.8,0,1.5,0,2.3,0c2.1-2.5,3.2-4.8,4.9-7.2
			c0.8-1.1,1.3-2.5,2-3.4c2.9-3.7,7.7-5.6,9.8-9.8c3.3-1.1,5.3-3.5,7.2-6c5.8-2.8,8.8-8.6,14.1-12.3c0.9-0.7,2.2-1.1,3.2-1.7
			c0.9-0.7,1.7-1.8,2.6-2.3c5.3-3.1,12.2-3.6,19.5-4.6c2.3-0.3,5.6-1.7,7.2,0c6.2,6.6,4.5,17.8,4.3,27.8c-0.2,6.8-1.1,14.1-1.4,21.2
			c-0.7,16.5-3.6,31.2-4.6,45.9c-1.7,6.6-2.7,17-2.9,23.8c-3.5,12.7-4.1,26-8.3,38.8c1.5,1.4,2.4,2.7,3.2,4.3
			c-0.5,6.1,1.2,15.3-1.4,22.1c0.8,4.9-0.9,10.1-0.6,14.9c-3,6.4-2.7,14.2-5.2,22.4c-1.3-0.1-1-0.2-2.3-0.3
			c-5.7,7.3-7.3,17-10.9,26.4c-1.4,1.9-2.8,3.9-3.4,6.6c-3.6,3.3-5.1,8.7-8.3,12.3c-0.4,3.5-3.2,4.6-3.2,8.6c-2.8,1.6-3.5,7-6.6,6.9
			c-7.2-0.3-19-2.6-27.6-1.7c-24.7-2.5-52.1-0.3-73.2,1.7c-3.7,0.3-8.8,0.1-11.2,1.1c-4.6,2-0.1,6.4,2,2.6c9.2-1.2,21.6-3.7,33.3-4
			c23.5-0.7,51.8-0.9,76.4,2c-0.4,1.7-1.1,3.1-1.4,4.9c-1.2-0.8-1.8-0.2-3.2,0c0.3,5-0.5,10.1-2.9,13.2c-18.6-0.2-39.3-4.4-59.7-4.9
			c-6.5-0.1-12.8-1.2-19.5-0.9c-5.1,0.2-11,0.2-16.1,0.3c-3.1,0.1-6.9-1.2-9.2,1.4c2.4,2.8,6.3,1.1,9.5,0.9
			c4.5-0.4,9.9,0.7,13.8-0.6c2.1,1.1,4.6,0.2,6.9,0.3c2.2,0.1,4.4,0.8,6.6,0.9c21.9,0.9,41.9,2,66.3,4.9c-5.4,7.6-12,14-18.9,20.1
			c-17.4-3.2-34.3-9-53.1-12.3c-0.6-0.7-1.2-2.4-2.6-2.6c-1.1-0.2-2.3,1.1-3.4,1.1c-1.7,0.1-4.9-0.7-7.2-1.1
			c-4.9-1-10.6-4.6-12.3-0.3c1.6,1.8,4.1,0.8,6.3,1.1c1.7,0.2,3.5,1.4,5.2,1.7c2.7,0.5,6-0.5,7.8,2c-2.4,1.5-2.7,5-4.6,6.9
			c-8.2,2.3-14.1,8.1-25,6.9c-0.9-1.2-2.1-1.5-3.2-2.3c-4.9-3.7-5.8-9.8-8.9-15.2c0-3.8-1.6-8-1.7-12.1c0.7-0.1,1.6-0.3,2.3-1.1
			c0.2-6.8,1.6-11.4,4.9-15.5c0.3-1.1-0.7-0.8-0.6-1.7c1.8-1.3,4.3-1.9,5.7-3.4c7.9-0.9,11.6-6.2,10.6-14.6
			c-0.8-0.7-1.6-1.4-2.3-2.3c-9.7-3.4-20.3-6-32.4-5.2c-5.9,0.4-13.5,2.7-11.8,8.9c2.2,8.1,12.4,14,14.9,22.1c0.6,1.9,0.2,3.8,0,5.2
			c-1,0.5-2.1,0.8-2.6,1.7c4.3,2.9,4.6,7.1,4,13.5c-2.4,3.3-4.7,5.5-7.2,8.6c-1.6,2-3.2,4.6-4.9,6.3c-4.5,4.4-12.8,3.9-21.2,4.3
			c-8.1-4.1-12.4-11.9-15.2-21.2c5,0.7,10.8,0.4,16.1,1.1c3.9,0.5,7.3,2.6,10.3,1.7c-0.2-2-2.3-2.3-4.6-2.3
			c-4.8-1.5-10.7-2.2-15.8-2c-17.7-1.4-38.4-1.6-59.1,0c-2.1-0.9-4.3,0-6.9,0c-1.3-5.9-4.7-9.1-5.7-14.6c20.7-1.8,41.7,0.3,58.6,1.7
			c0.1,0.1-0.6,0.6-0.6,0.6c2.3,0.6,5.1,0,7.2,0.3c6.7,1.1,13.4,1.9,18.9,3.4c2.7,0.8,5.3,2.7,8.3,2.3c1.1-2-2.7-1.5-3.2-2.9
			c-2.6-0.6-5.2-1.1-7.2-2.3c-24.1-3.8-55.5-7.7-83.5-5.5c-1.6-6.2-4.4-11.3-5.5-18.7c29.1,0.1,57.9,5,80.7,9.2
			c0.6,0.2,0.1,1.5,1.1,1.1c2.5-0.8,3.5,3.4,6,1.7c-0.7-3.1-5.4-2-6.6-4.6c-2.7,0.3-7.1-1.3-10-2.3c-3.8,0.4-6-0.6-8-0.6
			c-2.6,0.1-3.8-0.7-5.5-0.9c-1.1-0.1-2.3,0.3-3.4,0c-1.9-0.4-4-2.5-6-0.6c-3.9-2.7-10.3-1.7-15.2-2.9c-1.1-0.4-0.6,0.8-1.4,0.6
			c-0.6-0.7,0.1-0.3,0.3-0.9c-5-0.2-14.8-1.8-18.4-0.6c-3.7-2.4-9.5-0.2-14.1-1.4c-2.8-9.7-2.9-21.2-2.9-33c0-7-1.1-14.5-1.7-21.5
			c-0.5-6.2,0.7-9.7,2-14.1c1.2-3.9,4.3-9.7-1.1-10.3c-1.3,1.1,0,2.6,0,4c-1.1,3.7-1.8,8.5-3.7,12.1c-0.4,3.9-0.6,8.7,0,12.6
			c2.6,17.9-0.4,35.1,4,50.2c-22.8,0-42.6,2.3-60.9,4.3c-2.1,0.2-4.8-0.6-5.2,2.6c20.3-1.6,45.4-5.1,66.3-4.9
			c2.2,7.1,4.2,12.1,5.7,18.4c-9.2,0.9-20.3,2.1-30.4,3.2c-5.9,0.6-12.1,0.3-16.1,3.7c1.3,0.6,2.5,1.3,4.3,1.4c1-0.2,1.1-1.2,2-1.4
			c12.9-2.9,27-3.1,41.3-4.3c2.2,4.7,4.4,9.3,6,14.6c-4.6,0.7-10.1,1.3-14.1,2c-8.9,1.5-16.4,2-24.7,4c-9.7,2.4-18.8,3.9-28.1,6.3
			c-5.9,1.5-11.8,3.3-17.5,4.9c-9,2.5-18.2,4.9-26.1,8c-2.6,1-5.7,1.9-7.2,4.3c3.6,0.2,6.9-0.8,9.2-1.7c9.8-3.8,20.2-6.6,30.7-9.8
			c10.3-3.1,21.1-6.2,31.9-8.3c6.6-1.3,11.6-2.8,17.5-3.7c10.1-1.6,20.2-2.8,29.3-3.4c2.7,1.5,2.6,9.7,7.2,8.9
			c1.5-0.3,1.3-1.5,2.6-2.6c7.8,7,12.3,17.2,20.4,23.8c2.9,4.7,8.2,8.5,12.3,12.1c2.7,2.3,4.5,4.7,7.2,5.7c3.1,1.2,7.2,1.4,9.8,3.4
			c1.4,1.1,1.7,3,3.4,4c1.9,0.8,3.8-0.3,5.2-0.3c3.6,1.7,6.7,3.8,10.9,4.9c0.6,0.7-0.1,0.3-0.3,0.9c3.4-0.9,6.9,4.9,9.5,1.4
			c0.2-1.5-1.5-1-1.4-2.3c-6.4-0.8-9.8-4.6-15.5-6c-0.7-2.3-3.1-3-5.5-3.7c-1.4-0.4-0.7,1.2-2,0.9c-4.3-3.4-8.4-5.4-14.9-6.6
			c-14.8-11-25.9-26.6-37-40.8c-1.1-1.4-2-4.3-4.6-2.9c-1.2,0.9-0.1,2.3-1.4,2.9c-0.5-1.4-1.8-2-1.7-4c10.7-1.6,21.4-0.8,31.3-1.1
			c8.4-0.3,17.3,0.2,25.3,0c-0.1,1.2-1.9,0.6-1.7,2c0.8,3.8,1.9,6.2,3.7,9.2c0.9,1.4,1.5,3.3,2.3,4.6c2.3,3.7,5.9,6.2,9.5,8.9
			c4.5,3.4,10.1,6.7,16.4,3.7c0.2-0.1,0.1-0.9,0.6-1.1c0.2-0.1,1,0.1,1.1,0c2.2-1.4,3.9-3.3,6-4.6c1.9-1.1,4-1.7,5.2-2.6
			c1.7-1.2,2.3-3.5,4.6-4c2.4-3.8,5.2-7.3,6.9-11.8c1.5,5.3,2.2,9.5,4.3,13.5c0.8,1.6,3,2.7,3.2,4.9c1.5-0.2,1.7,0.8,2,1.7
			c6.3,3.5,13,8,21.8,6.9c4.3-0.5,9.4-6.6,13.8-7.5c3.5-3.4,4.6-9.2,7.8-12.9c7.7,2.1,15.3,3.1,22.7,4.9c2.6,0.6,4.9,2,7.5,2.6
			c1.3,0.3,2.9-0.1,4.3,0.3c1.1,0.3,2.1,1.2,3.2,1.4c5,1.3,9.6,1.5,13.2,3.2c-5.1,6.3-12.8,10-17.2,16.9c-2.3,1.4-3.8,1.7-5.7,3.4
			c-8.4,2.4-14.1,7.6-23,9.5c-9.4,5.8-19.5,9.6-32.4,10.3c0.1,0.9-0.9,0.6-1.4,0.9c-10.9,0.5-24.3-0.4-34.4-0.3
			c-1.1,0-2.9-1.1-3.4,0.6c0.3,2.1,2.9,0.7,4,0.9c0.8,0.1,1.3,0.8,2,0.9c7.8,0.7,15.5,0.8,23.5,0.6c5.9-0.2,11.9,0,17.5-1.1
			c4.6-1,9.5-2.8,13.8-3.2c4.2-1.5,7.4-4.3,11.5-6.3c4.4-2.1,9.8-2.9,14.4-5.2c2.1-1,4-2.4,5.7-3.2c2-0.9,4.8-1.5,6.6-2.6
			c3.1-1.9,4.9-4.5,6.9-6.9c2.6-3.1,6.4-4.2,9.2-6.9c2.5-2.4,3.7-5.8,6.9-7.8c24.2,5.9,49.1,13.2,71.2,21c1.1,1.7,3.1,3.5,5.7,2
			c0.1-2-1.8-2-2.3-3.4c-12.2-4.6-24.7-7.4-37-12.1c-2.1,0.3-3.6-1.3-5.2-0.6c-3.1-2.3-8-2.9-11.5-3.4c-4.6-0.7-8.7-3.3-13.2-3.2
			c-1.1-1.6-4.6-0.8-5.5-2.6c4-4.2,8.8-7.5,11.8-12.6c0.4,0,0.4,0.4,0.9,0.3c0.4-1.6,1.8-2.6,2.9-4c1-1.3,1.7-3,3.2-3.7
			c2.1-1,5.8-0.2,8.6,0c10.9,0.8,22.6,2.7,31.6,3.7c0.8,0.4,0.5,1.8,1.7,1.7c1.3-0.3,2.8-0.5,3.2-1.7c-0.9-2.3-3.7-2-5.7-2.3
			c-11.2-1.5-26.8-3.1-37.9-4c2.1-5.1,4.7-8.9,5.7-15.5c1.2-0.4,1-2.3,2.3-2.6c27.2,2.4,52,6,76.4,10.6c1.8,1.7,6.2,0.9,7.5,3.2
			c0.1,1.2-1,1.3-1.1,2.3c-1.9,0.2-4,0.1-4.6,1.4c2.9,1.1,10.2,0.3,10-3.7c-0.1-3.3-6-3.7-8.9-4.3c-1.4-0.3-2.7-1.2-4-1.4
			c-21.8-4.4-52.4-7.1-74.4-10c1.9-3,4.9-6.4,4.9-10.3c0.5-0.3,1.5,0,1.4-0.9c0.7-1.6,2.1-2.7,2.3-4.9c7.7-9.8,12.2-22.8,17.5-35
			c-0.2-2.6,1-3.8,2-5.2c0,1.9,2.1,3,3.7,2.3C498.4,401.3,498.5,396.1,498.4,396.7z M19.2,10.9c-0.2,2.6,0.9,3.9,2,5.2
			c0.9,5.9,5,8.6,7.8,12.6c6.6,14.1,18.4,22.9,30.1,31.9c1.2-0.1,1.5,0.8,2.9,0.6c13.5,9.1,29.1,15.5,45.1,21.8
			c4,1.6,8.2,2.7,12.3,4.3c20.1,7.8,42.2,13.1,64.3,18.4c13.7,3.2,27.7,6.8,39.9,9.5c7.5,1.6,13.1,2.1,19.5,3.4
			c13.6,2.9,27,3.9,39.3,6.9c10.1,12.6,18.5,27.1,29,39.3c1.4-0.7,2.6,0.3,4-0.3c4.1-12.3,6.1-25.9,10.6-37c3.9,0.2,6.4,1.3,10,0.6
			c8.5,2.4,17.1,3.6,24.7,5.2c4.1,0.9,8.4,1.3,12.6,2c11.4,1.9,21.4,4.8,32.2,6.6c19.6,3.3,41,10,62.3,12.3
			c25.2,2.7,50.9,6.8,77.8,7.5c19.5,0.5,42.9,2.2,59.7,1.1c27.4,1.4,54.9,1,83.3-0.3c5-0.2,10.1-0.1,14.9-0.3
			c13-0.5,25.1-1.6,36.7-2.6c6.1-0.5,11.9-1.4,17.8-2c5.1-0.5,10.3-0.5,15.2-1.1c5-0.7,9.8-1.8,14.6-2.3c10.8-1.2,21.1-3.7,31.9-5.5
			c1.6-0.3,3.5,0,5.2-0.3c10.2-1.6,20.3-3.9,30.4-5.7c5.2-0.9,10.3-2,15.5-3.2c6.4-1.5,12.8-3.3,18.9-3.7c1.8-1.1,3.7-3.3,6-4.3
			c3.5-1.5,7.5-2.4,11.5-3.7c3.8-1.3,7.5-3,11.2-4.3c4-1.4,8-2.1,11.8-3.7c3.5-1.5,6.8-3.8,10.3-5.2c8-3.2,15.4-5.7,22.4-8.6
			c5.6-2.3,10.8-5,16.1-7.2c5.9-2.4,13.1-5.2,18.9-8c1.8-0.9,3.9-1.9,6.3-2.9c2.2-0.9,6.2-1.2,6.3-3.4c0.3-4.2-7.6,0.7-8,0.9
			c-8.8,3.2-17.3,7.1-26.1,11.2c-8.4,4-17.2,7.7-26.1,11.5c-4.4,1.9-8.9,3.4-13.2,5.5c-4.3,2-8.5,4.2-12.9,5.7
			c-9.2,3.3-18.7,6.3-28.1,9.5c-5.8,2-12.4,5.5-19.2,5.5c-3.3,2.6-7.9,2.3-11.8,3.2c-1.7,0.4-3.2,1.4-4.9,1.7
			c-5.9,1.2-12.2,1.7-18.4,2.9c-6,1.1-12,2.5-18.1,3.4c-4.5,0.7-9,0.9-13.5,2c-16.2,3.9-33,5.1-48.8,7.5c-8.2,1.2-16.9,1.8-25.3,2.3
			c-13.2,0.9-26.4,2.3-39.9,2c-5.5-0.1-10.8,1.1-16.1,1.1c-13.3,0.2-26.7,0.2-39.9,0.6c-5.9,0.2-11.8-0.6-17.8-0.6
			c-10.7,0-21.1,0.4-32.4,0.3c-7.6-0.1-15.3-1.2-23-1.1c-10.6,0-22.5-0.6-31.9-1.4c-3.2-0.3-6,0-9.2,0c-2.6,0-4.9-0.8-6.9-1.1
			c-2.2-0.3-4.6,0.2-6.9,0c-2.1-0.1-4.3-0.9-6.3-1.1c-3.4-0.3-6.9-0.2-10.3-0.6c-3.2-0.3-6.5-1.5-9.8-1.7
			c-38.9-3.3-76.4-15.4-113.4-20.4c-0.8-1-2.1-1.2-3.2-1.4c-4.2-0.8-8.6-1.3-12.9-2c-11.2-1.9-22.9-3.5-32.4-6.9
			c-2.2,3.1-2.5,7-3.7,10.6c-1.8,5.1-3.6,10.1-4.6,14.6c-0.9,4-1.6,7.6-3.4,11.2c-5.9-3.2-7.8-10.4-13.2-14.1
			c0.1-2.4-2.2-3.9-3.4-5.7c-1.3-1.8-2.5-3.9-3.7-6c-1.6-2.7-5.7-10.2-8.6-11.2c-2.1-0.7-5.6-0.5-8.3-0.9c-15.1-2.2-28.2-4-41.1-6.6
			c-10-2-20.1-3.9-30.4-6.3c-5.1-1.2-10.1-2.7-15.2-4c-10.2-2.7-20.6-4.4-30.7-7.2c-12.5-3.4-25.3-6.8-36.2-11.2
			c-6.9-2.8-13.2-4.9-19.8-7.5c-13.6-5.3-26.3-11.6-37.9-18.7c-0.3-0.9-0.8-1.6-1.4-2.3c-6.3-3.9-12-9.7-17.2-15.8
			c-5.1-6-10.6-11.8-15.5-17.5c-1.4-1.6-3.2-4.2-4.6-6.9c-1.1-2-2.8-6.9-4.6-6.9C20.1,9.6,19.7,11,19.2,10.9z M489.2,272.4
			c1.1-4.6,2.6-9.3,3.4-13.8c0.7-3.8,1.1-7.7,2-11.5c2.6-11.2,7.8-22.6,8.9-33.9c0.2-1.8-0.2-3.4,0-5.2c0.3-2,1.1-4,1.4-6
			c0.7-4.8,1.3-10.8,1.1-15.2c0-0.5-0.1-3.3-0.3-3.7c-1.4-4.3-4.5-0.6-8-0.9c-9.7,8.2-19.7,16.1-28.1,25.5
			c-6.9,3.8-11,10.4-17.5,14.6c-5.1,7.2-11.4,13.3-16.1,21c-0.5,0-0.9,0.1-1.1,0.3c-4.6,7.4-10.2,13.7-14.9,21
			c-3.7,4.1-7.7,7.8-9.5,13.8c-3.1,3.2-5.4,8.5-5.5,13.8c-0.7,1.2-1.1,2.7-1.4,4.3c0.8,0.4,2,0.4,2.9,0c2.8-10.6,7.8-19,13.2-27
			c0.7,0,0.9-0.5,1.4-0.6c3.6-6.9,9.8-11.2,12.9-18.7c5.6-5.8,10.1-12.7,14.9-18.7c0.9-1,2.2-1.6,2.9-2.6c0.4-0.6,0.4-1.4,0.9-2
			c2.3-2.7,5.2-4.9,7.8-7.2c10.2-9.2,20.7-18.4,30.4-27.8c3.8-1.9,5.9-5.4,10.6-6.3c1.8,7.1-0.6,14.1-1.4,19.8
			c-0.6,4-0.4,8.1-1.1,11.8c-0.4,2.3-1.4,4.5-2,6.6c-5.4,20.4-9.9,38.5-14.4,60.3c-3.4,9.2-5.4,19.8-7.8,30.1
			c-1.3-1.8-4.4-1.3-4.9-3.7c-0.2-1.1,1-1.7,1.1-2.9c0.6-4.1-1.3-7.9-4-10c-5.1,0.8-8.9,4.3-12.9,5.2c6.1-14.8,14.5-29.8,16.9-46.8
			c1.6-1.3,0.4-3.3,0.9-5.2c0.6-2.6,3.7-8.5,0.6-9.2c-0.7,0.8-1.5,1.3-2.3,2c-0.8,8.2-3.8,14.2-5.7,21.2c-4.2,5.2-7,11.7-11.8,16.4
			c0.8-4.5,4.7-8.8,3.7-13.2c0.5-0.1,1.2-0.1,1.1-0.9c0.1-2.5,1.7-6.1,2.3-9.2c0.6-3.2,0.3-8.2,1.4-12.1c0.4-1.3,1.2-9.4,0.6-11.2
			c-1-2.8-4.9-2.4-3.7,1.1c-0.8,3.7-3.2,8.8-2.9,13.5c-1.9,1-1.3,3.2-1.7,4.9c-1.8,6.9-5.3,13.8-6.3,21.5c-1.6,3.2-3,6.6-4,10.3
			c-3.3,4.6-4.5,11.4-10.3,13.5c3.9-10.3,8.6-20.6,6.9-33.9c-0.9,0.2-1.3-0.2-2-0.3c-6.2,5.6-7.5,16.1-14.1,21.2
			c0.2-1.1,0.7-1.9,1.1-3.2c0.4-1.3,0.6-3.4,0.9-4.6c0.8-3.2,6-10.9,0.6-11.5c-1.8,2.8-4.5,4.7-5.5,8.3c-3.1,3.5-5,8-7.5,12.1
			c-2.3,3.9-6.3,7.6-6,12.9c1.1,0.2,1.2-0.8,2.3-0.6c1-2.1,1.6-4.5,3.4-5.7c0.6-3.4,3-6.3,4.6-9.2c1.6-2.9,3.2-6.2,5.5-7.8
			c-0.5,5.5-3.1,7.2-4,12.3c-1.5,1.1-2.7,2.5-2.9,4.9c0.2,0.1,0.3,0.2,0.3,0.6c0.8,0.3,2,0.3,2.9,0.6c9.3-4.8,10.9-17.2,17.8-24.4
			c-0.1,14.2-4.8,20.6-8.3,31.3c3.6,2.3,7.4-1.1,9.2-3.2c3.4-3.8,5.5-9.9,7.8-13.2c4.4-13,8.2-27.5,12.6-40.8
			c-1,17.1-5.3,32.4-12.9,43.9c-0.5,0.6-2.2,1.1-1.4,2c2.3,2.1,5.8-1.9,7.8-4c1.8-1.9,3.4-4.2,4-6.3c0.8-0.4,1.2-1.3,2-1.7
			c0.8-2.5,2.7-4.4,4-6.6c1.4-2.3,2.4-5.1,4.3-6.6c-2.1,5.3-2.4,9.6-5.7,14.1c0.6,0,0.1,1,0.3,1.4c-3.5,6-5.8,13.1-10,18.4
			c0.5,2.6-1.4,2.6-0.9,4.6c1.6,6.6,12.8-4.8,16.7-3.4c2.7,3.3-0.4,8.3,0.3,12.1c2.6,1.5,6.6,1.9,7.2,5.2c0.4,2.2-1.2,4.3-1.1,7.2
			c0.9,1.4,3.6,2.3,4.9,0.9c-0.3-0.6-0.7-2.7,0.3-4c0.6,0.9,1.8,1.6,3.2,0.9c-0.2-2.4-2.5-2.8-2.9-5.2c-0.5-3.4,1.9-8.1,2.9-12.3
			c1-4.4,2.2-8.6,2.6-12.6c1-1.7,1.8-4.7,1.7-6.6C487.7,283.1,488.1,276.9,489.2,272.4z M213.6,319.5c1.2,2.1,2.9,6.2,6.6,5.2
			c0.7-6.2-3.2-10.7-3.2-15.8c1.8,3,2.2,6.5,4.3,10.3c1.4-0.3,2.3,0.7,3.2,0c0.5-12.1-3.8-21.7-4.9-32.4
			c5.5,10.4,11.4,20.5,19.2,28.7c1.4,0,2,0.4,2.9,0.3c-0.4-10.1-6.6-16.9-8.6-26.4c3.8,5.1,7.5,10.3,10.6,16.1
			c3.3,3.8,7.4,7.2,11.5,10.3c2,1.5,4.7,4.8,7.2,2.9c0.9-0.9-1-0.5-0.6-1.7c1.3,0.1,1.8-0.5,2-1.4c0-2.6-1.3-3.9-2-5.5
			c-6.9-14.7-14.9-29.6-22.4-43.6c-5.4-8.5-12.2-16.1-18.4-24.1c-1-1.4-1.5-3.2-2.6-4.6c-0.9-1.1-2.3-2.1-3.2-3.2
			c-1-1.3-1.9-2.5-2.9-3.7c-1.9-2.4-3.5-5-5.5-7.5c-6.1-7.8-14.5-15.6-22.4-22.7c-5.6-5-10.9-10.3-18.1-13.5c-0.7-1.2-1.9-1.8-3.4-2
			c0.1,0.6-0.2,0.9-0.9,0.9c1.9,18.7,5.8,36.2,11.5,53.1c1.1,8.7,5,14.7,5.5,24.1c0.5,0.3,0.6,0.9,0.9,1.4
			c4.2,16.6,3.7,34.6,11.2,47.7c0.4,0.8,1.3,1.3,1.7,2c2,3.3,4.1,8.8,5.2,12.3c0.4,1.4,0.2,2.9,0.6,4.3c1,3.4,3.1,6.7,4,10.3
			c-0.9,1.8-0.7,5,0.3,6.9c1.8,0.2,2.8-1.1,2.6-2c0.5,1,3,1.3,3.7,0.3c0.3-2.3-2.4-3.6-2.9-5.7c-0.5-2.4,0.2-5.2,0-7.8
			c-0.6-8.1-3.4-15.8-4-22.1c2.6,4.5,4.5,8.6,7.5,13.8c1.8,3.2,4.5,10.2,8.6,7.8c0.1-9-7.8-12.8-8.9-20.7c-0.8-0.4-1.5-0.9-0.9-2
			c-3.1-2.7-3.5-8-5.2-12.1c-0.4-0.7-2.2-1.4-1.1-2.6C206.4,302.2,209.5,312.5,213.6,319.5z M579.3,447.6
			c20.3,10.5,47.8,9.5,74.9,11.2c20.5-1,42.9,1.2,62.3-1.1c5.4-0.7,11.1-0.6,16.4-1.4c2.7-0.4,5.1-1.4,7.8-1.7
			c8.2-1,16.2-1.3,24.1-2.9c7.1-1.4,13.1-2.9,19.5-4c5-0.9,10.2-1.2,14.9-2.3c11.6-2.6,22.7-5.9,33.6-10.3c2.4-1,4.5-2.9,7.8-2.9
			c6.8-3.3,15.1-5.4,21.5-9.8c6.1-2,9-5.3,15.5-7.8c4.7-2.5,10.8-7.5,15.5-10c0.9-0.6-0.8-0.6,0-0.9c9.6-7.5,16.2-16.9,23.8-24.4
			c1.9-3.2,5-7.8,7.8-11.2c-1-0.9,1.1-1.3,0.6-2.6c5.4-8.1,8.6-20,11.8-30.1c-0.6-1.4,0.3-2.7-0.3-4c0.6,0.3,0.6,0.3,0.3-0.3
			c1.5-13-0.2-28.3-3.2-39.6c-3.6-7.4-6.4-17.7-10.9-23.8c-1-1.3-1.2-1.7-2-2.9c-5.8-9.1-14.4-14.9-21.5-21.8
			c-2-0.7-3.3-2.4-5.2-3.4c-1.9-1.1-4.1-1.8-6-2.9c-0.7-0.4-1-1.3-1.7-1.7c-2.4-1.5-5.2-2.2-7.8-3.4c-6.4-3.2-12.2-6.1-19.8-7.5
			c-12.8-5.6-27.5-5.8-43.3-7.5c-18.6-2-39-5.2-59.1-5.2c-14.2,0-28.2-0.1-41.3,0.9c-8.3-0.5-19.4-0.2-27.8,0
			c-6.5,0.1-15,0.7-21,0.9c-2.7,0.1-5.7,1-7.5,1.1c-3.1,0.3-6.2-0.3-9.2,0c-8.3,0.8-17.8,2.2-26.7,3.2c-7.2,0.7-15,2.2-20.7,3.4
			c-5.8,1.3-11.5,1.7-16.9,3.2c-15.3,4-27.5,9.4-37,18.7c-2.4,2.3-5,5-6.6,7.5c-0.4,0.7-0.6,1.9-1.1,2.9c-1.7,2.9-3.3,5.6-4.9,8.9
			c-4.7,9.6-9.5,18.9-9.8,30.7c-2.6,6.7-3.4,16.2-4.6,23.8c-1,0.4-1,1.1-1.1,1.7c-1.1,4.6-1.4,10.3-2,15.5c-0.3,2.4-0.6,4.8-0.9,7.2
			c-0.6,5.2,0,10.4-0.6,15.2c-0.3,2.8-1.5,5.5-1.7,8.3c-0.3,3.9-0.3,8.1-0.3,11.8c0,2.2,0.9,4.8,0.9,6.9c0,0.9-0.6,1.2-0.6,2
			c0.5,6.6,4.2,12.5,7.8,17.2c2.1,0.6,3.9,1.4,4.9,3.2c1.7-0.5,2.7,0,3.4,1.1c-13,6.2-23.3,14.5-38.2,17.2c0,1.2-1.1,1.2-1.4,2
			c3,3.3,9.2,3.4,12.9,3.2c4.7-0.3,9.8,0.6,14.6,0.6c10.8,0,22.2-2.4,32.4-2.9C557.4,436.9,566.8,443.8,579.3,447.6z M266.4,384.1
			c-0.9,10.6,4.8,14.5,9.2,19.8c5.3,2.9,12.8,3.6,20.7,4c5.9-3.2,8.7-12.2,7.8-21c-0.3-2.3-1-5.8-3.2-5.5c-1.3,0.2-2.2,3.8-2.6,6
			c-0.9,5.2-0.9,11.8-4.6,14.6c-12,4-21.8-2.3-21.8-16.4c0-1.7,0.7-3.5,0.3-5.2C269.1,378.6,267,381.9,266.4,384.1z M385,407.1
			c-4.1,1.3-8.3,0.4-10.9-2.6c-2.2-4.2-5.1-8.7-3.4-15.2c-0.9-1.6-1.7-3.8-2-5.2c-0.9,0-1-0.8-2-0.6c-0.3,1-0.7,1.9-1.4,2.6
			c-1.3,7.5,2.6,17,6.9,22.4c2.3,1.1,4.1,2.6,6.3,3.2c12.9,3.6,21.2-6.4,22.1-18.4c-0.8-1.2-1.7-2.1-3.7-1.4
			C395.7,398.7,391.3,405.1,385,407.1z M391.6,413.1c0,0.9,0.7,1.3,1.7,1.1c-0.1-0.7,0-1.1,0.3-1.4
			C392.6,412.6,392.5,413.2,391.6,413.1z"/>
		<path fill-rule="evenodd" fill="#FFFFFF" d="M191.5,285.4c-4.7,1.1,0.1,6.6,1.4,9.5c2.4,5.4,4.3,12.8,6.3,16.9
			c1,5.7,2.9,11.7,3.2,17.2c-2-3-2.1-8-4.6-10.6c-1.2-5.8-5.5-10.2-7.2-15.8c-0.4-1.2-0.2-2.7-0.6-4c-1.2-4-2.8-9-3.2-14.4
			c-0.3-4.1-1.3-7.9-2.3-12.1c-1.1-4.9-1.9-9.7-2.9-14.9c-1.2-6.3-3.4-12.5-4.9-18.9c-1.9-8.6-5.1-16.5-7.2-25.8
			c-1.4-6.1-2.8-13-2.9-20.7c9.2,3.2,13.8,11.1,21.2,16.1c5.5,6.8,12.5,12,16.9,19.8c0.4,0.4,1.1,0.6,1.7,0.9
			c4,6.5,9.3,12.5,14.1,18.7c3.1,3.9,5.9,8.1,9.5,11.5c0,1.1,0.5,1.8,0.9,2.6c5.7,6.9,9.2,15.9,14.4,23.3c2.8,8.5,7.9,14.7,10.9,23
			c1.7,1.4,3.5,5.3,2.6,7.5c-2.9-1.3-4.6-3.8-7.5-5.2c-8.6-9.5-15.1-21.1-22.7-31.6c-4.7,1,0.3,6.1,1.4,8.9c0.8,2.1,1.6,5.2,2.6,8
			c0.9,2.5,2.2,5,2.9,7.2c0.9,3,1.1,5.2,1.7,7.2c-3.1-2.6-4.9-6.6-7.8-9.5c-0.8-4-3.7-5.8-4.9-9.5c-0.2-0.4-0.6-0.5-1.1-0.6
			c-0.9-3.5-2.8-7.2-4.3-11.2c-1.5-3.9-2.2-8.2-4-11.8c-1.2,0-1.6,0.8-2.3,1.4c3.3,13.8,6.4,27,8.3,42.5c-3.4-6.7-4.9-15.4-8-22.4
			c-0.7-5-1.9-11.8-4.6-15.8c-1,0.3-0.9,1.6-2,1.7c3,15.3,6.4,30,9.8,43.6c-1.6-0.2-0.4-1.5-2-1.7c-3.5-7.2-6-15.5-9.8-23.3
			c-1.1-2.3-2.2-3.6-3.4-6.3c-1.8-3.9-3-7.7-6-10.6c-1.1,0.1-1.1,1.2-1.7,1.7c5.2,11.9,8.5,25.6,14.4,36.7
			c-3.8-4.8-6.9-10.1-9.8-15.8C194.4,295.8,194.1,289.5,191.5,285.4z"/>
		<path fill-rule="evenodd" d="M551.5,426.6c-10.2,0.5-21.7,2.9-32.4,2.9c-4.9,0-9.9-0.9-14.6-0.6c-3.7,0.2-9.9,0.1-12.9-3.2
			c0.3-0.8,1.4-0.8,1.4-2c14.8-2.7,25.2-11.1,38.2-17.2c-0.8-1.1-1.7-1.6-3.4-1.1c-1-1.7-2.8-2.5-4.9-3.2
			c-3.5-4.7-7.2-10.6-7.8-17.2c-0.1-0.8,0.5-1.1,0.6-2c0.1-2.1-0.9-4.7-0.9-6.9c0-3.7-0.1-7.9,0.3-11.8c0.3-2.9,1.4-5.5,1.7-8.3
			c0.6-4.8,0-10,0.6-15.2c0.3-2.4,0.6-4.7,0.9-7.2c0.6-5.2,0.9-10.9,2-15.5c0.2-0.7,0.1-1.3,1.1-1.7c1.2-7.6,2-17.1,4.6-23.8
			c0.3-11.8,5-21.1,9.8-30.7c1.6-3.3,3.2-6,4.9-8.9c0.5-1,0.7-2.2,1.1-2.9c1.6-2.4,4.2-5.2,6.6-7.5c9.6-9.3,21.7-14.6,37-18.7
			c5.4-1.4,11.2-1.9,16.9-3.2c5.6-1.2,13.4-2.7,20.7-3.4c8.9-0.9,18.4-2.4,26.7-3.2c3-0.3,6.1,0.3,9.2,0c1.8-0.2,4.8-1.1,7.5-1.1
			c5.9-0.1,14.4-0.7,21-0.9c8.4-0.2,19.5-0.5,27.8,0c13.1-1,27.1-0.8,41.3-0.9c20.1-0.1,40.6,3.2,59.1,5.2
			c15.9,1.7,30.5,1.9,43.3,7.5c7.6,1.3,13.5,4.3,19.8,7.5c2.5,1.3,5.3,2,7.8,3.4c0.7,0.4,1,1.3,1.7,1.7c1.9,1.1,4.2,1.8,6,2.9
			c1.8,1.1,3.1,2.7,5.2,3.4c7.2,7,15.8,12.7,21.5,21.8c0.8,1.2,1.1,1.6,2,2.9c4.5,6.2,7.3,16.4,10.9,23.8c3,11.4,4.7,26.6,3.2,39.6
			c0.3,0.6,0.3,0.6-0.3,0.3c0.6,1.3-0.3,2.6,0.3,4c-3.1,10.1-6.4,22-11.8,30.1c0.5,1.3-1.6,1.7-0.6,2.6c-2.8,3.4-5.8,8-7.8,11.2
			c-7.6,7.5-14.3,16.9-23.8,24.4c-0.8,0.3,0.9,0.3,0,0.9c-4.7,2.6-10.8,7.5-15.5,10c-6.5,2.5-9.4,5.8-15.5,7.8
			c-6.4,4.4-14.7,6.5-21.5,9.8c-3.2,0-5.4,1.9-7.8,2.9c-10.9,4.4-22,7.7-33.6,10.3c-4.8,1.1-10,1.4-14.9,2.3
			c-6.5,1.2-12.4,2.6-19.5,4c-7.9,1.5-16,1.9-24.1,2.9c-2.6,0.3-5.1,1.3-7.8,1.7c-5.3,0.9-11,0.8-16.4,1.4
			c-19.4,2.4-41.8,0.1-62.3,1.1c-27.1-1.7-54.6-0.6-74.9-11.2C566.8,443.8,557.4,436.9,551.5,426.6z M569,439.2
			c5,2.9,8.6,4.5,14.4,6.9c3,1.2,6.2,2.7,9.2,3.4c27.5,6.8,60.3,6,89.3,5.7c6-0.1,12.5,0.8,19.2,0.6c7-0.3,13.9-1.4,20.4-1.7
			c0.6,0.3,0.6,0.3,0.3-0.3c3.4-0.6,7-0.4,10.3-0.9c1.9-0.3,3.6-1.2,5.5-1.4c6.7-0.8,13.7-0.8,20.4-2c6-1.1,13.3-2.2,20.1-3.7
			c1.4-0.3,2.9-0.9,4.3-1.1c16.1-2.8,29.6-5.6,42.5-10.6c5.4-2.1,10.8-3.8,16.1-5.7c10.1-3.7,19.6-8.9,29-14.1
			c4.9-2.7,9.6-4.9,13.8-8c12.2-9.2,23.5-21,32.2-33.3c4.9-7,9-16.2,12.3-24.7c1-2.6,1.5-4.4,2.3-7.5c0.4-1.4,1.1-2.5,1.4-3.7
			c2.1-8.7,2-20,1.1-29c-0.7-7.5-3.3-14.5-5.5-21c-1.2-3.6-2.2-7.1-3.2-9.2c-0.3-0.6-1-0.8-1.1-1.1c-0.7-1.6-0.8-2.7-1.4-4
			c-1.6-3.1-2.9-4.9-4.6-7.5c-6.5-9.8-15.4-16.1-24.1-23.5c-5.9-2.9-11.6-6.4-17.8-9.5c-7.4-3.7-15.6-5.9-24.4-8
			c-1.3-0.3-2.5-1.1-3.7-1.4c-13.8-3.2-29.1-3.3-44.8-5.2c-12.4-1.4-24.6-2.9-35.6-3.4c-19-0.9-39.5-0.6-59.4,0.3
			c-8.3,0.4-16.6-0.2-24.7,0.3c-26.8,1.5-52.9,3.7-78.4,7.5c-2,1.6-4.5,1.2-7.2,1.7c-22,4.7-41.7,11.4-52.2,27.6
			c-2.8,4.3-5.3,9.9-8,15.2c-5.5,10.7-7.7,22.4-9.8,36.2c-1,7-2,13.5-4.3,18.7c0.4,8-1.7,17.1-2.3,26.4c-0.5,8.5-1.8,15.6-1.7,23
			c0.1,6.5-0.4,12.6,1.1,18.1c0.4,1.5,0.7,3.5,1.1,4.6c1,2.6,4,6.2,6,7.2c3.3,1.6,12.2,1.3,12.9,4.6c0.5,2.5-2.4,4.2-3.7,5.7
			c-3-1.8-4.9,0.8-7.8,2.3c-8.4,4.3-16.5,8-25,11.5c4,1.7,8,0.7,12.6,0.9c13.2,0.4,25.7-3,38.8-2.9C556.9,431,562.7,435.5,569,439.2
			z"/>
		<path fill-rule="evenodd" fill="#FFFFFF" d="M554.9,422.9c-13.1-0.1-25.6,3.3-38.8,2.9c-4.7-0.2-8.6,0.8-12.6-0.9
			c8.5-3.5,16.6-7.2,25-11.5c2.8-1.5,4.7-4.1,7.8-2.3c1.3-1.5,4.3-3.2,3.7-5.7c-0.7-3.3-9.6-3-12.9-4.6c-2.1-1-5-4.6-6-7.2
			c-0.5-1.1-0.7-3.1-1.1-4.6c-1.6-5.4-1.1-11.6-1.1-18.1c-0.1-7.4,1.2-14.4,1.7-23c0.6-9.3,2.7-18.4,2.3-26.4
			c2.3-5.2,3.3-11.7,4.3-18.7c2-13.7,4.3-25.5,9.8-36.2c2.7-5.3,5.2-10.9,8-15.2c10.6-16.2,30.3-22.9,52.2-27.6
			c2.6-0.6,5.1-0.1,7.2-1.7c25.5-3.8,51.6-5.9,78.4-7.5c8.1-0.5,16.4,0.1,24.7-0.3c19.9-0.8,40.4-1.2,59.4-0.3
			c11,0.5,23.2,2,35.6,3.4c15.7,1.8,30.9,2,44.8,5.2c1.3,0.3,2.5,1.1,3.7,1.4c8.8,2.1,17,4.3,24.4,8c6.2,3.1,11.9,6.6,17.8,9.5
			c8.7,7.5,17.6,13.7,24.1,23.5c1.7,2.6,3,4.4,4.6,7.5c0.7,1.3,0.8,2.5,1.4,4c0.2,0.4,0.9,0.6,1.1,1.1c1,2.1,2,5.6,3.2,9.2
			c2.2,6.5,4.8,13.5,5.5,21c0.8,9,1,20.3-1.1,29c-0.3,1.3-1.1,2.3-1.4,3.7c-0.8,3.1-1.3,4.9-2.3,7.5c-3.4,8.4-7.4,17.7-12.3,24.7
			c-8.6,12.3-19.9,24.1-32.2,33.3c-4.2,3.2-8.9,5.4-13.8,8c-9.4,5.2-18.9,10.4-29,14.1c-5.3,1.9-10.7,3.6-16.1,5.7
			c-12.9,5-26.4,7.8-42.5,10.6c-1.4,0.2-2.9,0.8-4.3,1.1c-6.8,1.5-14.1,2.6-20.1,3.7c-6.7,1.2-13.7,1.2-20.4,2
			c-1.9,0.2-3.5,1.2-5.5,1.4c-3.4,0.5-6.9,0.2-10.3,0.9c0.3,0.6,0.3,0.6-0.3,0.3c-6.5,0.3-13.4,1.4-20.4,1.7
			c-6.7,0.3-13.2-0.6-19.2-0.6c-29,0.3-61.8,1.1-89.3-5.7c-3-0.7-6.2-2.2-9.2-3.4c-5.8-2.4-9.4-4-14.4-6.9
			C562.7,435.5,556.9,431,554.9,422.9z M563,256.1c-0.6-0.4-1.1-0.8-1.4-1.4c-0.7,0-1.3,0-2,0c-0.3,0.8-1.2,1-1.4,1.7
			c-2,6.6-3.6,13.6-5.7,20.7c-2,6.6-4.1,13.4-5.7,20.4c-0.5,2-0.4,4-0.9,6c-1,4.2-3,8.2-4,12.3c-0.8,3.2-0.9,6.6-1.7,9.8
			c-3.4,13.6-7.5,29-9.8,43.1c0,0.8-0.2,1.9,0.3,2.3c-0.9,0.8-1.8,1.6-2.3,2.9c4.1,3.1,11.3,1.3,17.8,0.9c5.1-0.4,13,0.8,17.2-1.1
			c0.1-1.4-0.8-2.3-1.1-3.7c-1-4.4-0.2-10.2-0.3-14.9c-0.1-7.4,0-15.9,0-23.8c1.6,2.2,3.4,4.2,5.2,6.9c1.3,2,2.9,6.4,5.2,6.9
			c6.1,1.2,6.8-9.8,9.2-13.2c0.6,14.6-1.4,32.9-0.3,46.8c1.5,0.1,2.1,0.5,3.7,0c1.4-0.5,2.6-2.1,4-2.6c3.6-1.1,8.3-1,12.3-2
			c3.5-0.8,6.9-2.3,10-3.4c1.1,1.7,6.7-0.2,6.6-2.3c-0.1-2.6-5.7-1.9-8.3-1.1c-1.4,0.4-2.8,1.6-4.6,2c-6.8,1.6-15.8,2.8-19.8,4.3
			c-0.7-15.6,1.6-31.5,0.6-49.1c-0.3-5.1-0.5-10.9-4.6-8c-2.4,9.7-2.8,17.4-8,24.1c-3.1-3.1-6.5-9.1-8.9-13.8
			c-1.9-3.7-3.2-9.1-6.9-6.9c2,17.5-0.1,34.5,0.9,51.7c-8.9-0.6-16.9,1.7-25,0.6c2.9-15.3,6.4-30.7,10-45.9c0.7-3.1,1.3-6.1,2-9.2
			c0.4-1.6,1.5-3.2,2-4.9c0.2-0.6-0.1-1.4,0-2c0.7-2.8,2-5.8,2.6-8.6c0.3-1.5,0.2-3.2,0.6-4.6c0.3-1,1.1-1.8,1.4-2.9
			c0.6-2,0.3-4.1,0.9-6c0.1-0.4,0.7-0.8,0.9-1.1c0.6-1.9,1.3-3.7,1.4-4.6c0.1-0.5-0.4-1.2-0.3-1.7c0.2-0.6,1-1.1,1.1-1.7
			c1.3-4.9,2.4-9.8,4.3-14.4c4.2,13,7.9,25.6,12.3,38.8c2.1,0.4,2.2-0.3,4,0c4.7-14.5,12.5-24.2,19.2-36.7
			c0.7,11.7,3.6,22.1,6.3,33.6c0.9,3.9,1.5,8,2.3,12.1c3.3,17.3,5.4,34.7,7.5,52.5c1.1,1.3,3.3,0.5,4.6-0.3
			c-1.9-8.9-2.2-18.2-3.4-27.3c-1.1-8.2-3.3-16.1-4.6-23.8c-1.2-7.6-2.3-14.4-4.9-21.2c-1.4-10.4-3.9-21.2-4-32.4
			c-0.7-1.2-1.9-2.8-4-1.7c-1.2,3.4-1.8,7-4,9.5c0.4,0,1.1-0.1,1.1,0.3c-1.7,0.6-1.5,1.9-1.7,3.4c-6.5,6-10.3,17.2-16.7,25
			C570,282.4,565.3,269.9,563,256.1z M782.3,331c4.3,5.1,9.4,12.8,13.8,18.4c2.4,3.1,4.7,7.7,9.2,6c1-0.7,0.1-1.9,0.9-3.2
			c0.1-0.1,0.8-0.2,0.9-0.3c0.1-0.4-0.4-0.9-0.3-1.4c0.1-0.3,0.8-0.8,0.9-1.1c0.6-2,0.8-2.3,1.4-3.7c0.4-1,2-4.8,2-5.2
			c0-0.1-0.8-0.3-0.6-0.9c0.3-0.8,0.7-1.3,1.1-2.6c0-0.1,0.5,0.3,0.6,0.3c0.1-0.1-0.4-0.6-0.3-0.9c0.6-1.6,1.8-3.1,2.3-4.6
			c0.2-0.7,0-1.4,0.3-2c0.3-0.7,1.1-1.1,1.4-2c0.8-2.2,1.6-6,2.6-5.7c-0.2,0-0.3,0-0.3-0.3c0.3-1.1,0.6-0.8,0.3-2
			c1.1-1.4,2.2-4,1.4-4.9c1.2-0.4,0.7-3.8,2-3.2c-0.4-0.7-0.3-3,0.6-2.3c0.1-0.7-0.5-0.6-0.3-1.4c2.1-4.5,3.2-9,4.3-14.1
			c0.3-1.3,1.3-2.1,1.4-3.4c0.5-5.9,3.6-10.5,4.6-15.2c0.3-1.3-0.4-2.9,0.9-3.7c-0.5-1.3-0.7-3.1-0.3-4.6c-0.8-0.9-1.7-1.7-2.9-2.3
			c-7.7,0.4-17.9,1.8-25.8,0c-3.6-0.8-6.5-4.1-8.6-1.7c0.5,2.7-0.3,4.8-0.6,6.6c-0.7,4.2-0.7,9.4-1.1,13.5c-0.3,2.4-1.1,5-1.1,5.5
			c-0.6,5.4,0.5,10-2.6,13.8c-3-3.5-4.6-11.7-7.2-16.1c-1-1.7-2.9-3.2-4.9-2c-3.1,6.2-3.7,11.9-8.3,16.7c-2.3-5.8-3.5-13.5-6.6-19.2
			c0.4,0,0.7-0.1,0.6-0.6c-2.5-2.6-2.1-8-4.9-10.3c-0.2,0-0.3,0-0.3-0.3c-7,2.7-13.4,6.1-22.1,7.2c-0.1,0.9-0.9,1-0.6,2.3
			c0.7,0.5,2.3,0.2,2.9,0.9c4.8,17.1,5.7,38.3,12.1,54.3c2.4,11.2,7.2,20,11.2,29.6c1.4,0.2,2.9,0.4,4.6,0.3
			c2.3-12.5,7.6-27.5,12.6-37.3C780.9,328.1,781.9,329.3,782.3,331z M866.1,264.4c-6.3,4.4-18.3,1-24.1,4.9
			c-0.6,19.7-4.9,41.5-2.9,65.2c1,0.5,1.9,1.1,3.4,1.1c1.1-2.1,0.8-4.3,4-4.6c5.6-0.5,14.9,3.2,20.4,2.6c0-6.6,0-12.3,0-18.4
			c0-5.2-0.3-10.3-0.3-15.2c0.1-7.4,2.5-16.7,1.4-22.4c2.4-2,0.8-7.5,1.4-12.3C868.8,265.1,866.7,264,866.1,264.4z M660.8,283.6
			c-3.1,3.2-7.4,2.8-12.6,4.6c-1.2,0.4-2.2,1.4-3.4,1.7c-6.6,1.9-14.5,3.1-19.2,3.2c-3.4,4.7-2.9,12.4-3.2,19.8
			c-0.6,14-1.8,32.1-0.6,47.7c-1.2,1.4-0.1,3.5,0.6,4.6c14.9-2.3,30.3,0.4,45.9,4c1-1.2,2.5-0.2,3.4-1.1c0.1-6.6-0.1-12.2-2-18.7
			c-9.7-0.9-21.3,0.4-32.2-0.9c0.8-3-0.6-7.6,0-10.3c6.3-0.3,13.4-0.5,18.4,1.1c0.4-1.2,2.1-1,3.2-1.4c1.3-6.1-0.9-11.8-0.3-18.1
			c-4.7-2.9-12.2,1.9-18.7,0c-0.1-2.7-0.9-6.6-0.3-9.5c7.7,0,13.7-0.4,21.2,0.9c0.5-0.8,1-1.4,2.6-1.1c1.3-4.8,0-12.1,1.1-17.2
			c0.4-1.7,2.2-3.6-0.3-4.3c-5.5,3-3.3,11.9-4.9,18.7c-4.2-0.1-8.7,0.2-12.9,0c-3.6-0.2-7.8-1.7-10.9-0.3
			c-0.9,5.3,0.5,10.8-0.6,15.2c4.3,4,13.1-0.6,19.8,1.4c-0.1,4.2,1,7.6,0,11.8c-7.5,0-14.3-1.9-21-0.9c-1.1,4.4-0.2,11.1-0.9,16.7
			c0.9,0.4,1.9,0.6,2,1.7c10.1-0.7,22.9-1.5,31.6,0.9c0.7,3.2,1.7,8.3,0.6,11.5c-12.5-1.9-26.4-4.8-41.3-4.3
			c-0.4-12-0.3-21.6,0-34.2c0.2-7.4,0.1-16.6,1.1-23c0.1-0.7-0.1-1.3,0-2c0.8-7.2,3.5-5.6,9.5-6.9c6.4-1.3,15.1-4.3,21.2-6
			c2.3-0.6,5.4-1.3,6-3.7C663.3,283.7,662.4,283.9,660.8,283.6z M679.5,292.2c-3.8,6.2-6.5,14.4-7.8,22.4c-0.6,3.9-0.8,9-0.3,12.3
			c2,13.3,5.9,23.5,13.8,32.4c4.2,4.7,11.6,8.7,18.4,9.2c5.8,0.4,12.7-0.2,16.7-2c4.1-1.9,5.6-6.6,9.8-8.6c0-0.5,0-1,0-1.4
			c5.2-2.9,6.1-10.7,8-15.2c0.6-4,0.9-11.7,0-16.9c-1.3-3.1-2.3-6.6-2.9-10c-2.4-4.6-5.9-11.9-9.8-16.4c-0.8-1-1.5-2.4-2.3-3.2
			c-0.2-0.2-1.2-0.1-1.4-0.3c-1.9-1.5-3-3.2-4.9-4.6c-3.2-2.3-6.6-4.6-11.8-4.9c-8.3-0.4-19.3,0.9-21.2,8.3
			C682.9,292.2,681.5,291.6,679.5,292.2z M844.9,356c-9.1,10.9,11.2,25.7,21,18.9c3.4-3.5,6.3-9.7,4.6-15.8c-1.5-5.4-9-12-15.8-10.9
			c-2.3,0.4-3.7,2.3-6,3.4c-0.4,0.9-0.5,2.5-0.6,2.9C846.6,354.7,846.4,356,844.9,356z"/>
		<path fill-rule="evenodd" d="M779.4,327.6c-5,9.8-10.3,24.9-12.6,37.3c-1.7,0.1-3.2-0.1-4.6-0.3c-4-9.6-8.8-18.4-11.2-29.6
			c-6.4-15.9-7.2-37.2-12.1-54.3c-0.6-0.6-2.1-0.4-2.9-0.9c-0.3-1.3,0.5-1.4,0.6-2.3c8.7-1.1,15.1-4.4,22.1-7.2
			c-0.1,0.2,0.1,0.3,0.3,0.3c2.7,2.3,2.4,7.7,4.9,10.3c0.1,0.5-0.2,0.5-0.6,0.6c3.1,5.7,4.3,13.4,6.6,19.2
			c4.7-4.7,5.2-10.5,8.3-16.7c2-1.2,3.9,0.3,4.9,2c2.6,4.4,4.2,12.6,7.2,16.1c3.1-3.8,1.9-8.4,2.6-13.8c0.1-0.5,0.9-3.1,1.1-5.5
			c0.5-4.1,0.4-9.3,1.1-13.5c0.3-1.8,1.1-3.9,0.6-6.6c2.1-2.4,5,0.9,8.6,1.7c7.9,1.8,18.1,0.4,25.8,0c1.2,0.6,2,1.4,2.9,2.3
			c-0.4,1.5-0.2,3.3,0.3,4.6c-1.3,0.8-0.6,2.4-0.9,3.7c-1,4.7-4.1,9.3-4.6,15.2c-0.1,1.3-1.1,2.2-1.4,3.4c-1.1,5-2.2,9.6-4.3,14.1
			c-0.2,0.8,0.4,0.7,0.3,1.4c-0.8-0.7-1,1.6-0.6,2.3c-1.3-0.6-0.8,2.8-2,3.2c0.8,0.9-0.4,3.5-1.4,4.9c0.3,1.3,0,0.9-0.3,2
			c-0.1,0.2,0.1,0.3,0.3,0.3c-1-0.3-1.8,3.5-2.6,5.7c-0.3,0.9-1.1,1.3-1.4,2c-0.2,0.6-0.1,1.3-0.3,2c-0.5,1.5-1.6,3-2.3,4.6
			c-0.1,0.3,0.4,0.8,0.3,0.9c0,0-0.5-0.4-0.6-0.3c-0.4,1.3-0.9,1.8-1.1,2.6c-0.2,0.5,0.6,0.7,0.6,0.9c0,0.4-1.6,4.2-2,5.2
			c-0.6,1.4-0.9,1.8-1.4,3.7c-0.1,0.3-0.8,0.8-0.9,1.1c-0.1,0.5,0.4,1,0.3,1.4c0,0-0.8,0.2-0.9,0.3c-0.8,1.3,0.1,2.5-0.9,3.2
			c-4.5,1.7-6.8-3-9.2-6c-4.4-5.6-9.5-13.3-13.8-18.4C781.9,329.3,780.9,328.1,779.4,327.6z M808.7,334.4c0.3,0,0.3,0.2,0.6,0.3
			c-0.3-1.1,0.7-2.8,1.4-3.7c0-0.6,0-1.1,0-1.7c5.8-10.9,9.4-25.6,12.9-38.2c-2.2-0.7,0.8-4.7-0.6-5.5c2.6-4.6,6-8.4,5.7-15.8
			c-9.3-1.7-19.1-0.5-29.3-2.3c-1.2,5.3-1,9.2-2,14.4c0.1,0.5,0.5-0.2,0.6,0.3c-1.6,5.7-1.4,15-2.9,21.2c-0.4,1.7-1.4,3.6-1.1,5.5
			c-1.2,1.1-2.9,1-4.9,0.9c-3.4-6.9-5.5-12.9-9.2-18.7c-3,6-4.5,10.8-8.3,15.5c-0.8-0.5-2.9-0.3-3.7,0c-0.1-3.8-2.7-5-2.9-8.6
			c-3-4.6-2.8-12.3-6-16.7c0-1.3-0.8-1.7-0.6-3.2c-0.8-0.3-1.3-1-1.1-2.3c-0.6,0.1-0.9-0.2-0.9-0.9c-4.7,1.2-8.6,3.2-13.2,4.6
			c0,1.3-0.1,2.5,0.6,2.3c-1.2,2.4,1.2,5.2,1.1,8.9c1.7,6.3,3.1,12.7,4.3,20.4c0.1,0.5-0.6,0.6-0.6,1.1c0,0.8,1.2,2.8,1.4,4.6
			c0.3,2.4,1.4,6.1,1.1,7.5c3.6,7.2,3.9,15.2,7.5,21c0.9,3.9,2.8,9.3,5.2,12.6c1.1-0.6,0.7-1.2,0.9-2.9c2.3-4.4,3.6-11,5.7-16.7
			c1.1-2.9,3.1-5.8,4-8.3c1-2.8,2.2-4.5,2.9-6.3c0.7-1.8,0.1-3.6,3.7-2.9c3.3,5.4,5.1,10.2,9.2,13.8c3.4,6.6,7,11.3,11.8,16.4
			C804.6,346.6,806.8,340.4,808.7,334.4z"/>
		<path fill-rule="evenodd" fill="#FFFFFF" d="M802.1,351.1c-4.8-5.1-8.4-9.7-11.8-16.4c-4.1-3.6-5.9-8.4-9.2-13.8
			c-3.6-0.7-3,1.1-3.7,2.9c-0.7,1.9-1.8,3.5-2.9,6.3c-0.9,2.5-3,5.5-4,8.3c-2.1,5.7-3.5,12.2-5.7,16.7c-0.2,1.7,0.3,2.3-0.9,2.9
			c-2.4-3.4-4.3-8.7-5.2-12.6c-3.6-5.8-3.9-13.7-7.5-21c0.3-1.4-0.8-5.1-1.1-7.5c-0.2-1.8-1.4-3.8-1.4-4.6c0-0.5,0.6-0.7,0.6-1.1
			c-1.2-7.7-2.6-14.1-4.3-20.4c0.1-3.7-2.4-6.5-1.1-8.9c-0.7,0.2-0.6-1-0.6-2.3c4.6-1.4,8.5-3.4,13.2-4.6c-0.1,0.6,0.2,0.9,0.9,0.9
			c-0.1,1.3,0.3,2,1.1,2.3c-0.2,1.5,0.6,1.9,0.6,3.2c3.2,4.3,3.1,12,6,16.7c0.2,3.6,2.8,4.8,2.9,8.6c0.9-0.3,2.9-0.5,3.7,0
			c3.8-4.7,5.3-9.5,8.3-15.5c3.7,5.8,5.8,11.8,9.2,18.7c2,0.1,3.6,0.3,4.9-0.9c-0.3-1.9,0.7-3.7,1.1-5.5c1.5-6.3,1.2-15.5,2.9-21.2
			c-0.1-0.5-0.5,0.3-0.6-0.3c1-5.1,0.8-9.1,2-14.4c10.2,1.7,20,0.5,29.3,2.3c0.3,7.4-3.1,11.2-5.7,15.8c1.4,0.8-1.6,4.8,0.6,5.5
			c-3.5,12.6-7.2,27.2-12.9,38.2c0,0.6,0,1.1,0,1.7c-0.8,1-1.7,2.6-1.4,3.7c-0.2-0.1-0.3-0.3-0.6-0.3
			C806.8,340.4,804.6,346.6,802.1,351.1z"/>
		<path fill-rule="evenodd" d="M869.6,265.3c-0.6,4.8,0.9,10.3-1.4,12.3c1.1,5.7-1.4,15-1.4,22.4c-0.1,4.9,0.3,10,0.3,15.2
			c0,6,0,11.7,0,18.4c-5.5,0.6-14.8-3.1-20.4-2.6c-3.2,0.3-2.9,2.5-4,4.6c-1.5,0-2.4-0.6-3.4-1.1c-2-23.6,2.3-45.4,2.9-65.2
			c5.8-3.9,17.8-0.5,24.1-4.9C866.7,264,868.8,265.1,869.6,265.3z M843.1,309.8c0,0.7-0.3,3.1-0.9,4c1.5,3.8,0.2,8.6,1.1,14.6
			c6.6-1.3,13.2,0.8,19.2,1.7c-0.7-15.9,0.2-30.6,1.4-46.8c0.4-5.4,0.8-10.3,0.6-14.9c-5.3,0.8-13.1,0.7-18.1,2.6
			C845.4,284.9,844,297.4,843.1,309.8z"/>
		<path fill-rule="evenodd" d="M848,354.5c0.1-0.4,0.2-1.9,0.6-2.9c2.4-1.1,3.7-3.1,6-3.4c6.8-1.1,14.3,5.5,15.8,10.9
			c1.8,6.1-1.1,12.3-4.6,15.8c-9.7,6.8-30-8.1-21-18.9C846.4,356,846.6,354.7,848,354.5z M852.9,354.5c-1.7,1.1-3.3,2.2-5.2,3.2
			c-1.5,3.3-2.4,6.9,0.3,10.3c1.4,1.9,5.8,4.7,7.8,5.2c11.2,2.9,14.2-13.6,6.9-19.2c-3.3-1-6-3.5-9.8-1.1
			C852.9,353.4,852.9,354,852.9,354.5z"/>
		<path fill-rule="evenodd" d="M485.4,286.8c0,1.9-0.7,4.9-1.7,6.6c-0.3,4.1-1.5,8.2-2.6,12.6c-1,4.2-3.4,9-2.9,12.3
			c0.3,2.4,2.7,2.8,2.9,5.2c-1.3,0.7-2.6,0-3.2-0.9c-1,1.3-0.6,3.4-0.3,4c-1.3,1.5-4,0.5-4.9-0.9c0-2.9,1.6-5,1.1-7.2
			c-0.6-3.2-4.5-3.7-7.2-5.2c-0.7-3.7,2.4-8.8-0.3-12.1c-3.8-1.3-15,10-16.7,3.4c-0.5-2,1.4-2,0.9-4.6c4.2-5.3,6.5-12.4,10-18.4
			c-0.2-0.4,0.3-1.5-0.3-1.4c3.3-4.5,3.6-8.8,5.7-14.1c-1.9,1.5-3,4.4-4.3,6.6c-1.3,2.2-3.2,4.1-4,6.6c-0.8,0.4-1.2,1.3-2,1.7
			c-0.6,2.1-2.2,4.4-4,6.3c-2,2.1-5.5,6.1-7.8,4c-0.7-1,1-1.4,1.4-2c7.6-11.6,12-26.9,12.9-43.9c-4.5,13.3-8.2,27.7-12.6,40.8
			c-2.3,3.3-4.4,9.4-7.8,13.2c-1.8,2.1-5.6,5.5-9.2,3.2c3.6-10.6,8.2-17.1,8.3-31.3c-6.9,7.2-8.5,19.6-17.8,24.4
			c-0.8-0.3-2-0.3-2.9-0.6c0-0.3-0.1-0.5-0.3-0.6c0.2-2.4,1.3-3.8,2.9-4.9c0.9-5.1,3.6-6.9,4-12.3c-2.3,1.6-3.9,4.9-5.5,7.8
			c-1.6,2.9-4,5.8-4.6,9.2c-1.9,1.2-2.4,3.7-3.4,5.7c-1.1-0.2-1.2,0.8-2.3,0.6c-0.3-5.3,3.7-9,6-12.9c2.4-4.1,4.4-8.5,7.5-12.1
			c1-3.6,3.6-5.6,5.5-8.3c5.4,0.6,0.3,8.3-0.6,11.5c-0.3,1.2-0.4,3.3-0.9,4.6c-0.4,1.2-0.9,2.1-1.1,3.2c6.6-5.2,7.9-15.7,14.1-21.2
			c0.7,0.1,1.1,0.5,2,0.3c1.7,13.3-3,23.6-6.9,33.9c5.8-2.1,7-8.9,10.3-13.5c1-3.7,2.4-7.2,4-10.3c1-7.7,4.5-14.6,6.3-21.5
			c0.4-1.7-0.2-3.8,1.7-4.9c-0.3-4.7,2.1-9.8,2.9-13.5c-1.2-3.6,2.8-4,3.7-1.1c0.6,1.8-0.2,9.9-0.6,11.2c-1.1,3.9-0.8,8.8-1.4,12.1
			c-0.6,3.1-2.2,6.7-2.3,9.2c0.1,0.8-0.6,0.7-1.1,0.9c1,4.4-2.9,8.7-3.7,13.2c4.8-4.6,7.6-11.2,11.8-16.4c2-7,4.9-13.1,5.7-21.2
			c0.8-0.7,1.6-1.2,2.3-2c3.1,0.7,0.1,6.6-0.6,9.2c-0.5,1.9,0.7,3.9-0.9,5.2c-2.4,17-10.9,31.9-16.9,46.8c4-0.9,7.9-4.4,12.9-5.2
			c2.7,2.1,4.6,6,4,10c-0.2,1.2-1.4,1.8-1.1,2.9c0.5,2.5,3.6,1.9,4.9,3.7c2.3-10.3,4.4-20.9,7.8-30.1c4.4-21.8,8.9-39.9,14.4-60.3
			c0.6-2.1,1.6-4.3,2-6.6c0.7-3.7,0.5-7.8,1.1-11.8c0.9-5.7,3.2-12.7,1.4-19.8c-4.7,1-6.8,4.4-10.6,6.3
			c-9.7,9.5-20.2,18.6-30.4,27.8c-2.5,2.3-5.5,4.5-7.8,7.2c-0.5,0.6-0.4,1.4-0.9,2c-0.7,1-2,1.5-2.9,2.6
			c-4.8,5.9-9.4,12.9-14.9,18.7c-3.1,7.4-9.3,11.7-12.9,18.7c-0.5,0.1-0.7,0.6-1.4,0.6c-5.4,8-10.4,16.4-13.2,27
			c-0.8,0.4-2,0.4-2.9,0c0.3-1.6,0.7-3.1,1.4-4.3c0.1-5.3,2.4-10.6,5.5-13.8c1.7-6,5.8-9.7,9.5-13.8c4.7-7.2,10.3-13.6,14.9-21
			c0.3-0.2,0.6-0.3,1.1-0.3c4.7-7.7,10.9-13.7,16.1-21c6.5-4.2,10.6-10.8,17.5-14.6c8.4-9.5,18.4-17.4,28.1-25.5
			c3.5,0.2,6.7-3.5,8,0.9c0.2,0.5,0.3,3.2,0.3,3.7c0.2,4.4-0.5,10.4-1.1,15.2c-0.3,2-1.2,4-1.4,6c-0.2,1.8,0.2,3.4,0,5.2
			c-1.1,11.3-6.3,22.7-8.9,33.9c-0.9,3.8-1.3,7.7-2,11.5c-0.9,4.5-2.3,9.2-3.4,13.8C488.1,276.9,487.7,283.1,485.4,286.8z
			 M458.2,244.6c0.7,0.2,1.3-1.7,0.3-1.4C458.6,243.8,457.9,243.8,458.2,244.6z"/>
		<path fill-rule="evenodd" d="M202.4,295.1c-1.1,1.2,0.8,1.9,1.1,2.6c1.7,4.1,2.1,9.4,5.2,12.1c-0.6,1.1,0,1.6,0.9,2
			c1.1,7.9,9,11.7,8.9,20.7c-4.1,2.4-6.8-4.5-8.6-7.8c-3-5.2-4.9-9.2-7.5-13.8c0.6,6.3,3.5,14,4,22.1c0.2,2.5-0.5,5.3,0,7.8
			c0.5,2.1,3.2,3.4,2.9,5.7c-0.7,1-3.2,0.7-3.7-0.3c0.2,0.9-0.8,2.2-2.6,2c-1-1.9-1.2-5.1-0.3-6.9c-0.9-3.6-3-6.9-4-10.3
			c-0.4-1.4-0.2-2.9-0.6-4.3c-1.1-3.5-3.2-9.1-5.2-12.3c-0.4-0.7-1.3-1.3-1.7-2c-7.5-13-7-31.1-11.2-47.7c-0.2-0.5-0.4-1.2-0.9-1.4
			c-0.5-9.4-4.3-15.4-5.5-24.1c-5.6-16.9-9.6-34.4-11.5-53.1c0.6,0.1,0.9-0.2,0.9-0.9c1.6,0.2,2.8,0.8,3.4,2
			c7.2,3.2,12.5,8.5,18.1,13.5c7.9,7.1,16.3,14.9,22.4,22.7c1.9,2.5,3.5,5.1,5.5,7.5c1,1.2,1.8,2.5,2.9,3.7c0.9,1.1,2.2,2,3.2,3.2
			c1.1,1.3,1.5,3.2,2.6,4.6c6.2,8,13,15.6,18.4,24.1c7.5,14,15.5,28.9,22.4,43.6c0.7,1.6,2,2.9,2,5.5c-0.2,1-0.7,1.6-2,1.4
			c-0.4,1.2,1.5,0.8,0.6,1.7c-2.5,1.9-5.2-1.3-7.2-2.9c-4.1-3.1-8.2-6.5-11.5-10.3c-3.1-5.8-6.8-11-10.6-16.1
			c2,9.5,8.2,16.3,8.6,26.4c-0.9,0.2-1.4-0.3-2.9-0.3c-7.8-8.2-13.7-18.3-19.2-28.7c1.1,10.7,5.3,20.3,4.9,32.4
			c-0.8,0.7-1.8-0.3-3.2,0c-2.1-3.8-2.5-7.4-4.3-10.3c-0.1,5.1,3.9,9.5,3.2,15.8c-3.7,1.1-5.4-3-6.6-5.2
			C209.5,312.5,206.4,302.2,202.4,295.1z M198.1,298.8c2.8,5.7,6,11,9.8,15.8c-5.9-11.2-9.2-24.9-14.4-36.7c0.6-0.5,0.7-1.6,1.7-1.7
			c3,2.9,4.3,6.8,6,10.6c1.2,2.7,2.3,4,3.4,6.3c3.8,7.8,6.3,16,9.8,23.3c1.6,0.2,0.4,1.5,2,1.7c-3.4-13.6-6.8-28.3-9.8-43.6
			c1.1-0.1,1-1.5,2-1.7c2.7,4,3.9,10.8,4.6,15.8c3.1,7,4.6,15.7,8,22.4c-2-15.5-5.1-28.7-8.3-42.5c0.7-0.6,1.1-1.4,2.3-1.4
			c1.9,3.6,2.5,7.9,4,11.8c1.5,4,3.4,7.7,4.3,11.2c0.5,0,1,0.2,1.1,0.6c1.2,3.6,4,5.5,4.9,9.5c2.9,2.9,4.6,6.9,7.8,9.5
			c-0.7-2-0.8-4.2-1.7-7.2c-0.7-2.2-2-4.6-2.9-7.2c-1-2.8-1.8-5.9-2.6-8c-1.1-2.8-6.2-7.9-1.4-8.9c7.6,10.5,14.1,22.1,22.7,31.6
			c2.8,1.4,4.5,3.9,7.5,5.2c0.9-2.1-0.9-6-2.6-7.5c-3-8.3-8.1-14.4-10.9-23c-5.2-7.4-8.7-16.4-14.4-23.3c-0.4-0.8-0.8-1.5-0.9-2.6
			c-3.6-3.4-6.4-7.5-9.5-11.5c-4.8-6.1-10-12.2-14.1-18.7c-0.6-0.3-1.3-0.4-1.7-0.9c-4.4-7.9-11.4-13.1-16.9-19.8
			c-7.4-5-12.1-12.8-21.2-16.1c0.1,7.7,1.5,14.6,2.9,20.7c2.1,9.3,5.2,17.3,7.2,25.8c1.5,6.4,3.6,12.6,4.9,18.9
			c1,5.2,1.8,10.1,2.9,14.9c0.9,4.1,2,7.9,2.3,12.1c0.4,5.3,2,10.3,3.2,14.4c0.4,1.3,0.2,2.8,0.6,4c1.7,5.6,5.9,9.9,7.2,15.8
			c2.5,2.6,2.5,7.6,4.6,10.6c-0.3-5.5-2.2-11.5-3.2-17.2c-2-4.1-3.9-11.6-6.3-16.9c-1.3-2.9-6.1-8.4-1.4-9.5
			C194.1,289.5,194.4,295.8,198.1,298.8z M214.4,327.6c0.5-0.7-0.6-1.8-1.1-2.3C213.3,326.4,214,326.9,214.4,327.6z"/>
		<path fill-rule="evenodd" fill="#FFFFFF" d="M846.6,271c5-1.9,12.8-1.8,18.1-2.6c0.3,4.7-0.2,9.6-0.6,14.9
			c-1.2,16.2-2.2,30.9-1.4,46.8c-6-1-12.6-3-19.2-1.7c-0.9-6,0.3-10.8-1.1-14.6c0.6-0.9,0.8-3.3,0.9-4
			C844,297.4,845.4,284.9,846.6,271z"/>
		<path fill-rule="evenodd" d="M574.2,295.7c6.3-7.8,10.1-19,16.7-25c0.2-1.5,0-2.9,1.7-3.4c-0.1-0.4-0.7-0.2-1.1-0.3
			c2.3-2.4,2.8-6,4-9.5c2.1-1.1,3.3,0.6,4,1.7c0.1,11.2,2.7,22.1,4,32.4c2.6,6.9,3.6,13.6,4.9,21.2c1.3,7.7,3.5,15.7,4.6,23.8
			c1.2,9.1,1.6,18.3,3.4,27.3c-1.3,0.8-3.5,1.5-4.6,0.3c-2-17.8-4.1-35.2-7.5-52.5c-0.8-4.1-1.4-8.1-2.3-12.1
			c-2.7-11.5-5.6-21.9-6.3-33.6c-6.7,12.6-14.6,22.2-19.2,36.7c-1.9-0.3-1.9,0.4-4,0c-4.4-13.2-8.2-25.8-12.3-38.8
			c-1.9,4.6-3,9.5-4.3,14.4c-0.2,0.6-1,1.1-1.1,1.7c-0.1,0.6,0.4,1.2,0.3,1.7c-0.1,0.9-0.8,2.7-1.4,4.6c-0.1,0.4-0.8,0.8-0.9,1.1
			c-0.5,2-0.3,4.1-0.9,6c-0.3,1-1.1,1.8-1.4,2.9c-0.4,1.4-0.3,3.1-0.6,4.6c-0.6,2.8-1.9,5.8-2.6,8.6c-0.1,0.6,0.2,1.4,0,2
			c-0.5,1.7-1.6,3.2-2,4.9c-0.7,3-1.3,6.1-2,9.2c-3.7,15.2-7.2,30.7-10,45.9c8.1,1.1,16-1.2,25-0.6c-1-17.2,1.2-34.2-0.9-51.7
			c3.7-2.2,5,3.2,6.9,6.9c2.4,4.6,5.8,10.7,8.9,13.8c5.3-6.7,5.6-14.5,8-24.1c4-2.8,4.3,3,4.6,8c1,17.6-1.2,33.5-0.6,49.1
			c4-1.5,13-2.7,19.8-4.3c1.8-0.4,3.2-1.6,4.6-2c2.6-0.8,8.2-1.5,8.3,1.1c0.1,2.1-5.5,4-6.6,2.3c-3.2,1.2-6.6,2.6-10,3.4
			c-4.1,1-8.7,0.9-12.3,2c-1.4,0.4-2.6,2.1-4,2.6c-1.6,0.5-2.2,0.1-3.7,0c-1.1-13.9,0.8-32.2,0.3-46.8c-2.4,3.4-3,14.4-9.2,13.2
			c-2.3-0.4-3.8-4.9-5.2-6.9c-1.8-2.7-3.5-4.7-5.2-6.9c0,7.9-0.1,16.5,0,23.8c0.1,4.7-0.7,10.5,0.3,14.9c0.3,1.4,1.3,2.4,1.1,3.7
			c-4.2,2-12.1,0.8-17.2,1.1c-6.5,0.5-13.7,2.2-17.8-0.9c0.4-1.3,1.3-2.1,2.3-2.9c-0.4-0.4-0.3-1.5-0.3-2.3
			c2.2-14,6.4-29.5,9.8-43.1c0.8-3.2,1-6.6,1.7-9.8c1-4.2,3.1-8.1,4-12.3c0.5-2,0.4-4.1,0.9-6c1.6-6.9,3.7-13.8,5.7-20.4
			c2.1-7.1,3.7-14.1,5.7-20.7c0.2-0.7,1.1-0.9,1.4-1.7c0.7,0,1.3,0,2,0c0.4,0.6,0.8,1.1,1.4,1.4C565.3,269.9,570,282.4,574.2,295.7z
			"/>
		<path fill-rule="evenodd" fill="#FFFFFF" d="M852.9,352.8c3.7-2.4,6.4,0.2,9.8,1.1c7.3,5.6,4.3,22.1-6.9,19.2
			c-2-0.5-6.3-3.3-7.8-5.2c-2.7-3.5-1.7-7-0.3-10.3c1.8-0.9,3.5-2.1,5.2-3.2C852.9,354,852.9,353.4,852.9,352.8z"/>
	</g>
</g>
</svg>
