<?xml version="1.0" encoding="utf-8"?>
<!-- Generator: Adobe Illustrator 15.1.0, SVG Export Plug-In . SVG Version: 6.00 Build 0)  -->
<svg version="1.2" baseProfile="tiny" xmlns="http://www.w3.org/2000/svg" xmlns:xlink="http://www.w3.org/1999/xlink" x="0px"
	 y="0px" width="800px" height="356.427px" viewBox="0 0 800 356.427" overflow="inherit" xml:space="preserve">
<g id="Shadow">
</g>
<g id="Drawing">
	<g>
		<path fill-rule="evenodd" d="M560.629,69.069c1.93-0.673,3.148-0.096,5.013,0c2.923,0.151,5.384-1.41,6.417,0.802
			c0.563,1.205-0.132,4.05,0,6.016c0.29,4.288,1.814,10.007,1.806,13.235c-0.005,1.706-1.41,2.712-3.009,3.209
			c-1.378,0.428-5.465,0.566-8.422,0.802c-3.429,0.273-9.19-0.647-10.027,1.003c-0.424,0.836,0.463,4.867,1.003,5.214
			c0.927,0.594,3.88-0.095,6.217-0.201c1.262-0.057,3.273,0.415,4.211,0.401c4.972-0.073,11.91-0.915,16.243-0.802
			c0.959,0.025,1.802,0.418,2.406,0.401c1.909-0.055,3.418-1.015,4.813,0.201c1.566,1.364,1.378,6.992,0.602,9.024
			c1.858,0.176,2.776,0.099,4.211-0.201c2.221-0.463,3.594-0.834,4.212,2.407c0.421,2.213-0.233,4.771,0,7.219
			c0.12,1.263,1.295,3.079,0.4,4.211c-0.583,0.739-1.829,0.404-3.008,0.401c-1.246-0.003-3.835-0.186-4.211,0.2
			c-0.082,0.084-0.158,4.106,0.602,4.612c0.14,0.094,2.516-0.456,3.008-0.2c1.681,0.873,0.983,3.254-0.802,3.609
			c-0.895,0.178-1.791-0.045-2.808,0c-1.912,0.085-6.145,0.726-7.621,0.802c-1.848,0.096-3.094-0.173-3.408,0.201
			c-0.785,0.929,0.225,3.011,0.2,3.81c-0.007,0.221-0.861,3.208-0.602,3.609c0.632,0.977,6.872-0.064,7.219-0.802
			c-0.786-1.145-4.268,0.963-4.812-0.602c-0.813-2.338,9.139-2.876,5.815,0.802c1.854-1.079,4.481,0.68,5.214,0.201
			c1.256-0.821,0.047-5.329,0.803-6.417c0.062-0.091,1.411-1.277,2.205-1.003c-0.52-0.179,1.106,1.853,1.003,1.404
			c0.176,0.765-0.711,2.32-0.602,4.011c0.079,1.231,0.981,3.763,0.602,4.412c-1.067,1.827-6.62,0.027-10.228,0.201
			c-3.36,0.162-6.38,1.623-8.422,1.604c-0.546-0.005-0.447-0.438-1.003-0.602c-0.146-0.043-1.313,0.384-1.805-0.201
			c-0.833-0.992,0.539-1.671,0.802-3.008c0.245-1.245,0.128-3.888,0-5.815c-0.095-1.439-1.093-2.865-0.4-4.011
			c1.481-2.454,7.47,0.095,10.628-1.404c2.162-1.026,1.052-5.262,0-5.414c-2.08-0.301-4.28,0.237-5.414,0.2
			c-0.344-0.011-2.141-0.271-2.407-0.602c-0.448-0.558-0.506-6.646-0.802-8.422c-0.343-2.061-0.992-4.506,1.805-5.013
			c0.279-0.051,1.12,0.394,1.203,0.401c1.263,0.11,4.467-0.307,4.612-0.401c1.305-0.841,1.468-6.059-0.2-6.818
			c-0.135-0.061-4.615-0.367-5.214-0.401c-1.078-0.062-2.895,0.369-4.812,0.401c-2.524,0.042-5.445-0.327-8.223-0.201
			c-2.238,0.102-4.2-0.22-5.815-0.2c-0.604,0.007-2.785,0.776-3.609,0.802c-2.984,0.094-5.707-0.724-5.014,3.609
			c0.126,0.788,0.729,1.428,0.803,2.005c0.026,0.211-0.344,2.228-0.201,2.406c0.365,0.457,2.15-0.423,2.607-0.401
			c2.863,0.139,2.316,2.125,2.606,4.612c0.179,1.527,2.294,7.458,0.401,8.422c-2.176,1.109-7.001-0.5-6.217,2.206
			c0.143,0.49,1.236,5.516,1.404,5.615c0.898,0.531,2.578-1.147,3.81-1.002c2.967,0.348,3.108,5.86,3.409,9.225
			c0.12,1.345,0.741,3.292,0.602,3.81c-0.34,1.267-2.729,2.275-4.612,2.607c-2.161,0.38-4.597-1.104-4.211,1.805
			c0.13,0.982,1.105,3.542,1.203,3.61c0.417,0.29,1.81-1.022,3.008,0c0.464,0.395,0.041,0.64,0.401,1.604
			c0.204,0.545,0.873,1.006,1.003,1.404c0.488,1.504,0.334,3.557,1.002,5.214c0.561,1.389,2.154,2.422,1.404,3.811
			c-0.883,1.631-7.533,0.28-9.425,0.602c-1.748,0.296-3.58,0.83-5.415,1.403c-0.662,0.207-3.752,1.338-4.612,0.401
			c-0.412-0.449-0.383-5.599-0.2-7.821c0.165-2.017,0.919-5.321,1.805-5.815c2.88-1.61,7.029,1.612,7.219-3.209
			c0.023-0.594-0.504-3.32-0.4-3.208c-1.165-1.264-6.55,0.741-7.42-1.203c-0.445-0.994,0.51-1.375,0.602-1.805
			c0.353-1.646,0.199-4.578,0-6.618c-0.081-0.826-0.521-2.219-0.401-2.607c1.056-3.419,7.131,1.129,7.62-3.81
			c0.145-1.453-0.923-4.745-1.403-5.014c-1.339-0.75-6.038,1.416-6.417-1.404c-0.148-1.105,0.726-2.803,0.401-4.612
			c-0.509-2.828-2.685-6.206,1.002-7.019c1.669-0.368,5.243,0.418,6.017-0.201c0.112-0.09-0.003-2.255,0-2.206
			c-0.042-0.665-0.097-2.051-0.201-2.607c-0.139-0.745-0.802-1.347-0.802-2.607c0-0.118,0.076-0.73,0-0.802
			c-0.506-0.48-5.619-0.386-6.217-0.401c-2.894-0.072-6.034,0.032-9.826,0.401c-0.87,0.084-2.308,0.701-3.008,0.802
			c-2.462,0.356-7.949,0.078-8.823,1.203c-0.768,0.987,0.338,3.87,0.4,4.813c0.037,0.546-0.33,1.833-0.2,2.005
			c0.594,0.791,2.822,0.077,4.011,0c1.676-0.109,2.781,0.476,3.609,0.602c1.681,0.255,2.06-0.638,2.808,0.401
			c0.423,0.587,0.152,2.442,0.201,3.409c0.089,1.8,0.364,3.932,0.4,5.214c0.013,0.438,0.204,2.278,0,3.008
			c-0.558,1.998-4.113,2.646-6.217,2.808c-2.262,0.174-4.191-0.546-4.812,0.401c-0.383,0.584,0.81,2.638,0.802,2.607
			c0.405,1.702,0.327,3.54,1.604,4.01c1.527,0.563,3.839-0.725,4.211,0.802c0.626,2.565-5.036,2.093-7.219,2.406
			c-1.876,0.27-4.787,1.012-5.214,1.604c-0.326,0.453-0.333,4.304,0.802,5.013c0.384,0.24,6.507,0.201,6.618,0.201
			c0.53,0.001,3.061-0.034,3.409-0.401c0.687-0.723-0.361-1.906-0.401-2.808c-0.034-0.778,0.13-2.843,0.602-3.61
			c0.76-1.235,3.076-1.651,3.609-0.802c0.659,1.048-1.271,3.079-1.203,4.011c0.2,2.748,3.813,5.995-0.602,6.818
			c-0.47,0.088-3.181-0.066-4.612-0.2c-1.817-0.171-3.601-0.598-5.414-0.401c-2.389,0.259-5.613,1.482-6.417-0.401
			c-0.184-0.429,0.306-1.863,0.2-3.008c-0.123-1.333-1.835-5.901-0.401-7.219c0.11-0.101,3.085-1.1,3.61-1.203
			c0.954-0.188,3.34,0.644,4.211-0.602c0.684-0.978-1.322-6-2.206-6.618c-0.77-0.538-2.368,0.227-2.406-1.002
			c-0.822,0.09-0.58,0.833-1.203,1.002c-0.26,0.071-0.849-0.6-1.203-0.602c-1.065-0.003-0.549,0.887-1.203,0.602
			c-1.804-0.786-1.364-5.482-1.404-9.024c-0.024-2.244-0.338-4.936,0.803-5.615c1.158-0.69,4.618,0.404,6.016-0.401
			c0.774-0.447,1.178-2.266,1.203-3.008c0.024-0.713-1.084-3.253-0.602-5.014c0.122-0.443,1.994-3.208,2.808-3.609
			c0.657-0.325,2.428-0.121,3.209-0.201c7.293-0.744,14.333-1.21,21.857-1.604c1.524-0.08,5.459,0.357,6.017-0.2
			c0.25-0.25-0.154-4.347-1.203-5.014c-1.451-0.922-4.577,0.055-6.618,0c-2.016-0.054-2.893-1.132-4.812-0.401
			c-0.607,0.231-1.224,1.096-1.805,1.203c-0.8,0.148-1.877-0.996-2.808-0.602c0.155-3.919,0.194-7.741,0.2-12.032
			c0.006-3.537-2.629-10.824,0.401-12.032c0.918-0.366,3.252,0.124,4.812,0c5.915-0.47,11.796-1.014,17.848-0.802l-0.602,0.802
			v1.002c-3.913,0.551-7.047,0.455-12.232,0.802c-2.161,0.145-7.019,0.444-7.62,1.404c0.058-0.092-0.201,1.793-0.201,1.805
			c0.047,2.29,0.416,4.871,0.602,8.422c0.087,1.641,0.081,6.722,1.404,7.42c1.111,0.586,4.729-0.297,7.219-0.201
			c6.354,0.247,10.979,0.33,18.449-0.401c2.031-0.199,6.036,0.032,6.818-1.404c1.096-2.009-0.601-8.44-0.802-10.428
			c-0.123-1.218,0.384-6.097-0.602-6.818c-1.765-1.292-5.553,1.207-7.42-0.602l0.101-0.925L560.629,69.069z M584.894,120.206
			c0.724-0.199,1.106-0.985,2.005-1.002c0.704-0.014,1.407,0.861,2.406,1.002c0.955,0.136,3.558-0.268,3.811-0.602
			c0.447-0.592-0.191-2.621-0.2-3.008c-0.029-1.158,0.248-2.119,0.2-3.008c-0.157-2.888-0.853-2.815-3.008-2.607
			c-1.414,0.137-3.01,0.179-5.014,0.401c-1.076,0.119-4.489,0.328-4.812,0.802c-0.123,0.179-0.056,3.534,0,4.211
			c0.137,1.676,1.044,2.998,0.802,4.011C582.647,120.077,583.584,120.565,584.894,120.206z M544.986,119.203
			c-0.85,2.631,2.03,2.313,4.011,2.005c1.054-0.164,5.35-0.65,5.415-1.604c0.096-1.407-0.822-2.792-1.003-4.011
			c-0.142-0.955,0.944-1.463-0.2-2.406c-0.37-0.305-5.709,0.064-6.818,0.2c-2.887,0.356-2.514,1.767-1.404,4.011l-0.1,0.902
			L544.986,119.203z M516.912,124.818c2.848,0.244,9.385-0.448,10.228-1.805c0.15-0.244,0.577-2.758,0.602-3.409
			c0.012-0.326-0.534-5.207-0.803-5.415c-0.313-0.242-3.338,0.258-4.612,0.401c-1.646,0.184-8.785,0.431-9.826,1.604
			c-0.69,0.778-0.057,2.229,0,3.409c0.085,1.75-0.162,3.687,0.602,5.815C514.333,124.208,515.488,124.696,516.912,124.818z
			 M546.391,142.064c1.469,1.039,9.32,0.092,9.826-0.602c0.977-1.338-0.508-3.109-0.602-4.211c-0.07-0.826,0.777-2.978-0.602-3.609
			c-1.386-0.635-4.307,0.809-6.017,1.203c-2.389,0.55-4.654,0.815-3.208,3.81c0.662-2.161,6.045-2.706,6.417-0.802
			c0.519,2.656-4.874,1.367-6.417,1.203C545.646,139.983,545.745,141.607,546.391,142.064z M554.412,155.901
			c-0.037-0.521,0.521-1.8,0-2.206c-0.693-0.541-3.252,0.523-4.211,0.602c-3.299,0.27-7.056-0.415-6.418,3.409
			c0.59-1.089,7.05-2.867,6.017,0.201c-0.213,0.632-1.112,0.479-2.206,0.802c-1.995,0.588-2.736,0.667-4.011,0
			c0.556,0.48-0.253,2.112,0.401,2.607c0.71,0.537,4.176-0.848,6.016-1.003c2.299-0.193,3.895,0.233,5.214-0.201
			C555.151,158.872,554.503,157.175,554.412,155.901z"/>
		<path fill-rule="evenodd" d="M669.72,73.481c2.447-0.068,6.352-0.2,9.425,0.201c1.118,0.146,3.491,0.708,4.211,1.203
			c0.974,0.67,2.032,3.114,1.404,4.011c-0.179,0.254-3.555,1.124-5.014,1.203c-1.683,0.092-3.629-0.15-5.615-0.201
			c-2.656-0.067-6.012-0.039-9.625,0c-4.495,0.049-8.57,1.839-11.832,1.203c-1.084-0.211-3.468-1.582-3.81-2.206
			c-0.143-0.258,0.021-1.38-0.201-2.005c-0.283-0.796-0.842-0.75-0.602-1.404c0.465-1.267,9.168-1.719,10.629-1.805
			C662.471,73.461,664.851,73.617,669.72,73.481z M654.88,77.692c0.955,0.418,2.887,0.264,3.409-0.401
			C657.239,76.779,655.7,77.326,654.88,77.692z"/>
		<path fill-rule="evenodd" d="M541.177,77.291c1.435-0.582,3.182,0.176,5.414,0.401c0.725,0.073,3.524-0.59,3.811,1.002
			c0.024,0.139-0.232,1.239-0.2,1.203c-0.037,0.042-2.351,0.425-2.607,0.401c-0.738-0.069-1.84-0.965-3.008-1.003
			c-1.204-0.039-2.187,0.945-3.008,1.003C539.392,80.453,539.596,77.932,541.177,77.291z"/>
		<path fill-rule="evenodd" d="M271.257,88.521c-0.731-0.606-1.605-1.068-3.008-1.002c0.686-2.171-1.056-4.784-0.201-7.019
			c0.558-1.457,2.912-1.386,3.81-0.401c0.192,0.211,0.086,1.051,0.201,1.404c0.345,1.062,1.088,2.115,1.002,3.008
			C272.904,86.15,271.143,86.853,271.257,88.521z"/>
		<path fill-rule="evenodd" d="M261.03,81.703c3.031-0.301,1.557,1.524,1.604,4.01c0.034,1.774,1.473,3.397,0,4.211
			c-0.296,0.164-2.346-0.169-2.808-0.602c-0.619-0.58-1.699-5.823-1.002-6.818C259.153,82.035,260.101,81.795,261.03,81.703z"/>
		<path fill-rule="evenodd" d="M542.18,83.107c0.416-0.206,0.91,0.158,1.604,0.2c1.038,0.064,3.015-0.249,5.014-0.2
			c2.02,0.048,3.818,0.126,5.615,0.2c1.099,0.045,4.895-0.232,5.815,0.602c1.004,0.91,0.471,2.583-0.401,2.808
			c-1.652,0.426-1.671-0.916-3.208-1.203c-2.129-0.397-4.301,0.257-7.42,0.2c-1.315-0.023-7.268,0.067-7.821-0.602
			C540.73,84.331,541.365,83.508,542.18,83.107z"/>
		<path fill-rule="evenodd" d="M196.257,111.984c1.789-0.339,3.243,0.075,3.81,1.002c0.64,1.046,0.748,3.655,0,4.211
			c-0.028,0.021-3.368,0.264-3.81,0.2c-0.649-0.093-2.978-1.045-3.208-1.604C192.075,113.436,194.614,112.295,196.257,111.984z"/>
		<path fill-rule="evenodd" d="M286.898,113.187c0.979-0.172,1.9,0.194,2.005,1.002c0.183,1.407-10.241,6.046-12.834,2.808
			c-0.694-0.867-0.766-2.569,0.602-2.607c0.953-0.026,1.43,1.345,1.604,1.404c0.583,0.196,1.793,0.031,2.005,0
			c1.132-0.167,4.191-0.966,5.615-1.805C286.159,113.834,286.55,113.248,286.898,113.187z"/>
		<path fill-rule="evenodd" d="M178.61,113.588c3.925-1.437,6.565,3.881,3.81,6.618c-1.208,1.201-4.478,1.347-5.615-0.401
			C175.167,117.285,176.743,114.271,178.61,113.588z"/>
		<path fill-rule="evenodd" d="M583.891,115.393c1.432-0.28,4.937-0.086,4.812,1.805c-0.087,1.333-1.322,0.824-2.406,0.602
			c-1.864-0.384-4.313,0.453-4.412-1.203C581.831,115.676,582.925,115.582,583.891,115.393z"/>
		<path fill-rule="evenodd" d="M514.305,118.601c0.241-0.164,7.818-0.27,6.618,2.006
			C520.295,121.796,510.228,121.373,514.305,118.601z"/>
		<path fill-rule="evenodd" d="M695.388,121.409c3.098,0.048,10.247-0.93,11.23,1.805c0.263,0.731-0.067,2.033,0,2.607
			c0.596,5.119,1.543,11.167,1.203,16.845c-0.041,0.674-0.537,1.712-0.401,2.406c0.177,0.907,1.449,1.316,1.604,2.407
			c0.079,0.561-0.305,2.821-0.602,3.81c-0.23,0.765-1.67,2.012-1.604,2.607c0.092,0.829,1.814,1.252,1.805,2.206
			c-0.017,1.676-4.245,2.928-5.214,3.008c-1.363,0.113-3.077-0.617-4.612-0.602c-4.763,0.049-9.898,0.022-15.441,0
			c-5.236-0.021-10.71,0.681-16.042,0.602c-3.839-0.057-8.038-0.861-12.032-0.401c-2.146,0.247-4.821,0.912-7.621,1.203
			c-3.408,0.354-5.795,0.917-8.422,0c-2.442-0.853-1.557-0.987-1.604-3.61c-0.05-2.718-0.217-6.437-0.401-8.823
			c-0.179-2.321-1.076-5.071-1.403-8.021c-0.458-4.128-0.591-7.925-1.203-11.431c-0.116-0.667-1.474-3.655-0.802-4.813
			c0.329-0.569,1.137-0.125,2.406-0.602c1.28-0.481,0.987-0.881,1.805-1.002c0.817-0.122,1.981,0.358,2.406,0.401
			c3.204,0.326,6.362-0.19,9.425-0.2C664.312,121.763,679.784,121.169,695.388,121.409z M641.043,125.419
			c0.892,1.668,2.361,1.198,4.011,1.805c2.008,0.739,3.897,2.214,6.217,3.209c4.588,1.967,9.067,3.159,14.037,4.812
			c2.279,0.759,5.213,2.482,7.019,2.407c1.933-0.081,4.957-2.197,7.019-3.008c5.316-2.092,9.944-3.227,14.64-5.415
			c2.242-1.044,4.775-2.18,5.615-4.211C681.114,124.566,659.296,124.311,641.043,125.419z M641.444,150.687
			c3.851-1.005,7.316-3.002,11.029-4.612c3.817-1.655,7.466-3.508,10.829-5.014c0.535-0.24,3.68-0.942,3.609-1.805
			c-0.088-1.069-2.799-0.935-3.811-1.203c-2.881-0.766-5.29-2.309-8.422-3.409c-5.442-1.912-11.024-4.46-16.043-6.417
			C639.177,135.095,641.019,143.276,641.444,150.687z M682.152,141.863c0.957,0.437,1.781,1.47,3.008,2.005
			c3.348,1.46,7.883,1.78,11.03,3.208c0.7,0.318,1.165,1.17,1.805,1.404c0.848,0.311,1.675-0.1,2.206,0.401
			c0.53,0.5,0.752,2.135,0.4,2.607c-0.453,0.608-0.38-0.188-1.203,0c-0.815,0.186-0.316,0.637-1.003,0.602
			c-0.604-0.032-2.391-0.819-3.208-1.204c-1.029-0.483-2.028-1.307-2.808-1.604c-1.964-0.749-5.073-1.18-7.019-2.005
			c-2.045-0.867-4.049-2.143-6.217-3.208c-1.852-0.911-4.651-2.683-7.019-2.607c-1.921,0.062-5.113,2.089-7.22,3.008
			c-6.163,2.69-12.096,5.591-17.646,8.021c-1.213,0.531-2.594,0.643-4.011,1.203c-0.664,0.263-2.869,2.115-2.006,3.008
			c0.316,0.327,2.909,0.051,3.811,0c4.152-0.235,10.369-0.574,14.037-0.802c11.827-0.735,24.411-0.045,34.492-0.201
			c1.691-0.026,3.771,0.088,5.615-0.201c0.724-0.113,1.274-0.59,1.604-0.602c2.464-0.081,1.672,0.855,2.807-1.604
			c0.46-0.996,1.05-0.946,0.803-2.005c-0.246-1.055-1.339-0.602-1.604-1.604c-0.195-0.737,0.548-3.195,0.602-4.412
			c0.166-3.771-0.026-8.736,0-11.631c0.02-2.144,0.481-5.975-1.403-5.014c-8.459,4.312-15.989,6.964-24.866,10.829
			C678.239,141.167,680.282,141.01,682.152,141.863z"/>
		<path fill-rule="evenodd" d="M183.623,122.01c0.606-0.06,1.251-0.421,1.604,0.602c0.451,1.306-1.917,2.755-1.805,2.607
			c-0.587,0.774-1.897,3.158-1.805,3.81c0.162,1.141,3.145,2.678,5.214,2.807c2.669,0.167,6.786-0.718,9.626-2.005
			c2.247-1.019,4.232-2.488,1.203-4.011c-0.824-0.415-2.588-0.146-2.607-1.003c-0.039-1.746,5.723-0.538,6.417,0
			c1.486,1.152,1.354,4.17-0.201,5.415c-0.448,0.359-1.687,0.721-2.807,1.203c-3.158,1.359-6.934,2.682-11.631,2.607
			c-1.869-0.03-6.74-2.089-7.419-2.607C175.972,128.814,180.271,122.344,183.623,122.01z"/>
		<path fill-rule="evenodd" d="M357.888,131.035c0.653-0.146,1.976,0.074,2.607,0.602c0.873,0.729,2.52,4.023,2.206,6.216
			c-0.58,4.059-5.761,1.712-6.417-1.404c-0.091-0.432,0.396-0.916,0.401-1.604C356.698,132.893,355.446,131.58,357.888,131.035z"/>
		<path fill-rule="evenodd" d="M345.856,132.839c2.753-1.04,5.926,5.144,5.013,7.62c-0.285,0.774-1.91,1.338-2.607,1.203
			C346.002,141.227,342.773,134.003,345.856,132.839z"/>
		<path fill-rule="evenodd" d="M519.92,138.855c1.479-0.012,3.346,0.035,2.607,1.604c0.113-0.241-5.793,2.032-7.02,0.802
			C513.779,139.527,518.02,138.87,519.92,138.855z"/>
		<path fill-rule="evenodd" d="M598.529,165.326c-4.728,1.559-11.497-0.052-18.048,1.204c-1.026,0.197-4.514,1.531-5.414,0.602
			c-0.418-0.431-0.974-4.734-1.003-5.214c-0.079-1.29,0.128-3.168,0.401-4.412c0.104-0.474,0.551-2.273,0.802-2.607
			c0.481-0.641,1.521-0.497,1.805-0.802c0.819-0.88,0.091-2.111,1.404-2.607c1.942-0.734,4.266,1.046,4.411-1.404
			c0.035-0.581-0.388-1.146-0.401-1.805c-0.024-1.263,0.893-4.991,1.204-5.414c1.624-2.21,3.936,0.728,4.011,2.807
			c0.036,1.021-1.984,3.897-0.803,5.415c0.827,1.061,4.9-0.288,7.42,0.401c-0.06-0.017,2.288,1.143,2.206,1.002
			c0.611,1.041-0.467,3.307-0.401,5.214C596.238,161.037,597.951,162.313,598.529,165.326z M586.097,157.706
			c0.428-0.375,1.332-0.272,1.604-0.802c-1.68-0.486-3.657,0.402-5.615,0.401c-1.066,0-2.482-0.556-3.209,0.2
			c-0.923,0.962-1.778,5.227-0.4,6.016c0.293,0.168,1.964-0.34,2.807-0.401c3.667-0.263,8.586-0.125,10.629-0.201
			c0.468-0.017,1.346,0.87,2.206-0.2c0.496-0.619-0.915-5.072,0-6.818c-2.136,0.204-3.998,0.681-5.815,1.203
			c2.486,0.583,0.472,2.892-1.604,2.406v-1.002L586.097,157.706z"/>
		<path fill-rule="evenodd" d="M178.409,143.468c1.052-0.433,4.031,0.986,6.016,1.203c1.32,0.145,5.034-0.684,5.615,0.401
			c0.206,0.385-0.12,1.765-0.401,2.005c-1.001,0.857-4.283-0.269-5.214-0.401c-2.704-0.384-6.655-0.225-7.019-1.805
			C177.233,144.121,177.7,143.759,178.409,143.468z"/>
		<path fill-rule="evenodd" d="M107.219,144.27c1.284-0.261,2.805,0.737,3.409,2.005c0.724,1.519,0.613,3.86,0.201,4.211
			c-0.851,0.725-1.482-0.161-2.005,0c-1.36,0.419-0.741,1.553-1.604,1.805c-0.039,0.012-2.628-0.624-2.607-0.602
			c-0.249-0.259-1.082-4.494-1.002-4.812C103.857,145.881,106.547,144.406,107.219,144.27z"/>
		<path fill-rule="evenodd" d="M355.682,144.27c1.955-0.376,1.248,0.671,1.404,2.406c0.245,2.729,2.979,3.8,2.807,6.818
			c-0.252,4.449-5.875,5.909-9.425,3.609c-0.241-0.156-1.808-1.014-1.404-1.805c1.007-1.97,6.894,2.725,7.42-1.404
			c0.419-3.296-2.929-5.134-2.407-8.021C354.23,145.027,354.966,144.408,355.682,144.27z"/>
		<path fill-rule="evenodd" d="M92.781,147.278c4.745-2.01,6.34,8.872,1.003,7.42C91.709,154.133,90.066,148.428,92.781,147.278z"/>
		<path fill-rule="evenodd" d="M100,155.5c2.794-0.711,6.94,0.144,8.021,2.206c0.39,0.745,0.91,5.845-0.201,6.417
			c-2.487,1.281-1.547-3.05-2.807-4.812c-0.995-1.392-5.145-2.324-5.615,0.401c-0.206,1.194,1.819,4.995,1.203,5.615
			c-1.968,1.98-4.085-3.229-4.01-5.615C96.661,157.492,98.062,155.993,100,155.5z"/>
		<path fill-rule="evenodd" d="M668.717,164.123c0.02,0,0.227-0.214,0.401-0.2c1.095,0.086,3.133,0.628,3.208,1.403
			c0.091,0.931-2.25,2.326-3.008,2.407c-1.142,0.121-1.526-0.664-2.607-0.802c-1.046-0.134-2.9,0.026-4.211,0
			c-4.558-0.09-13.713,1.661-17.646,2.005c-2.807,0.246-4.258-0.281-4.412-1.203c-0.344-2.052,5.203-2.146,8.222-2.607
			c0.955-0.146,2.198-0.18,3.008-0.201C657.424,164.777,662.202,164.082,668.717,164.123z"/>
		<path fill-rule="evenodd" d="M344.652,165.125c1.646-0.225,3.822-0.145,5.615-0.201c1.339-0.042,6.285-0.108,5.815,1.805
			c-0.28,1.141-1.628,0.481-2.808,0.401c-2.409-0.163-4.996,0.437-6.818,0.401C344.267,167.488,340.479,165.695,344.652,165.125z"/>
		<path fill-rule="evenodd" d="M692.981,171.142c1.408-0.052,3.905-0.606,4.211,1.002c0.183,0.959-1.54,2.279-2.005,2.406
			c-0.765,0.21-2.464-0.333-4.011-0.401c-2.705-0.118-6.388-0.146-10.026,0c-3.34,0.133-6.775,0.802-9.826,0.802
			c-7.766,0-13.203-0.092-19.452,0.602c-1.175,0.13-9.305,3.018-9.426-0.201c-0.067-1.812,9.085-2.873,10.629-3.008
			c7.86-0.689,17.882-0.354,26.871-0.802C683.585,171.361,688.717,171.3,692.981,171.142z"/>
		<path fill-rule="evenodd" d="M95.588,175.152c2.073,0.637,4.716-2.818,5.615-0.802c1.027,2.304-3.739,3.308-6.217,2.607
			l0.602-0.802V175.152z"/>
		<path fill-rule="evenodd" d="M446.123,173.347c1.747-0.05,1.737,2.001,0.602,3.61c-1.18,1.672-6.182,3.731-8.623,4.011
			c-2.33,0.267-5.453-0.182-5.615-1.404c-0.284-2.151,3.514-1.348,6.017-1.604c1.864-0.191,4.424-1.417,5.014-2.005
			C444.414,175.059,444.161,173.404,446.123,173.347z"/>
		<path fill-rule="evenodd" d="M676.337,180.166c1.832-0.015,5.554-0.381,5.214,2.005c-0.085,0.599-2.02,1.763-2.406,1.805
			c-0.825,0.088-1.725-0.701-2.808-0.802c-2.615-0.243-5.634,0.39-8.623,0.401c-5.114,0.02-11.692-0.232-17.646,1.002
			c-1.814,0.376-4.359,1.15-5.014,0.802c-0.354-0.188-1.181-1.482-1.003-2.206c0.482-1.964,12.586-2.522,14.438-2.607
			C664.524,180.29,670.93,180.21,676.337,180.166z"/>
		<path fill-rule="evenodd" d="M661.297,188.187c6.681-0.593,16.422,0.657,23.463,0.401c2.723-0.099,10.239-1.603,9.625,1.805
			c-0.355,1.976-2.935,0.885-4.812,1.003c-0.687,0.043-1.293,0.585-1.805,0.602c-0.971,0.031-3.022-0.58-4.412-0.602
			c-2.163-0.034-5.602,0.385-8.021,0.401c-2.763,0.019-8.59-0.398-11.029-0.401c-4.203-0.005-9.984,0.015-14.839,0.802
			c-0.627,0.102-3.262,1.107-3.61-0.602c-0.398-1.958,3.772-2.684,5.014-2.808c3.697-0.369,6.751-0.144,10.026-0.602
			C661.027,188.168,661.165,188.199,661.297,188.187z"/>
		<path fill-rule="evenodd" d="M671.123,200.019c6.428-0.84,12.449,4.542,11.631,10.628c-0.136,1.01-1.226,4.216-2.205,5.013
			c-3.165,2.573-11.13,2.719-15.441,0.802c-2.676-1.19-4.467-3.439-3.61-7.42C662.394,204.879,666.704,200.596,671.123,200.019z
			 M668.917,206.636c-0.547,0.138-1.504-0.72-2.206-0.401c-0.831,0.377-2.058,4.379-1.805,6.016
			c0.283,1.827,5.497,2.795,8.824,2.407c0.846-0.099,2.712-0.502,3.409-1.003c4.291-3.088,0.703-11.436-5.214-10.227
			C669.513,203.92,670.659,206.196,668.917,206.636z"/>
		<path fill-rule="evenodd" d="M105.014,243.936c1.183-0.079,2.718,1.132,3.81,1.805l-0.616,0.73l-0.387,0.873
			c-1.83-0.041-2.627-1.115-3.81-1.805l0.616-0.73L105.014,243.936z"/>
		<path fill-rule="evenodd" d="M223.429,291.028l-0.1-0.97c11.463,4.514,22.389,9.562,34.091,13.836l-0.602,0.803v1.004
			c-5.514-1.33-11.251-3.508-16.243-5.817c-1.644-0.76-3.318-1.158-4.813-1.805c-0.748-0.323-1.299-1.084-2.005-1.403
			c-3.729-1.688-7.541-2.718-10.829-4.812L223.429,291.028z"/>
		<path fill-rule="evenodd" d="M262.634,306.502V305.5c7.074,1.715,13.772,4.609,21.458,6.818c0.421,0.121,2.608,0.602,2.607,0.602
			c-0.314-0.189,1.501,1.385,1.203,2.006c-0.181,0.375-1.91,0.479-2.607,0.4c-1.887-0.213-3.835-1.312-5.815-2.006
			c-5.411-1.891-12.351-3.662-17.447-6.016L262.634,306.502z"/>
		<path fill-rule="evenodd" d="M454.145,296.676c0.962-0.191,1.593,0.259,3.409,0.802c1.296,0.388,2.994,0.438,3.208,0.602
			c1.381,1.057,1.314,7.844,1.604,10.028c0.803,6.039,3.387,9.344,3.811,15.24c0.147,2.059-0.563,4.82-3.008,3.811
			c-1.772-0.732-1.651-6.379-2.206-9.225c-0.741-3.805-2.213-7.533-2.808-11.029c-0.222-1.303,0.003-2.639-0.2-3.811
			c0.065,0.377-0.392-2.834-1.805-2.406c-0.8,0.24-1.696,6.143-2.006,7.82c-0.609,3.307-0.298,5.229-1.003,8.422
			c-0.245,1.113-0.97,2.508-1.203,3.41c-0.494,1.914-0.601,3.375-1.403,5.615c-0.495,1.379-1.143,4.633-2.808,3.809
			c-1.641-0.811-0.301-3.273,0.2-5.414c0.326-1.391,0.263-3.256,0.602-4.611c0.392-1.564,1.083-2.656,1.203-3.41
			c0.273-1.703,0.081-4.076,0.401-6.217c0.152-1.018,0.745-2.215,1.003-3.609c0.228-1.229,0.001-2.691,0.2-3.811
			c0.191-1.072,0.861-1.65,1.003-2.406C452.791,297.871,452.059,297.09,454.145,296.676z"/>
		<path fill-rule="evenodd" d="M563.837,32.171c9.996-0.204,22.789-0.163,32.888-0.602c4.221-0.184,8.867,0.163,13.436,0
			c11.581-0.414,21.826-0.794,33.289-1.203c18.386-0.656,38.038-0.545,56.952-1.404c15.894-0.722,33.013-0.918,47.928-1.203
			c2.669-0.051,5.591,0.001,8.222-0.602c1.366-0.313,4.664,2.749,6.618,4.01c0.758,0.49,2.799,1.801,3.409,1.805
			c1.105,0.008,1.929-1.814,3.208-1.203c1.903,0.909-1.437,6.612-1.604,7.219c-1.089,3.948-0.721,9.804-0.802,14.438
			c-0.054,3.096-0.551,5.299-0.602,8.422c-0.068,4.179,0.508,8.874,0.401,13.035c-0.03,1.181,0.433,2.36,0.4,3.409
			c-0.091,2.978-0.662,6.149-0.802,9.225c-0.225,4.949-0.03,9.544-0.602,14.438c-1.525,13.063-3.184,24.869-2.406,39.104
			c0.101,1.841,0.374,3.123,0.602,5.415c0.478,4.819,1.149,12.49,1.003,18.249c-0.076,2.955-0.436,5.847-0.401,8.824
			c0.091,7.886,1.298,16.088,1.604,24.666c0.242,6.789,0.354,14.753,0.602,23.463c0.126,4.454,0.796,10.64,0.802,15.642
			c0.002,2.047-0.045,9.798-0.2,10.026c-0.385,0.566-1.945,0.616-2.406,0.602c-0.18-0.005-2.11-0.465-2.206-0.602
			c-0.572-0.812,0.853-2.066,0-3.008c-0.489-0.539-3.812,0.02-5.214,0c-5.593-0.077-11.467-0.994-17.046-0.602
			c-4.079,0.287-8.473-0.2-13.034,0c-10.332,0.454-22.22,1.78-31.284,1.805c-24.748,0.069-50.341,1.798-75.4,2.607
			c-16.556,0.534-32.279,0.291-48.73,0.802c-10.779,0.335-20.41,0.46-30.28,0c-3.064-0.143-6.65-0.612-9.826-0.802
			c-8.114-0.483-18.44-2.307-26.872-2.206c-1.758,0.021-10.61,0.421-11.631-1.403c-0.602-1.074,0.642-3.028,0.802-4.212
			c0.219-1.614-0.271-4.121-0.4-5.815c-0.54-7.004-0.171-17.783-0.602-23.663c-0.084-1.138,0.222-2.343,0-2.807
			c-0.58-1.21-5.385-2.562-6.818-3.208c-2.504-1.129-3.599-2.087-6.618-3.209c-0.373,2.449-1.188,5.313-1.003,8.423
			c0.199,3.322,1.403,6.52,1.806,9.826c0.438,3.605,0.538,6.9,1.604,10.227c2.19,6.835,3.979,14.708,4.612,23.262
			c0.218,2.934,0.813,5.749,1.404,8.823c0.135-2.477,3.968-3.524,4.211-0.602c0.239,2.869-1.114,7.067-0.401,10.829
			c0.218,1.148,1.133,2.503,1.003,3.409c-0.099,0.687-0.954,0.901-1.203,1.604c-0.116,0.329-0.202,1.64-0.2,2.005
			c0.029,5.048,1.147,11.2,1.604,16.845c0.615,7.614-0.516,14.502,0.802,22.059c0.294,1.689,1.804,6.553,1.203,7.42
			c-0.286,0.414-2.222,0.891-3.209,0.803c0.023,0.002-1.771-0.775-1.604-0.602c-0.852-0.877-0.146-1.705-0.201-2.809
			c-0.188-3.742-1.403-8.021-1.403-12.834c0-6.426,0.104-14.003-0.2-20.053c-0.072-1.425-0.496-3.768-0.603-6.017
			c-0.111-2.357,0.17-5.423-0.2-6.016c-1.135-1.819-8.596-0.061-10.628,0c-6.856,0.204-14.16,1.162-21.858,1.604v-1.003
			l-0.602-0.802c8.509-2.3,20.945-1.8,28.877-2.808c1.501-0.191,4.163-1.302,4.411-1.805c0.436-0.882-0.118-4.277-1.002-5.014
			c-0.807-0.672-2.347-0.201-2.808-1.003c-0.627-1.088-0.202-5.754-0.401-8.021c-0.43-4.899-1.088-11.047-2.206-17.246
			c-0.946-5.25-3.157-11.038-4.211-15.842c-0.537-2.45-0.31-5.494-0.602-8.422c-0.501-5.027-2.041-10-1.403-13.637
			c0.16-0.918,0.911-3.856,3.208-3.008c-0.279-1.347-3.827-2.028-3.008-3.81c1.04-2.265,3.752,0.915,4.612,1.404
			c0.987,0.561,2.257,1.013,3.409,1.604c1.066,0.547,2.289,0.942,3.409,1.404c6.187,2.549,13.464,6.557,20.655,8.422
			c2.793,0.725,6.229,0.694,9.425,1.003c6.42,0.62,13.781,1.104,20.655,0.401c1.211-0.124,2.412-0.765,3.609-0.802
			c0.522-0.016,1.121,0.254,1.604,0.201c1.848-0.204,3.837-1.437,5.815-1.604c0.494-0.042,1.15,0.283,1.604,0.201
			c1.403-0.254,3.185-1.413,4.812-2.005c3.563-1.297,6.623-1.566,8.623-4.612c-2.247-1.354-3.664-3.298-5.615-5.415
			c-0.788-0.855-1.827-2.514-2.606-2.607c-1.87-0.222-3.958,2.79-5.214,3.409c-1.46,0.72-3.374,1.121-5.014,1.805
			c-2.187,0.912-3.654,2.305-6.217,2.606c-6.687,0.787-14.05,0.534-20.855-1.002c-8.828-1.993-15.747-4.813-22.46-8.824
			c-3.19-1.906-6.663-3.259-9.425-5.013c-0.767-0.486-1.239-1.477-2.006-2.005c-2.113-1.457-7.247-3.975-10.026-4.612
			c-1.171-0.269-3.926-0.613-4.612,0.201c-2.67,3.163-13.01,7.531-18.851,8.021c-6.447,0.541-11.326-0.787-17.246-3.008
			c0.844,3.347-4.963,1.5-8.823,1.604c-3.399,0.092-6,0.864-8.423,1.404c-2.406,0.536-4.395,0.948-6.617,1.404
			c-5.135,1.052-10.837,1.799-13.837,4.412c-1.519,1.323-4.457,4.584-5.014,6.618c-0.981,3.587-0.071,7.242,1.805,9.425
			c1.571,1.828,4.38,3.085,7.019,4.813c2.451,1.605,4.938,3.667,7.019,4.813c0.904,0.498,1.843,0.548,2.606,1.002
			c1.669,0.993,3.421,2.133,5.214,3.208c3.355,2.014,6.546,4.254,9.826,6.417c3.048,2.01,5.686,3.804,9.626,5.815
			c1.019,0.521,4.305,2.718,5.214,2.407c1.148-0.394,2.575-6.746,2.607-8.624c0.052-3.03-4.374-4.059-7.02-5.615
			c-1.357-0.799-3.073-2.384-4.612-3.008c-0.667-0.271-1.664-0.291-2.205-0.602c-1.02-0.584-1.577-1.987-2.607-2.607
			c-1.607-0.967-3.648-1.334-5.414-2.206c-4.211-2.08-7.218-4.018-11.029-6.417c-2.107-1.327-4.521-2.38-5.816-3.81
			c-1.068-1.18-2.304-3.776-2.205-4.412c0.512-3.319,12.044-4.111,15.842-4.211c1.731-0.045,8.674-0.471,9.425,0.602
			c0.519,0.74-0.124,1.95,0,2.808c0.291,1.999,1.803,5.179,2.607,8.222c0.432,1.63,0.771,3.381,1.003,4.812
			c0.199,1.234,0.164,3.112,0.602,4.011c0.887,1.821,4.233,3.2,5.614,4.011c0.785,0.461,1.914,0.936,3.209,1.604
			c0.939,0.485,2.235,1.709,3.209,1.604c1.638-0.177,3.641-3.683,6.216-4.211c1.131-0.232,2.863,0.701,4.011-0.201
			c0.652-0.512,0.397-2.751,0.602-4.011c0.39-2.404,2.049-6.373,2.006-8.623c-0.024-1.243-0.805-2.341-0.803-2.808
			c0.015-2.673,3.685-7.876,5.415-10.026c0.395-0.491,1.341-1.028,2.406-2.206c0.51-0.563,1.293-2.22,2.005-2.406
			c3.028-0.794,3.171,2.549,3.61,5.013c0.668,3.75,0.735,5.743,1.805,9.425c0.377,1.299,1.384,3.323,1.203,4.211
			c-0.117,0.578-1.393,1.342-1.604,1.805c-0.483,1.06-0.199,3.316-0.802,5.415c-0.241,0.838-1.007,1.633-1.203,2.407
			c-0.204,0.801,0.011,1.663-0.201,2.406c-0.744,2.617-2.987,4.901-3.409,6.818c-0.365,1.664,0.269,3.399,0.201,5.013
			c-0.04,0.949-0.512,2.031-0.602,3.008c-0.099,1.074,0.322,2.148,0.2,2.808c-0.229,1.237-1.498,2.146-2.005,3.408
			c-0.953,2.374-1.608,9.062-4.011,9.626c-1.216,0.285-2.48-0.901-3.409-0.2c-0.921,0.693-1.266,5.163-1.604,6.217
			c-0.72,2.238-1.325,6.117-4.612,6.016c-1.176-0.036-7.628-1.914-8.021-3.409c-0.316-1.202,0.863-2.623,1.003-3.008
			c1.062-2.932,1.403-7.815,2.206-10.428c0.167-0.546,1.217-1.296,1.002-2.206c-0.305-1.298-2.188-0.931-3.409-1.403
			c-3.049-1.183-5.867-4.313-9.625-5.014c0.726,4.875-0.625,12.053-0.803,18.048c-0.058,1.967-0.463,4.267-0.2,5.815
			c0.115,0.678,1.291,1.792,1.203,2.406c-0.026,0.188-0.961,0.753-1.203,1.204c-0.927,1.724-0.448,4.929-1.003,7.82
			c-0.249,1.303-1.954,4.194-1.403,5.014c0.457,0.681,3.228,0.269,4.011,0.4v1.003l0.602,0.803
			c-1.027,0.954-3.635-0.513-5.014,0.602c-1.245,1.006-1.129,10.933-1.203,12.634c-0.226,5.159-0.46,10.708-1.003,15.842
			c-0.375,3.547-1.213,10.244-1.203,14.037c0.004,1.275,0.462,2.814,0.201,3.408c-0.446,1.018-4.404,1.469-5.014,0.602
			c-0.388-0.551,0.561-4.225,0.802-6.416c0.992-9,1.565-17.693,2.006-27.273c0.088-1.906,0.202-3.207,0.4-4.612
			c0.636-4.489,0.584-8.834,1.003-13.235c0.376-3.944,2.047-7.689,2.607-11.431c0.903-6.033,0.446-12.373,1.002-18.249
			c0.193-2.04,0.814-3.845,0.803-5.815c-0.005-0.724-0.415-1.904-0.401-2.807c0.008-0.515,0.508-1.723,0.401-2.006
			c-0.342-0.912-1.731-1.263-3.209-2.206c-1.052-0.672-2.85-2.254-3.609-1.805c-0.582,0.345-0.439,2.969-0.2,5.414
			c0.225,2.311,0.421,5.519,1.203,7.621c0.358,0.963,1.58,1.514,1.604,2.005c0.083,1.714-2.833,1.992-4.412,3.008v-1.002
			l-0.802-0.602c1.133-0.958,0.518-1.473,0.4-3.209c-0.186-2.751-0.432-5.867-0.602-8.623c-0.065-1.061,0.202-2.391,0-3.008
			c-0.327-1-3.074-2.466-4.411-3.008c-3.378-1.369-8.708-3.13-12.634-4.612c-1.51-0.57-2.664-1.373-3.811-1.805
			c-0.745-0.28-1.72-0.122-2.406-0.401c-2.073-0.844-3.579-2.371-5.014-3.008l0.387-0.874l0.215-0.931
			c8.805,3.027,16.374,7.289,25.869,9.625c-0.817-1.303-2.555-1.565-3.811-2.406c-2.462-1.648-5.225-3.079-8.021-4.813
			c-1.839-1.139-3.253-2.235-5.415-3.409c-1.014-0.55-1.879-1.734-3.008-2.407c-3.226-1.921-4.743-2.14-6.818-5.214
			c-1.862-2.757-3.059-7.821-1.203-12.032c1.189-2.7,5.181-6.692,8.021-8.222c1.849-0.996,6.81-2.412,9.024-2.808
			c1.208-0.216,2.545,0.1,3.81-0.201c3.324-0.789,6.687-2.213,9.426-2.406c4.384-0.31,9.447,0.297,13.436,0.201
			c-5.749-5.067-13.056-9.379-16.444-17.447c-0.441-1.051-0.448-2.328-1.203-3.208c-1.043-1.216-3.783-2.006-4.812-3.81
			c-0.352-0.617-0.229-1.64-0.602-2.607c-0.646-1.678-2.089-3.115-2.406-4.412c-0.226-0.923-0.051-2.464-0.201-3.811
			c-0.186-1.667-1.232-1.868,0-3.008c1.006-0.93,0.492-0.725,1.404-2.206c0.953-1.548,0.481-1.562,0.2-3.81
			c-0.938-7.497,1.755-16.562,4.211-22.66c0.933-2.315,2.531-5.293,4.212-6.417c0.437-0.292,2.668-1.649,3.409-1.604
			c0.434,0.026,1.001,0.85,1.203,0.802c1.267-0.297,0.862-2.275,1.805-2.808c0.197-0.112,1.53,0.286,2.005,0.201
			c1.546-0.278,3.945-2.813,7.019-3.209c0.669-0.086,1.401,0.114,2.006,0c0.348-0.065,1.404-0.815,1.805-0.802
			c0.517,0.017,1.147,0.875,1.805,1.002c0.512,0.1,1.287-0.251,2.006-0.201c1.352,0.096,2.097,0.78,3.008,0.602
			c0.774-0.151,1.575-1.098,2.206-1.003c1.227,0.185,0.847,1.795,1.805,2.406c0.538,0.344,1.547-0.095,2.206,0.201
			c0.489,0.22,0.694,0.928,1.002,1.203c0.66,0.589,1.771,0.853,2.607,1.404c1.083,0.714,2.266,1.698,3.609,2.607
			c1.146,0.774,2.729,1.456,3.609,2.407c0.269,0.29,0.297,1.093,0.602,1.403c0.383,0.389,1.297,0.539,1.806,1.003
			c0.752,0.686,1.255,2.145,2.205,3.409c1.648,2.192,3.074,3.99,4.412,6.818c0.655,1.384,1.534,2.608,2.006,3.61
			c0.747,1.589,1.134,5.267,2.005,5.815c2.072,1.306,8.979-1.875,10.428,0.802c0.271,0.501,0.658,3.472,0,4.812
			c-0.522,1.064-2.143,0.829-3.811,0.802c-1.376-0.022-4.271-0.216-4.611,0.201c-0.426,0.521,0.953,4.635,1.002,5.013
			c0.371,2.891,0.326,5.922,0.201,8.222c-0.059,1.061,0.423,2.389,0.4,3.609c-0.078,4.315-0.229,11.019-1.805,14.438
			c-0.048,0.104-1.089,1.938-1.003,2.206c0.308,0.953,6.573,2.153,7.621,2.607c4.122,1.785,8.159,5.014,11.43,7.019
			c-0.382-4.207,0.629-8.728,0-13.035c-0.14-0.959-0.634-1.827-0.802-2.807c-0.221-1.289-0.003-2.665-0.2-4.011
			c-0.169-1.149-0.788-2.229-1.003-3.409c-0.355-1.954-0.343-4.126-0.602-6.217c-0.667-5.38-1.605-10.454-1.805-17.246
			c-0.088-2.982-0.412-6.033-0.803-9.625c-0.308-2.834,0.027-5.951-0.4-7.821c-0.126-0.549-0.716-0.888-0.803-1.404
			c-0.397-2.365-0.465-5.082-0.802-7.62c-0.427-3.214-0.5-6.346-0.802-9.425c-0.349-3.548-1.085-7.268-1.404-11.23
			c-0.451-5.609-1.458-11.028-1.805-17.045c-0.181-3.146-0.219-6.417-0.802-9.225c-0.567-2.729-1.492-5.372-1.806-8.222
			c-0.358-3.263,0.178-6.873-0.4-10.026c-0.141-0.767-0.597-1.771-0.602-2.407c-0.005-0.499,0.564-1.034,0.602-1.604
			c0.041-0.646-0.442-1.415-0.401-2.005c0.132-1.883,1.645-3.812,2.808-5.615c0.904-1.402,2.502-4.112,4.011-4.412
			c0.921-0.183,1.788,0.394,2.808,0.401c5.637,0.041,10.924-1.01,17.246-0.602l-0.602,0.802v1.003
			c-3.414-0.21-7.086,1.024-11.23,1.203c-2.386,0.103-5.101-0.399-6.818,0.201c-1.888,0.659-5.917,6.376-6.016,9.024
			c-0.018,0.48,0.47,1.019,0.602,1.805c0.141,0.835-0.097,1.947,0,2.808c0.174,1.553,0.854,3.1,0.802,4.612
			c-0.029,0.868-0.435,1.64-0.4,2.406c0.17,3.895,1.822,7.88,2.406,11.832c0.356,2.417,0.3,5.187,0.602,7.821
			c0.29,2.537,0.955,4.959,1.203,7.219c0.479,4.359,0.453,8.754,1.003,13.235c1.279,10.435,2.492,21.938,3.81,33.088
			c0.268,2.259,0.782,4.44,1.003,6.618c0.316,3.128-0.221,6.254,0.2,9.425c0.926,6.964,2.191,14.766,3.209,21.658
			c0.184,1.242,0.036,2.562,0.2,3.81c0.17,1.29,0.93,2.801,1.003,4.211c0.172,3.304,0.052,8.568-0.2,10.428
			c-0.087,0.639-0.929,2.312-0.803,2.607c0.237,0.552,2.941,1.757,3.811,2.206c1.562,0.807,2.793,1.266,4.011,2.005
			c-1.175-3.256-0.846-6.136-1.203-10.628c-0.555-6.956-1.563-13.764-2.206-21.457c-0.407-4.873-1.09-10.519-1.203-16.645
			c-0.049-2.646,0.303-5.474,0.2-8.222c-0.106-2.842-0.084-5.645-0.2-8.423c-0.122-2.913-1.112-5.752-1.203-8.422
			c-0.044-1.271,0.47-2.594,0.4-4.011c-0.143-2.945-1.484-5.896-1.002-9.826c0.21-1.717,0.871-2.151,0.2-3.409
			c-0.135-0.253-0.133-0.414-0.2-0.802c-0.338-1.94-0.132-4.262-0.401-6.417c-0.743-5.955-2.546-12.378-2.808-18.449
			c-0.311-7.218-0.172-14.412-0.602-20.455c-0.111-1.563-0.379-4.271,0.2-4.813c1.242-1.162,6.553,0.034,8.423-0.201l-0.301,0.88
			l0.101,0.924c-1.406,0.828-5.199-0.407-6.017,1.003c-0.325,0.561,0.12,6.658,0.201,8.021c0.12,2.022,0.617,4.009,0.802,6.216
			c0.271,3.237,0.165,6.581,0.401,9.826c0.581,7.994,2.884,15.736,3.008,23.864c0.02,1.271-0.025,2.53,0,3.81
			c0.027,1.372-0.484,2.748-0.401,4.011c0.078,1.184,1.032,2.382,1.203,3.409c0.376,2.25-0.229,4.446,0,7.019
			c0.289,3.24,1.145,6.249,1.203,9.425c0.051,2.725-0.188,5.515,0,8.623c0.511,8.439,0.048,18.617,1.604,28.676
			c0.394,2.539,1.023,4.771,1.203,7.219c0.192,2.619,0.351,5.157,0.602,7.621c0.274,2.684-0.098,5.325,0.201,7.42
			c0.144,1.009,0.858,1.839,0.802,2.807c-0.061,1.037-0.8,1.384-1.203,2.206c4.363,2.568,9.978,4.226,16.243,5.615
			c2.089,0.463,4.294,0.881,6.217,1.003c2.39,0.151,5.162,0.478,7.42,0.201c0.575-0.071,1.163-0.528,1.805-0.602
			c0.78-0.09,1.71,0.338,2.406,0.2c0.757-0.149,1.683-1.096,2.406-1.404c2.551-1.085,5.202-1.372,7.821-2.607
			c1.069-0.504,2.025-1.859,3.208-2.607c2.165-1.368,4.799-2.556,4.813-4.412c0.005-0.598-0.937-1.815-1.203-2.607
			c-0.569-1.686-0.751-3.868-1.204-5.415c-1.068-3.653-2.969-7.778-1.604-11.23c0.514-1.3,2.125-3.271,3.81-3.409
			c4.398-0.361,5.758,6.186,6.618,10.228c0.322,1.514,0.609,4.06,1.203,4.211c0.637,0.163,2-2.517,1.805-2.206
			c1.597-2.54,3.203-3.411,6.217-5.214c1.803-1.079,3.448-2.202,4.812-2.407c4.205-0.63,9.507,0.615,9.826,4.211
			c0.326,3.67-2.646,4.598-4.812,6.818c3.592-1.013,9.628,4.323,8.422,7.62c-0.634,1.733-4.076,1.15-5.815,2.206
			c2.415,2.042,7.649,3.76,8.223,8.021c0.513,3.82-1.79,3.773-5.615,3.008c-4.327-0.866-9.132-5.18-14.438-4.813
			c-1.18,0.082-3.832,0.771-5.214,1.404c-0.394,0.18-1.655,0.72-1.604,0.602c-0.747,1.745,2.201,2.768,1.203,5.014
			c-0.399,0.899-3.579,2.5-4.812,3.008c-6.233,2.568-14.375,4.098-22.26,5.214c-1.724,0.244-3.332,1.026-5.014,1.003
			c-10.456-0.144-21.153-0.516-29.679-2.206c0.817,4.507,0.685,9.237,1.203,15.241c0.082,0.951,0.27,3.817,0.802,4.412
			c0.547,0.61,4.716,0.68,6.618,0.802c2.263,0.146,4.543,0.666,6.417,0.602c12.579-0.429,32.566,0.637,47.326,0.201
			c3.991-0.118,7.99-0.779,12.032-1.003c3.943-0.219,7.946-0.09,12.032-0.201c23.793-0.64,46.489-0.509,70.588-1.604
			c5.74-0.261,11.51,0.123,17.246,0.201c16.594,0.224,30.399-1.177,46.323-0.802c3.115,0.073,7.389-0.061,11.431-0.201
			c2.628-0.091,10.286-0.225,10.829-0.802c0.323-0.343-0.124-2.363-0.2-3.609c-0.285-4.65-0.289-9.193-0.602-13.637
			c-0.991-14.074-1.775-31.141-2.006-46.725c-0.054-3.635,0.359-7.319,0.401-11.029c0.045-4.023-0.19-8.532,0.2-12.433
			c0.154-1.536,0.611-2.825,0.602-4.211c-0.049-7.217-0.109-14.035-0.4-20.655c-0.624-14.149-1.678-26.848-0.803-40.708
			c0.146-2.312,0.561-4.881,1.003-7.019c0.184-0.887,0.876-1.972,1.003-2.607c0.617-3.108,0.355-6.083,0.802-8.422
			c0.367-1.927,1.51-3.394,1.604-5.615c-4.233,1.095-9.381,0.804-14.238,0.602v-1.003l-0.602-0.802
			c2.583-0.712,5.667-0.596,9.425-0.802c2.679-0.147,5.055-0.684,6.417,0.201c0.144,0.093,0.087,0.53,0.201,0.602
			c1.036,0.644,2.322,0.317,2.606,1.403c0.265,1.01-0.901,3.171-1.203,4.612c-0.654,3.133-0.501,6.9-1.203,10.628
			c-1.077,5.719-1.839,11.107-2.005,17.447c-0.04,1.505,0.403,3.103,0.4,4.612c-0.007,5.149-0.174,10.476,0,15.842
			c0.237,7.275,1.711,14.639,1.203,21.658c-0.064,0.897-0.573,1.713-0.602,2.607c-0.028,0.912,0.473,1.948,0.602,3.409
			c0.503,5.672-0.662,11.949-0.802,17.848c-0.143,6.016-0.261,10.555-0.2,17.045c0.007,0.766,0.07,1.545,0,2.406
			c-0.113,1.379-0.162,4.218,0.2,6.618c0.116,0.77,0.728,1.45,0.802,2.206c-0.017-0.177-0.191,1.738-0.2,2.005
			c-0.261,8.556,0.604,17.841,1.003,26.069c0.145,2.99-0.005,5.573,0,7.821c0.011,5.274,1.953,11.646,1.203,16.645
			c-0.135,0.896-1.173,3.753-2.206,3.81c-1.917,0.106-1.532-3.065-2.808-3.61c-0.836-0.357-4.761,0.218-6.617,0.201
			c-23.723-0.215-47.021,0.872-71.391,0.602c-15.124-0.167-31.711,1.253-46.925,1.203c-4.606-0.015-9.081-0.331-13.637-0.2
			c-8.565,0.245-16.305,0.578-24.064,0.602c-5.576,0.017-10.92,1.014-16.443,1.002c-3.651-0.007-7.396-0.246-11.23-0.201
			c-3.964,0.047-7.938,0.839-11.831,0.802c-10.892-0.104-21.575-0.259-32.888-0.802c-2.755-0.132-9.173,0.486-10.228-1.403
			c-0.888-1.591,0.563-5.358,0.401-7.621c-0.165-2.31-0.464-5.044-0.602-7.62c-0.175-3.25-0.717-5.333,0.401-7.621
			c-2.276-0.211-3.988-2.008-5.816-2.005c0.289,5.274-0.336,11.061,0.401,17.046c0.24,1.95,1.114,4.973,1.203,7.62
			c0.07,2.075-0.978,7.102,0,8.222c1.501,1.718,9.643,0.561,12.434,0.802c9.835,0.851,19.893,2.529,29.88,3.008
			c3.629,0.175,7.416,0.355,11.029,0.401c3.659,0.046,7.221,0.422,10.428,0.401c2.015-0.013,4.145-0.566,6.217-0.602
			c2.152-0.037,4.239,0.203,6.417,0.2c4.219-0.006,8.542-0.69,12.634-0.602c10.729,0.234,21.779,0.251,33.088-0.2
			c11.287-0.451,20.92-0.481,32.688-1.203c6.597-0.405,13.324-0.855,19.652-0.803c30.521,0.255,59.898-4.435,90.04-2.005
			c0.145-12.479-0.248-24.767-0.803-36.898c-0.281-6.163-0.086-12.349-0.602-18.449c-0.993-11.768,0.553-23.846-1.003-35.896
			c-1.5-11.624-1.081-23.526,0.201-35.896c0.603-5.811,2.062-11.502,2.406-17.447c0.23-3.983-0.15-8.087,0-12.232
			c0.143-3.941,0.586-7.918,0.602-11.832c0.028-7.101-0.637-14.389,0.2-21.458c0.099-0.832,0.564-1.815,0.602-2.607
			c0.077-1.608-0.519-3.292-0.4-5.013c0.236-3.464,1.053-6.441,2.206-9.024c-1.191-0.378-2.655-1.447-3.811-1.204
			c-0.583,0.152,0.182,1.653-0.401,1.805c-2.164,0.407-3.024,1.846-4.812,0.2l0.301-0.777l-0.101-0.827
			c1.126-0.373,3.901-0.137,3.811-1.203c0.007,0.083-5.339-2.934-5.615-3.008c-0.812-0.218-3.034-0.102-3.409,0
			c-2.094,0.566-5.504,0.135-8.623,0.201c-5.744,0.12-11.139,0.108-16.845,0.401c-11.178,0.574-20.959,0.466-32.486,1.003
			c-8.487,0.395-17.078,0.646-25.268,0.602c-18.195-0.098-39.411,1.316-55.949,1.404c-2.089,0.011-4.536,0.198-7.219,0.2
			c-13.422,0.01-30.28,1.245-42.915,0.201l0.602-0.802V32.171z M431.484,112.385c-0.225-1.35,0.982-2.15,0.4-3.208
			c-0.89,0.91-2.872,0.11-3.408,1.002c-0.603,1.001,1.448,2.808,0.802,4.612c0.134,0,0.268,0,0.401,0v1.003l0.802,0.602
			c-1.672,1.336-0.675,5.341-4.011,5.013c0.869,2.551-2.397,0.755-3.209,1.404c-0.474,0.379-0.011,2.758-1.604,3.008
			c-1.633,0.255-1.799-1.098-1.805-3.409c-1.048,1.105-1.451,6.309-4.612,3.409c0.66,3.179-1.997,6.788-2.607,2.005
			c-1.137,2.73-2.192,7.643-2.005,11.23c0.031,0.609,0.139,3.683,0.602,4.011c0.588,0.417,5.205-1.229,7.019-1.203
			c1.546,0.022,3.229-0.017,4.211,0.201c0.694,0.153,1.437,1.011,2.006,1.002c1.35-0.02,2.522-2.144,4.211-2.807
			c3.045-1.197,6.811,0.086,9.626-0.201c0.91-0.093,2.055-1.015,3.81-0.802c1.414,0.172,4.195,0.133,6.217-0.201
			c-1.414-1.901-0.89-4.179-1.604-6.417c-0.735-2.304-3.349,0.38-4.612-1.604c-0.686-1.078,0.682-2.899-1.003-3.209l0.803-0.602
			v-1.002c2.773-1.15,0.479-3.77,1.403-6.618l-0.082-0.884l-0.72-0.52c0.97-0.854,0.388-1.662,1.403-1.805
			c1.271-0.178,1.423,1.902,2.407,1.604c0.661-0.2,0.622-1.853-0.201-2.406c-0.215-0.144-1.293,0.441-1.403,0.401
			c-0.647-0.233-0.122-1.417-0.602-1.805c-0.107-0.086-1.87-0.556-2.407-0.401c-0.773,0.224-2.873,2.699-2.005,3.008l-0.764,0.563
			l-0.439,0.841c-3.405,1.916-1.685-1.583-1.003-3.609c-1.263-0.352-0.636,1.109-1.003,1.604c-0.733,0.989-3.308,2.834-3.81,2.808
			c-3.489-0.185,0.665-4.046,1.403-4.813c-1.379,0.423-0.78-1.441-2.005-0.602l-0.101-0.702L431.484,112.385z M449.532,113.187
			c3.133,1.159,3.328,2.993,3.409,6.216c0.022,0.913-0.129,3.27-0.401,4.211c-0.378,1.309-1.301,1.469-1.002,2.607
			c0.261,0.997,2.044,1.663,2.807,2.005c0.536-2.775-0.379-6.97,0-9.826c0.115-0.867,0.996-1.686,0.803-2.406
			c-0.098-0.363-1.326-1.049-1.805-1.404c-1.405-1.042-2.163-1.871-3.811-2.206C449.532,112.652,449.532,112.919,449.532,113.187z
			 M424.064,121.409c-0.112-1.542,1.022-3.281-0.2-4.211C423.711,118.545,422.979,121.07,424.064,121.409z M449.332,122.01
			c1.666-0.265,2.21-3.223,0.4-3.81C449.179,119.364,449.949,121.319,449.332,122.01z M457.152,128.829
			c1.064-1.672,0.11-4.628,2.406-4.211c1.642,0.298,0.516,2.458,2.006,3.208c1.728-2.315,1.393-3.645-0.2-5.615
			c-1.372-1.696-3.147-3.666-4.212-3.81C457.81,122.531,455.067,126.032,457.152,128.829z M445.12,128.829
			c1.916-0.101,1.216-2.422,0.602-3.609C445.132,126.032,445.352,127.656,445.12,128.829z M464.974,134.845
			c0.448-0.17-0.083-5.266-1.003-6.016c-0.963-0.786-1.108,2.798-1.203,3.008c-0.271,0.601-0.966-0.013-0.802,1.003
			C463.014,133.018,463.995,135.216,464.974,134.845z M459.158,136.048c-1.291,3.084-3.841-2.215-3.811-2.206
			c-0.286-0.083-2.102,1.31-2.406,2.005c-0.103,0.235-0.343,2.481,0,2.808c0.569,0.542,3.649-0.335,4.812-0.401
			c1.727-0.098,4.321-0.114,6.217-0.401c-1.603-1.539-3.126-3.157-5.414-4.011C458.158,135.27,459.619,134.947,459.158,136.048z
			 M466.578,137.652c0.096,0.313,1.642,1.146,2.205,0.401c0.571-0.754-0.837-1.616-1.002-1.604
			C468.065,136.428,466.432,137.176,466.578,137.652z M435.094,156.703c-2.237,0.555-7.197-3.746-6.617-7.019
			c0.152-0.86,2.449-0.654,2.807-0.401c0.321,0.227,0.747,4.755,2.808,4.412c0.881-0.146,1.657-2.939,2.607-3.81
			c0.413-0.379,2.03-0.674,2.206-1.404c0.34-1.411-2.359-2.908-3.409-3.208c-1.259-0.36-3.759-1.046-4.612-1.002
			c-2.411,0.123-5.338,2.961-5.014,5.414c0.149,1.133,0.924,3.603,1.203,5.815c0.044,0.35,0.229,2.662,0.602,3.209
			c0.49,0.719,3.196,1.043,4.412,1.002c5.188-0.175,7.025-2.933,6.417-7.219C436.723,154.694,436.905,156.253,435.094,156.703z
			 M455.749,145.072c0.979,2.092-1.367,4.843-1.203,7.019c0.05,0.671,0.734,1.169,0.602,1.805c-0.128,0.608-1.175,1.532-1.604,1.604
			c-0.662,0.112-1.021-0.815-1.604-0.802c-0.54,0.012-0.494,0.979-1.403,1.002c-1.776,0.047-1.232-1.604-1.404-3.008
			c-0.305-2.499-1.043-5.082-1.002-7.219c-0.84,0.468-4.7-0.215-5.214,0.802c-0.438,0.866,1.163,4.077,1.002,5.415
			c-0.854,7.117-5.148,14.627-13.837,13.235c-1.264-0.203-1.888-1.296-3.208-1.002c1.48,0.622,2.028,0.943,2.206,2.005
			c0.341,2.043-2.449,5.227-1.003,6.417c1.605,1.321,4.717-1.709,5.414-1.604c0.312,0.047,1.379,0.604,1.404,1.604
			c0.085,3.401-9.614,3.583-10.629,0.201c-0.187-0.624-0.045-2.326,0-2.607c0.258-1.613,1.491-2.842,1.404-4.812
			c-1.013-0.168-3.035,1.239-4.412,1.604c-1.349,0.358-2.269-0.191-2.606,0.802c-0.117,0.344,1.389,3.005,2.005,4.011
			c2.342,3.82,6.113,7.492,9.024,9.425c8.096,5.376,17.461,7.689,27.272,4.211c4.651-1.649,10.884-4.902,12.834-8.021
			c2.946-4.712,3.315-14.283,2.808-21.257c-0.193-2.654-0.561-5.442-1.403-7.219c-0.329,2.61,0.396,6.291-0.602,9.225
			c-0.951,2.792-5.764,3.24-8.423,2.807c-1.388-0.225-5.552-1.517-5.214-2.807c0.382-1.457,3.817-0.053,4.412,0
			c1.159,0.103,3.363,0.442,4.411,0c1.1-0.464,0.829-1.782,1.003-3.208c0.373-3.062,1.73-8.631-1.403-9.225
			c-2.704-0.512-4.301,3.915-6.017,3.008c-0.875-0.462-0.414-2.57,0-3.609C458.147,145.184,457.024,144.635,455.749,145.072z
			 M418.449,162.519c0.561-0.043,4.266-2.478,4.612-3.008c1.142-1.746,0.183-3.015-0.2-4.412c-0.49-1.789-0.473-4.065-0.803-5.214
			c-0.606-2.118-5.453-1.431-8.021-0.802c-2.097,0.513-1.764,2.376-1.003,4.211c0.751-0.161,2.177-1.199,3.208-0.201
			c0.735,0.711-0.801,1.432,0.602,1.604c1.147,0.141,1.289-1.619,2.206-1.805c1.311-0.266,2.772,0.89,2.406,2.407
			c-0.311,1.286-3.542,3.202-6.617,2.607C415.247,160.964,416.483,162.671,418.449,162.519z M585.896,196.208
			c-0.275-0.148-0.863,0.168-1.403,0c-0.56-0.175-1.294-0.734-2.006-1.003c-0.786-0.297-1.567-0.644-2.205-0.802
			c-2.907-0.721-6.263,0.361-8.623-0.2c-0.9-0.214-2.902-1.915-2.406-3.008c0.458-1.013,3.185-0.679,4.411-0.802
			c3.116-0.313,6.703-0.375,10.428-1.002c0.752-0.126,2.82-0.824,2.808-0.802c0.507-0.882-1.195-2.627-1.604-2.808
			c-1.485-0.656-4.447-0.33-5.414-0.2c-3.12,0.417-7.062,2.407-9.425,3.81c-1.878,1.115-2.675,1.728-4.212,0.201
			c-1.96-1.949,1.034-3.478,2.808-4.813c1.319-0.993,2.897-1.709,4.412-2.406c3.352-1.542,7.902-2.502,9.225-4.612
			c1.944-3.103-1.801-3.988-4.011-3.811c-3.641,0.293-8.356,3.844-10.026,6.217c-1.013,1.438-1.104,2.483-1.604,3.409
			c-0.498,0.919-1.301,2.605-2.206,3.008c-0.068,0.03-2.852,0.378-3.209,0.201c-1.297-0.646-0.776-2.294-0.802-3.409
			c-0.019-0.82-0.539-1.853-0.802-3.208c-0.226-1.159-0.16-2.652-0.401-3.81c-0.346-1.66-1.608-6.578-3.008-6.217
			c-0.977,0.252-0.418,3.205-0.401,4.211c0.013,0.794-0.432,1.524-0.401,2.005c0.071,1.095,0.883,3.325,1.404,5.214
			c0.527,1.914,1.16,3.963,1.604,5.214c0.534,1.508,1.776,4.056,1.203,5.615c-0.216,0.586-1.246,0.67-1.203,1.404
			c1.785,1.557,3.146,3.538,5.213,4.813c1.723-2.404,6.051-3.983,9.426-3.61c0.556,0.062,1.222,0.659,1.805,0.802
			c0.76,0.187,1.702,0.028,2.406,0.201c3.779,0.926,6.776,4.539,11.431,4.412C588.948,199.093,587.032,196.816,585.896,196.208z
			 M462.166,199.016c1.196,1.804,3.124-2.103,1.003-1.604C463.118,197.423,461.776,198.429,462.166,199.016z M424.466,205.232
			c-0.31-0.897-1.179-3.444-1.404-3.61c-1.049-0.772-4.343,0.231-6.617,0.201c-3.739-0.05-13.247-0.129-9.626,3.61
			c2.335,2.41,5.345,4.026,8.423,5.815c3.625,2.108,7.96,4.33,11.831,5.815C426.281,212.951,425.891,209.365,424.466,205.232z
			 M461.564,208.441c1.569,0.645,5.787-0.065,6.016-0.602c0.223-0.52-0.454-2.484-1.002-3.008c-1.045-0.998-5.177-1.786-6.017-1.604
			C456.982,204.001,459.673,207.665,461.564,208.441z M458.957,222.479c2.101,1.261-1.123,4.224-0.4,5.414
			c0.591,0.975,2.785,0.036,3.208-1.002c0.162-0.397-0.269-0.732-0.2-1.404c0.099-0.979,1.392-2.273,1.805-3.208
			c0.71-1.606,0.94-4.112,1.604-6.217c0.391-1.237,1.805-4.053,1.003-4.812c-0.393-0.371-1.956-0.201-2.808-0.201
			c-1.607,0-4.276-1.325-4.612-0.201c-0.864,2.889-1.351,8.123-1.805,11.631C458.103,222.928,457.878,221.83,458.957,222.479z
			 M445.321,235.312c-0.188,1.028-2.218,5.316-2.006,6.216c0.133,0.563,2.548,2.18,3.209,2.607c1.53,0.989,2.811,1.268,4.011,2.005
			c0.875,0.538,4.178,4.22,5.615,3.811c1.223-0.348,1.994-5.484,1.604-6.016c-0.663-0.903-3.815-0.334-3.609-2.407
			c0.248-2.498,3.611-0.478,5.214-1.403c0.564-0.326,1.262-1.472,0.802-2.206c-0.516-0.823-2.21,0.003-3.008-0.2
			c-1.852-0.472-2.596-3.356-0.2-3.811c0.65-0.124,1.317,0.596,2.606,0.401c1.322-0.199,2.271-1.977,1.003-3.008
			c-0.762-0.619-2.857-0.005-4.011-0.2c-1.01-0.171-2.158-0.833-2.406-1.604c-0.295-0.918,0.837-1.348,0.401-2.607
			c-0.062-0.176-2.18-2.031-3.008-2.206c-0.595-0.125-1.087,0.114-1.604,0.201C445.033,225.707,446.242,230.268,445.321,235.312z
			 M446.123,254.364c-0.274,1.355-0.789,2.725-1.003,3.81c-0.442,2.249,1.04,4.131,3.409,3.209c0.997-0.389,4.092-8.5,3.811-9.826
			c-0.306-1.443-4.076-3.466-4.612-3.209C446.416,248.976,446.546,252.277,446.123,254.364z"/>
		<path fill-rule="evenodd" d="M324.198,310.713l0.802,0.602c-3.386,2.785-6.607,5.455-10.829,7.822
			c-1.394,0.781-2.695,1.58-4.011,2.406c-4.448,2.789-8.173,4.682-12.433,7.619c-1.811,1.25-3.982,1.945-5.415,3.209
			c-0.669,0.592-1.686,2.6-3.609,1.605c-0.669-0.348-0.37-1.33-0.802-1.807c-0.634-0.697-1.984-0.389-2.808-0.801
			c-0.794-0.398-1.257-1.037-2.005-1.404c-5.078-2.488-11.665-4.4-17.446-6.416c-3.287-1.148-6.558-2.447-9.826-3.811
			c-3.196-1.334-6.472-3.072-9.626-4.012c-3.405-1.014-6.888-1.59-10.227-2.807c-4.345-1.584-8.357-4.123-12.634-5.615
			c-4.542-1.586-9.317-2.346-13.035-5.215l0.602-0.801v-1.004c3.665,1.391,8.078,3.492,12.232,4.814
			c1.039,0.33,2.394,0.219,3.409,0.602c2.035,0.764,3.794,2.23,5.815,3.008c6.104,2.346,13.201,3.709,19.652,6.217
			c4.457,1.73,8.6,4.18,13.436,5.613c1.609,0.479,2.897,1.252,4.412,1.805c1.835,0.672,3.931,0.656,5.815,1.404
			c0.964,0.383,1.817,1.252,2.808,1.605c3.212,1.146,6.401,1.854,9.625,2.807c-0.49-3.184,1.349-7.09,1.604-11.029
			c0.122-1.877-0.852-4.086,0.802-4.412c1.429-0.281,1.603,1.506,2.808,1.605c1.143,0.094,4.327-2.32,6.216-3.41
			c2.042-1.178,3.944-2.686,5.615-3.811c1.623-1.092,3.194-1.398,4.412-2.205c0.696-0.461,1.299-1.471,1.805-1.805
			c0.963-0.639,2.347-0.908,3.008-1.404c1.07-0.803,1.818-2.042,3.008-2.807c0.66-0.425,1.521-0.429,2.206-0.803
			c1.139-0.621,2.189-1.811,3.409-2.606c1.25-0.816,2.65-1.357,3.811-2.206c2.817-2.061,5.44-4.172,8.422-6.217
			c1.642-1.126,2.976-2.777,4.612-4.011c3.251-2.45,6.632-4.709,10.027-7.219c1.584-1.172,3.047-2.921,4.612-3.811
			c0.37-0.21,1.047-0.044,1.403-0.2c1.209-0.532,2.275-1.57,3.409-2.206c1.239-0.694,2.077-1.612,3.208-2.406
			c1.182-0.829,2.631-1.199,3.811-2.006c0.949-0.649,1.629-1.687,2.607-2.406c0.983-0.723,2.163-1.271,3.208-2.005
			c2.151-1.51,4.886-2.817,7.219-4.612c0.795-0.612,1.369-1.622,2.206-2.206c3.376-2.354,7.326-4.574,11.23-6.818
			c5.783-3.323,10.703-5.768,16.645-9.626c1.977-1.284,2.822-3.319,5.414-3.609c5.656-0.633-0.709,2.97-1.805,3.811
			c-0.495,0.38-0.803,1.151-1.404,1.604c-0.996,0.75-2.696,1.403-4.011,2.205c-2.148,1.312-3.067,2.117-5.414,3.209
			c-0.801,0.373-2.859,1.984-4.011,2.406c-0.438,0.16-0.873-0.119-1.604,0.2c-1.285,0.562-2.996,1.835-4.412,2.808
			c-4,2.746-7.609,5.667-11.832,8.223c-5.464,3.307-9.795,6.572-14.839,10.428c-1.497,1.143-1.753,1.251-3.81,2.005
			c-0.798,0.293-2.023,1.086-2.808,1.604c-4.777,3.154-9.811,7.154-14.639,10.628c-0.348,0.251-0.62,0.578-1.002,0.803
			c-2.941,1.726-5.158,4.445-8.222,6.617c-2.002,1.42-3.739,3.183-5.815,4.612c-2.076,1.43-4.543,2.427-6.618,3.811
			c-1.273,0.849-2.319,1.973-3.609,2.807c-6.25,4.035-12.295,7.791-19.051,12.031c-1.667,1.047-3.723,2.648-5.415,4.012
			c-0.648,0.521-1.499,1.221-1.604,1.404c-0.852,1.473-0.806,5.115-1.203,7.619c-0.126,0.797-0.807,2.047-0.602,2.406
			c0.5,0.877,2.448-0.508,2.206-0.4c2.122-0.945,4.375-2.512,6.016-3.609c2.923-1.955,5.426-3.227,8.222-4.812
			c1.646-0.934,3.152-2.307,4.813-3.209c1.831-0.994,3.83-1.773,5.214-2.807c1.767-1.322,3.423-3.678,6.016-4.412L324.198,310.713z"
			/>
		<path fill-rule="evenodd" d="M188.637,293.869v1.003c-5.49-1.013-10.622-4.041-16.244-6.017c-0.459-0.161-1.005-0.354-1.604-0.602
			c-0.442-0.183-0.856-0.879-1.203-1.002c-0.406-0.145-1.165,0.107-1.604,0c-3.84-0.944-7.267-3.936-10.829-5.415
			c-1.602-0.665-3.41-0.753-5.013-1.403c-1.781-0.724-3.417-1.894-5.214-2.607c-0.989-0.392-1.922-0.621-2.808-1.002
			c-1.456-0.628-2.52-1.092-4.412-1.806c-1.524-0.574-2.736-1.703-4.211-2.406c-0.891-0.425-1.896-0.531-2.807-1.003
			c-0.896-0.463-1.753-0.8-2.607-1.203c-2.338-1.103-3.909-1.876-6.618-2.807c-1.03-0.354-1.879-1.272-2.808-1.604
			c-6.672-2.386-12.936-5.052-19.251-7.821c-2.03-0.89-3.665-2.029-5.615-3.208c-5.607-3.389-12.286-4.554-17.848-8.021l0.501-0.836
			l-0.101-0.969c2.477,0.574,4.53,1.883,6.818,2.807c2.279,0.921,4.647,1.543,7.019,2.407c3.85,1.402,6.98,4.247,10.628,6.016
			c1.379,0.669,3.01,0.793,4.412,1.404c1.3,0.566,2.336,1.624,3.61,2.205c2.143,0.979,4.61,1.345,6.818,2.206
			c4.191,1.636,8.303,3.433,12.633,5.214c2,0.823,3.639,2.232,5.615,3.209c0.873,0.431,1.898,0.405,2.808,0.802
			c0.885,0.387,1.526,1.188,2.406,1.604c4.863,2.297,10.111,3.994,15.241,6.016c2.609,1.029,4.877,2.824,7.419,4.011
			c5.492,2.563,11.668,3.782,17.246,6.417c2.737,1.293,5.315,2.73,8.222,3.61L188.637,293.869z"/>
		<path fill-rule="evenodd" d="M69.82,243.39l0.301,0.946c-1.69-0.414-6.896-0.697-7.621-2.606c-0.199-0.525,0.19-1.461,0.201-2.406
			c0.021-1.877-0.709-3.871-0.802-5.214c-0.075-1.078,0.515-2.741,0.602-4.412c0.115-2.201-0.461-3.84,1.204-3.811
			c2.247,0.041,1.219,4.051,1.203,6.417c-0.023,3.317,0.438,7.947,2.005,9.024c1.177,0.81,1.847-0.034,3.409,1.203L69.82,243.39z"/>
		<path fill-rule="evenodd" d="M322.995,194.203v1.002c-5.084-1.667-9.832-3.67-14.639-5.615l0.387-0.874l0.215-0.931
			c5.034,1.451,9.72,3.249,14.037,5.415V194.203z"/>
		<path fill-rule="evenodd" d="M298.53,185.179v1.003c-5.482-1.844-10.121-3.304-14.639-6.016l0.418-0.854l-0.018-0.951
			c2.146,0.318,4.009,2.604,4.011-0.602c0-0.863-0.324-1.696-0.401-2.607c-0.701-8.264-2.223-17.715-4.211-24.867
			c-0.911-3.275-1.313-5.403-3.409-7.62c-0.399-0.422-0.968-0.755-1.404-1.203c-0.211-0.218-0.772-1.457-1.002-1.604
			c-1.078-0.692-3.135-0.285-4.813-0.802c-0.733-0.226-1.32-0.958-2.005-1.203c-0.819-0.292-1.743-0.13-2.607-0.401
			c-3.108-0.974-6.424-3.016-9.425-5.214c-2.907-2.129-6.097-3.879-8.623-6.016c-1.07-0.905-2-2.101-3.008-3.008
			c-2.044-1.839-4.175-3.104-6.016-5.214c-0.813-0.933-1.134-2.316-1.805-3.208c-0.341-0.454-1.564-1.499-2.607-2.807
			c-0.74-0.929-1.731-2.856-2.406-3.008c-1.144-0.258-5.276,6.246-5.815,7.621c-0.752,1.916-1.278,4.795-1.604,7.419
			c-0.502,4.04-0.722,8.482-1.002,12.634c-0.152,2.25-0.454,5.153-0.602,8.021c-0.085,1.66,0.641,7.063,0,8.021
			c-0.559,0.836-3.511,0.253-3.811-0.401c-0.346-0.757,0.331-1.994,0.401-2.807c0.726-8.404,0.868-15.413,2.005-24.465
			c0.816-6.5,2.463-10.841,5.615-15.241c0.418-0.584,1.332-1.258,1.404-1.604c0.064-0.306-0.432-1.224-0.401-2.005
			c0.042-1.066,0.628-1.651,0.602-2.005c-0.07-0.916-1.279-2.196-1.805-3.208c-1.046-2.014-1.623-4.735-2.206-7.62
			c-0.233-1.155-0.359-3.434-0.802-4.011c-0.788-1.026-3.609-0.109-4.211-1.805c-0.036-0.102,0.025-1.835,0.201-2.407
			c0.353-1.144,1.489-1.54,0.802-3.409c-0.399-1.088-2.397-1.947-2.607-2.808c-0.271-1.111,0.875-2.619-0.401-4.011
			c0.28-0.522,1.105-0.499,1.604-0.802c0.385-1.834-5.496-3.401-5.214-5.214c0.435-2.795,7.063,1.858,8.422,1.805
			c-0.058-1.461-2.326-4.402-2.808-6.618c-0.25-1.152-0.394-3.2,0.201-3.609c1.465-1.009,2.711,1.188,3.81,1.203
			c0.096-1.622,1.063-1.209,2.808-0.802c0.66,0.154,1.443,0.561,1.805,0.602c0.699,0.079,1.508-0.309,2.005-0.2
			c1.121,0.245,1.873,1.311,2.808,1.404c1.496,0.148,2.237-1.159,3.61-0.401l0.439,0.841l0.764,0.563
			c-1.169,0.783-1.966,2.7-3.208,3.008c-1.037,0.258-1.359-0.856-1.805,0c-0.847,1.626,2.902,2.868,1.805,4.612
			c-0.346,0.55-3.322-0.326-3.811,0c-1.117,0.747,0.534,2.098-1.805,1.805c-0.132,0.733,0.434,0.769,0.401,1.404
			c-1.305,0.165-1.73,1.21-2.807,1.604c1.858,1.271,4.634,4.289,0,4.211c0.84,2.279-0.826,4.808,0.602,7.019
			c0.51,0.79,1.695,0.563,1.805,1.404c0.185,1.411-1.193,1.515-2.206,1.805c1.095,10.873,7.988,18.583,14.038,25.668
			c0.867,1.015,2.131,2.035,3.208,3.008c1.172,1.059,2.353,2.424,3.208,3.008c0.509,0.347,0.876,0.117,1.204,0.401
			c3.598,3.131,6.263,6.112,9.826,8.423c0.827,0.536,1.976,0.798,3.008,1.403c0.915,0.537,1.679,1.438,2.607,1.805
			c0.647,0.255,1.52,0.125,2.206,0.401c2.91,1.167,7.019,2.461,10.829,3.61c2.286,0.689,5.245,0.826,7.42,1.203
			c3.621,0.628,8.358,0.193,10.829-2.407c0.153-0.161-0.016-0.701,0.201-1.002c1.073-1.497,3.193-2.931,4.011-5.013
			c2.721-6.924-1.525-13.729-5.214-18.048c-0.812-0.952-1.863-1.857-2.607-2.808c-2.066-2.639-4.902-5.108-7.019-8.021
			c-1.378-1.897-2.756-3.989-4.612-5.214c-0.856,1.888-0.205,7.697-3.008,8.021c-4.22,0.488-0.866-5.756-0.602-8.623
			c0.313-3.401-2.122-5.322-5.615-4.211c-0.663,0.21-2.468,1.449-2.607,1.604c-0.954,1.066-0.28,2.736-1.604,3.008
			c-0.715,0.146-1.65-0.627-1.805-1.404c-0.572-2.881,3.958-5.892,7.019-6.217c1.045-0.111,1.95,0.688,3.61,0.201
			c-0.966-1.816-1.148-3.997-2.206-6.216c-0.411-0.862-1.204-1.41-1.604-2.206c-0.856-1.702-1.299-6.055-3.208-6.618
			c-1.037-0.306-1.618,0.638-2.005-0.201c-0.318-0.688,1.28-1.269,0.802-2.005c-0.71-0.762-3.301,0.477-3.81-0.602
			c-0.75-1.587,2.074-1.623,2.406-3.008c-0.707,0.369-2.94,0.645-3.208-0.602c-0.167-0.773,1.529-1.03,1.203-2.206
			c-0.054-0.194-1.908-1.294-2.406-1.404c-1.411-0.312-2.706,0.277-4.011-0.401c-1.561-0.811-2.135-2.278-4.011-3.208l0.802-0.602
			v-1.003c1.925-0.373,3.237,1.955,4.612,1.203c1.22-0.666-0.529-1.39,0.201-2.406c0.444-0.619,1.661-0.385,2.005-0.401
			c0.476-0.022,2.109-0.15,2.406,0c0.431,0.218,0.692,2.843,1.604,3.008c1.299,0.235,3.11-4.037,4.612-4.612
			c2.981-1.143,1.677,1.25,2.607,2.808c0.404,0.677,3.36,1.352,2.206,3.81c1.117,0.088,2.056,0.265,2.407,1.203
			c0.329,0.881-0.35-0.071-0.602,0.802c-0.008,0.029,0.194,0.833,0.201,0.802c-0.439,1.984-0.05,3.788-0.401,5.615
			c1.072,0.329,2.294,0.161,3.208,0.401c0.478,0.125,2.527,0.785,2.607,1.805c0.109,1.402-3.828,2.726-6.016,2.607
			c-1.347-0.074-2.548-1.853-3.208-1.404c-0.905,0.614,2.806,7.021,3.008,7.42c1.631,3.215,1.959,5.201,3.209,7.62
			c2.208,4.276,5.529,7.397,8.422,11.23c0.556,0.736,0.897,1.789,1.404,2.406c0.582,0.709,1.714,1.121,2.406,1.805
			c1.918,1.897,3.75,4.271,5.615,6.417c3.446,3.965,6.759,8.367,6.818,15.04c1.549-1.039,1.703-3.114,2.406-4.612
			c0.708-1.507,1.515-3.042,2.407-4.412c1.884-2.893,3.055-5.903,5.615-8.021c0.537-0.444,1.809-0.8,2.206-1.404
			c0.152-0.23,0.118-1.526,0.201-1.805c1.03-3.469,5.727-6.043,10.628-6.417c3.428-0.261,6.948,0.997,10.027,1.003
			c0.663,0.001,1.253-0.44,1.805-0.401c3.11,0.222,8.436,2.293,11.832,3.008c1.188,0.25,2.5,0.03,3.209,0.401
			c1.082,0.566,2.204,2.75,4.01,3.811c0.741,0.435,1.753,0.397,2.407,0.802c0.378,0.234,0.738,1.027,1.404,1.604
			c0.624,0.541,1.451,0.788,1.805,1.203c2.709,3.186,2.82,8.448,3.008,14.038c0.082,2.442,0.252,5.166,0.802,7.219
			c0.917,3.421,2.354,6.361,2.206,9.826c-0.058,1.34-0.36,2.201,0,4.011c0.502,2.527,0.73,5.962,1.404,8.222
			c1.424,4.777,4.806,9.509,7.821,13.436c0.366,0.478,1.401,1.326,1.002,2.005c-0.516,0.88-1.264-0.115-2.607,0
			c-1.298,0.111-1.864,0.954-3.208,0c1.015,2.515,0.417,3.692-2.808,3.609c-1.085-0.027-2.921-0.978-3.409-0.602
			c-0.439,0.339,0.139,1.601-0.201,2.607c-0.556,1.647-1.562,1.167-2.005,2.005c-0.58,1.096-0.309,6.462-0.401,8.623
			c-0.209,4.905-0.026,9.594,0.401,13.636c0.204,1.927,0.224,7.837-1.003,8.021c-1.766,0.266-1.833-3.638-2.005-5.013
			c-0.635-5.073-1.21-12.213-0.802-18.449c0.094-1.442,0.646-4.223,0.2-4.612c-0.352-0.308-4.966,0.783-6.016,0.802
			c-2.81,0.051-5.742-0.581-7.219-0.602c-4.724-0.066-9.789-0.729-14.438-1.604c-1.41-0.266-2.729-0.941-4.01-1.203
			c-2.318-0.473-4.74-0.68-7.019-1.805c-0.858-0.424-2.365-2.015-2.607-2.005c-2.018,0.079-1.67,5.452-2.005,8.222
			c-0.207,1.709-0.302,2.906-0.602,4.612c-0.173,0.988-0.336,3.938-1.404,3.81c-1.491-0.178-0.555-6.492-0.401-8.623
			c0.113-1.561,0.142-3.19,0.201-4.612c0.06-1.446,0.633-3.213,0.401-4.211c-0.75-3.229-3.727-0.814-5.615-2.407l0.568-0.702
			l0.034-0.902c-1.012-1.663-2.225-3.123-4.011-4.011c-0.145,0.613,0.205,0.731,0.2,1.203l-0.84,0.44l-0.563,0.763
			c-0.618-0.451-2.208,0.07-2.607-0.602l0.602-0.802v-1.002c-1.909-4.187-3.307-9.96-4.01-15.241
			c-1.099,1.66-1.136,5.105-0.802,8.021h-1.003l-0.802,0.602c-1.439-3.52-0.104-9.224,1.002-12.634
			c0.301-0.926,0.986-1.737,1.203-2.607c0.219-0.875-0.145-1.801,0-2.607c0.477-2.648,2.669-4.355,2.808-7.019
			c-2.473,2.23-4.089,5.952-7.42,7.62c-3.835,1.921-9.061,1.837-14.839,0.802c2.88,4.409,4.647,11.736,5.815,18.85
			c0.899,5.474,2.316,10.771,2.607,17.046c0.069,1.484-0.253,3.594,0.201,4.211c0.617,0.838,5.097,1.582,6.016,2.005
			c0.502,0.232,0.994,0.852,1.404,1.203L298.53,185.179z M225.936,64.658c0.15,0.548,1.689,0.751,2.206,1.403
			C229.663,64.253,225.129,61.723,225.936,64.658z M228.744,75.085c-1.104-0.902-2.186-1.825-4.011-2.005
			C225.333,74.274,227.372,75.979,228.744,75.085z M336.431,102.759c0,0.334,0,0.668,0,1.002c2.868-0.448,5.956,0.978,7.821,0.201
			C342.589,103.264,338.525,102.944,336.431,102.759z M349.666,107.572c1.678-0.194,1.7,1.128,2.206,2.005
			c0.64,1.11,2.021,2.034,3.008,3.008c1.05,1.036,1.844,2.477,3.208,2.807c-1.422-2.764-1.166-6.052-2.607-8.222
			c-1.306-1.966-5.592-2.969-7.821-2.607C348.849,104.996,349.938,106.317,349.666,107.572z M338.837,107.572
			C340.363,104.634,336.354,105.541,338.837,107.572L338.837,107.572z M330.214,113.989c0.994-2.702,1.656-5.524,2.005-7.821
			C329.298,106.511,328.946,111.883,330.214,113.989z M332.219,115.794c-0.081,0.503,0.126,1.287,0,1.805
			c-0.176,0.725-0.896,1.345-1.002,2.206c-0.296,2.393,1.475,4.371,1.404,6.818c-0.013,0.435-0.544,1.161-0.602,1.604
			c-0.323,2.485,1.083,4.953,1.604,7.219c0.581,2.527,0.532,5.034,1.404,7.42c0.24,0.656,0.755,1.167,1.003,1.805
			c1.04,2.679,1.219,5.375,2.406,7.62c1.184,2.24,4.98,5.504,4.813,6.618c-0.253,1.679-3.601,0.703-4.011-0.602
			c-3.05,1.8-4.573-1.92-6.618-3.81c-0.363-0.335-1.108-0.364-1.404-0.602c-1.091-0.875-1.634-2.294-3.008-2.206
			c1.179,3.115,3.12,6.069,5.013,8.422c0.885,1.1,1.624,2.585,2.206,3.209c0.494,0.528,2.828,1.272,2.006,2.607
			c-0.211,0.342-2.045,0.695-3.008,0.401c-1.085-0.332-2.47-2.542-3.609-3.81c-1.352-1.504-2.302-3.104-3.61-3.81
			c0.457,2.601,3.306,4.144,4.612,6.016c0.247,0.353,1.347,2.024,1.003,2.607c-1.371,2.322-5.771-2.733-6.217-3.008
			c-1.234-0.763-2.528-0.953-3.61-1.805c0.738,1.591,3.042,5.097-0.401,4.813c-0.7,1.403,0.774,1.858,1.604,2.606
			c0.734,0.662,1.256,1.71,2.005,2.206c1.652,1.094,4.715,1.887,6.618,2.406c0.986,0.27,2.207,0.662,3.208,0.802
			c3.039,0.426,5.357,1.422,7.821,1.604c0.48,0.036,0.959-0.376,1.404-0.401c1.374-0.078,2.681,0.504,4.211,0.602
			c3.351,0.213,7.18,0.229,11.23-0.201c0.535-0.057,3.678-0.493,3.81-0.602c0.806-0.665,1.373-10.773,1.404-13.436
			c0.083-7.027,1.042-20.297-0.2-28.877c-0.109-0.75-0.666-1.514-0.602-2.206c0.058-0.623,0.899-1.258,1.003-2.005
			c0.138-0.999-0.274-3.176-0.201-5.014c0.067-1.687,0.289-3.715,0-4.612c-0.454-1.409-2.323-1.764-2.406-3.008
			c-0.102-1.517,1.027-0.896,1.002-2.407c-0.021-1.298-2.163-3.957-2.807-3.81c-0.161,0.037-0.962,1.465-1.003,2.206
			c-0.119,2.162,2.646,5.707,2.607,6.818c-0.036,1.048-0.87,1.081-0.802,2.005c0.057,0.764,2.826,3.784,1.404,4.612
			c-0.203,0.119-2.165-0.551-2.406-0.802c-0.564-0.586-0.785-2.265-1.203-3.008c-1.695-3.013-3.356-5.463-5.615-7.42
			c0.473,2.345,2.759,4.587,3.81,7.019c-0.799-0.081-2.169,0.548-2.807,0.2c-0.301-0.164-0.537-1.418-0.802-1.805
			c-0.582-0.847-2.169-1.952-2.607-2.808c-0.193-0.377-0.046-1.01-0.201-1.403c-0.565-1.444-1.771-2.747-2.607-3.409
			c0.921,2.693,1.522,4.355,2.607,7.019c0.383,0.94,1.821,3.315,1.404,4.011c-0.156,0.259-1.435,0.645-2.206,0.201
			c-0.489-0.282-1.02-2.543-1.403-3.409c-0.559-1.262-1.344-2.227-1.805-3.208c-1.796-3.825-3.153-7.182-6.016-9.225
			c0.006,1.675-0.946,3.317-0.401,5.415c0.284,1.093,1.851,2.764,2.607,4.01c0.612,1.008,2.916,4.157,1.805,5.014
			c-1.571,1.211-2.832-2.226-3.409-2.005c-0.15,1.184,1.4,3.559-0.201,4.211c0.091-0.038-1.77-0.562-1.805-0.602
			c-0.594-0.664-1.35-3.846-2.206-6.216c-1.29-3.57-2.042-7.837-3.61-10.428C334.162,110.507,332.642,113.153,332.219,115.794z
			 M322.393,115.995c-0.934-1.334-2.204,1.636-1.404,3.208C321.75,118.709,322.925,116.753,322.393,115.995z M331.016,138.254
			c0.218,0.049,0.136,0.398,0.401,0.401c-0.521-5.9-2.636-11.935-4.011-17.647c-0.201,0-0.401,0-0.602,0
			c-0.449,3.242,1.061,5.402,1.604,8.222l-0.85,0.174l-0.754,0.428c-0.201,0-0.401,0-0.602,0c-1.335,7.421,1.268,15.72,5.013,20.053
			c0.542,0.628,1.424,0.971,2.005,1.604c1.19,1.298,1.884,3.327,3.609,3.409c-2.691-4.996-5.659-9.715-7.419-15.642l0.874-0.387
			L331.016,138.254z M321.992,131.636c0.146,0.763,0.467,1.873,1.002,2.206c0.81-3.628,0.975-7.492,0.802-11.43
			c-0.2,0-0.401,0-0.602,0C321.795,125.093,321.385,128.456,321.992,131.636z M308.958,135.246
			c0.805-3.272,1.606-6.549,2.005-10.227C308.391,126.744,308.347,131.312,308.958,135.246z M318.984,132.839
			c-0.097-1.842,0.278-4.155-0.401-5.415C317.593,128.6,318.261,131.995,318.984,132.839z M305.749,145.473
			c1.462-0.6,1.105-2.955,1.002-4.612c-0.201,0-0.401,0-0.602,0C305.642,142.462,306.168,143.857,305.749,145.473z M322.193,147.077
			c0.947,2.565,2.412,5.318,4.211,6.618c-1.27-3.543-2.99-6.635-4.011-10.428c-0.256-0.011-0.278-0.257-0.602-0.201
			C321.758,144.715,321.852,146.154,322.193,147.077z M316.177,161.716c0.317-0.899-0.63-1.573-0.802-2.005
			c-0.142-0.354-0.148-1.594-0.802-2.406c-0.19-0.236-0.71-0.126-1.002-0.401c-0.48-0.452-0.445-1.102-0.602-1.203
			c-0.495-0.32-0.857,0.115-1.204-0.401c-0.655-0.977-0.116-2.351-0.802-3.409c-0.201,0-0.401,0-0.602,0
			c0.182,1.611-0.823,3.384-0.201,5.013c0.527,1.379,3.153,1.821,3.409,3.208l-0.501,0.836l0.1,0.969c-0.133,0-0.267,0-0.401,0
			c-0.072,1.767,4.135,3.673,4.813,5.815c0.125,0.396,0.659,2.805,2.005,2.005c0.584-0.347,0.429-4.768,0-5.815
			c-1.046,1.661-3.397,0.712-4.211-0.602l0.802-0.602V161.716z M370.521,169.938C370.161,166.625,367.03,169.799,370.521,169.938
			L370.521,169.938z"/>
		<path fill-rule="evenodd" d="M271.257,174.35v1.002c-2.102-0.134-5.264-1.477-7.62-2.607c-0.688-0.33-1.134-1.094-1.805-1.404
			c-0.375-0.173-0.941,0.161-1.404,0c-0.54-0.188-0.855-0.455-1.203-0.602c-2.213-0.935-5.136-2.268-7.62-3.208
			c-1.21-0.458-2.589-0.517-3.61-1.002c-0.548-0.261-0.97-0.919-1.604-1.204c-1.218-0.547-2.273-0.098-2.607-1.403l0.764-0.563
			l0.439-0.84c8.868,3.9,18.9,6.634,27.072,11.23L271.257,174.35z"/>
		<path fill-rule="evenodd" d="M507.486,33.976v-1.002c4.396,0.023,7.933-1.47,11.431-0.802v1.002l0.602,0.802
			c-3.586,0.434-8.106,1.156-12.634,0.802L507.486,33.976z"/>
		<path fill-rule="evenodd" d="M539.071,32.539l-0.101-0.969c5.285-0.046,10.033,0.043,15.04,0.602l-0.101,0.925l0.301,0.88
			c-3.343,0.854-7.155-0.08-10.828-0.201c-1.626-0.053-3.751,0.775-4.813-0.401L539.071,32.539z"/>
		<path fill-rule="evenodd" d="M164.171,87.719c0.913-1.343,0.075-10.536,2.005-11.03c1.641-0.419,2.264,4.796,2.406,6.417
			c0.213,2.432-0.245,6.728,0.802,7.019c0.575,0.159,1.995-3.874,2.206-4.612c0.695-2.432,0.655-6.207,1.002-7.821
			c0.131-0.609,0.785-2.488,1.805-2.206c0.768,0.212,0.48,2.651,1.203,3.008c0.546,0.269,1.795-0.782,2.206-0.602
			c0.904,0.397,1.481,3.078,1.604,4.412c0.141,1.527-0.636,4.09,0.401,4.412c1.317,0.408,2.312-5.556,2.206-7.62
			c-0.074-1.422-0.603-3.197,1.203-3.008c1.46,0.153,1.354,2.393,1.604,4.211c0.064,0.463,0.272,4.129,0.802,4.412
			c1.211,0.645,1.851-2.552,2.206-4.011c0.145-0.596,0.616-1.01,0.802-1.604c0.499-1.593-0.199-3.755,1.203-4.011
			c1.387-0.253,2.437,4.211,2.607,5.414c0.078,0.549,0.063,5.849,1.404,5.816c0.289-0.007,2.34-4.453,2.607-6.618
			c0.199-1.62-0.507-3.333,1.604-3.008c1.989,0.306,1.277,3.082,1.404,5.615c0.087,1.75,0.933,3.378,1.003,4.412
			c0.076,1.123-0.351,4.532-1.003,5.214c-0.499,0.522-1.984-0.343-2.206,1.003c-0.104,0.625,2.049,1.836,2.005,1.805
			c3.158,2.256,6.639,7.052,8.423,12.032c0.672,1.877,0.709,3.973,1.203,6.016c0.909,3.763,2.547,7.408,2.607,11.23
			c0.034,2.158,1.316,5.619,1.805,7.621c0.507,2.079,0.859,4.513,1.203,6.618c0.384,2.343,1.087,4.394,1.404,6.216
			c0.411,2.366,0.267,4.089-1.604,3.61c-1.987-0.509-1.807-2.724-2.206-5.014c-1.338-7.679-3.114-17.288-5.415-26.069
			c-0.827-3.157-1.263-7.57-2.406-10.628c-1.176-3.146-3.183-6.046-5.214-8.422c-2.124-2.484-5.515-3.209-9.225-3.81
			c-2.429-0.394-6.217-1.935-8.623-1.003c-1.503,0.583-0.934,2.966-4.211,3.008c-0.626-0.815-0.013-1.644-0.2-2.206
			c-1.997,0.622-1.71,3.865-4.412,3.208c-0.648-0.782,0.443-1.348-0.2-1.805c-1.798-1.276-2.776,4.886-4.813,3.409
			c-0.786-0.687,0.008-1.112-0.802-1.404c-0.684-0.247-2.413,0.446-3.008,1.404c-0.708,1.138-0.988,4.627-1.805,5.414
			c-0.333,0.321-2.207,0.803-2.607,0.401c-0.581-0.584,0.267-0.996,0.401-2.005c0.044-0.332,0.115-2.077,0-2.206
			c-0.723-0.81-1.518,0.962-2.607,1.604c-0.71,0.418-1.565,0.383-1.805,0.602c-0.734,0.668-0.426,1.752-1.204,2.607
			c-0.429,0.472-1.364,0.348-1.805,0.802c-0.917,0.944-0.467,2.349-1.604,2.807l-0.602-0.802l-0.802-0.602
			c0.585-1.042,0.49-3.297,0.2-4.612l0.951,0.017l0.854-0.418c1.28,1.035,0.879-3.046,0-2.206l-0.602-0.802h-1.003
			c-0.065-3.417,1.051-6.26,2.206-9.225l0.802,0.602h1.002c-0.182,3.051,0.528,5.712,0.802,8.823
			c1.205,0.026,0.865-1.915,1.203-3.609c0.448-2.245,1.375-4.121,0.802-6.417c-0.164-0.656-1.263-3.174-2.206-2.206l-0.563-0.764
			l-0.841-0.439c0.28-1.891,0.565-3.664,1.805-3.81c1.697-0.201,1.038,1.646,2.407,2.005c0.572,0.15,1.662-0.926,2.607-0.602
			c1.171,0.402,2.164,4.974,2.206,6.818c0.034,1.495-0.624,6.406,1.204,3.008l0.802,0.602l0.802-0.602
			c0.725,0.324-0.028,0.965,0.401,1.403c3.351,0.465,2.684-6.088,0.602-6.417l-0.416-0.902L164.171,87.719z M188.637,85.713
			c-0.72,2.065-2.267,4.615-1.805,5.415c0.621,1.075,2.846,0.116,4.211,0.802c0.055-3.331-0.593-5.958-1.203-8.623
			C188.656,83.182,189.012,84.638,188.637,85.713z M171.992,92.732c1.431,0.964,2.123-4.807,0.802-4.412
			C172.358,88.451,171.152,92.167,171.992,92.732z M176.805,91.729c1.258,0.202,1.228-1.758,0.401-2.005
			C176.607,90.313,176.504,90.94,176.805,91.729z M193.65,91.93c-0.118,0.06-0.908-0.588-0.602,0.201
			c0.381,0.981,1.899,0.459,3.609,0.802c-0.197-0.806-0.246-1.76-0.2-2.808C195.557,89.456,194.159,91.669,193.65,91.93z"/>
		<path fill-rule="evenodd" d="M137.099,144.671h1.002c1.077,2.008-2.71,5.669-2.206,7.019c0.51,1.365,6.188,0.854,8.021,1.203
			c1.367,0.261,2.92,1.109,4.412,1.204c2.369,0.149,4.302-0.244,6.216,0c1.956,0.249,3.472,1.54,5.214,1.805
			c2.073,0.315,4.106-0.19,5.815,0c5.156,0.575,9.951,2.801,15.642,2.607c0.701-0.024,1.315-0.482,2.005-0.602
			c3.473-0.601,6.249,0.694,9.625,1.002c0.858,0.079,1.908-0.206,2.808-0.2c2.307,0.013,4.33,0.53,7.62-0.401
			c3.59-1.016,8.031-3.153,11.431-5.214c0.926-0.561,3.973-3.177,4.211-0.802c0.11,1.099-2.156,2.541-4.011,3.61
			c-2.953,1.702-7.391,3.337-9.826,4.812c-0.393,0.238-1.213,0.649-1.604,0.802c-3.828,1.497-8.504,2.317-12.634,4.211
			c-4.024,1.846-7.775,4.068-11.631,5.013l0.1-0.969l-0.501-0.835c4.644-2.576,9.924-4.514,14.639-7.019
			c-6.718-0.502-13.256-0.201-20.053-0.602c-1.211-0.072-2.372-0.32-3.61-0.401c-4.688-0.306-9.375,0.774-14.037,0.401
			c-3.305-0.265-6.264-1.466-9.626-1.003l0.101-0.969l-0.501-0.835c0.034-1.058-3.825-1.378-5.415-1.805
			c-2.104-0.565-3.362-1.26-5.214-1.604c-0.872-0.162-2.429,5.102-2.808,6.417c-0.518,1.802-0.632,3.906-1.203,6.217
			c-0.856,3.463-3.362,7.8-3.409,11.029c-0.054,3.742,1.558,5.726-0.602,8.824c-0.419,0.602-1.568,0.876-1.805,1.604
			c-0.454,1.398,0.675,5.095,0.802,5.014l-0.101,0.969l0.501,0.835c-0.909,0.762-1.837,1.505-3.409,1.604l-0.439-0.84l-0.764-0.563
			c-0.821-0.961,0.134-4.467-0.602-6.016c-0.445-0.937-3.844-2.353-5.615-2.206v-1.002l-0.602-0.802
			c1.258,0.058,1.751-1.083,2.607-1.604c0.952-0.58,2.668-0.244,2.807-1.604c-4.736,0.076-9.769,3.328-15.842,4.211
			c-4.809,0.7-11.145,0.729-16.444,1.203c-2.145,0.192-3.773,0.66-5.615,0.401c-1.451-0.204-5.437-1.414-6.618,1.002
			c9.716,0.661,19.01-0.459,29.278-1.002v1.002l0.602,0.802c-5.617,1.023-11.026,1.337-17.447,1.805
			c-3.714,0.271-7.289-0.21-10.227,0c-1.715,0.123-9.403-0.107-9.826,0.401c-0.259,0.311-0.118,7.373-0.201,9.024
			c-0.188,3.72,0.761,8.648,0.201,12.232c-0.138,0.882-1.002,8.051-3.209,6.818c-0.915-0.511,0.666-5.631,0.802-6.818
			c0.271-2.356,0.22-8.261,0.201-12.032c-0.009-1.676,0.003-6.958-0.602-7.621c-0.294-0.322-1.108-0.084-1.404-0.401l0.1-0.877
			l-0.501-0.727c0.483-0.132,1.682-1.738,1.002-2.807c-0.352-0.554-4.36,2.142-4.011,3.008l-0.936-0.1l-0.268,0.902
			c-4.146,1.727-11.852,1.491-9.425-4.211c-2.557,0.136-6.061-0.385-6.618-3.208c-0.118-0.599,0.484-1.936,0.201-2.406
			c-0.508-0.843-2.769,0.191-2.808-1.203c-0.025-0.921,0.573,0.063,1.404-0.802c0.407-0.425,1.243-3.323,0.401-4.211
			c-0.836-0.882-4.638,1.215-5.615-1.404c-0.742-1.989,1.243-4.956,3.409-5.013c0.014,0,2.374,1.346,2.808,1.203
			c1.516-0.498,0.61-3.766,0.2-4.011c-0.725-0.432-2.073,0.034-2.206,0c-3.562-0.915-3.007-8.881,1.604-8.021
			c1.223,0.229,3.397,2.714,4.011,0.401c0.024-0.092-0.877-4.466-1.203-4.813c-0.669-0.711-2.818-0.55-3.208-0.802
			c-1.722-1.11-2.761-5.956,0-6.818c0.946-0.295,2.082,0.625,2.607,0c0.383-0.457-0.534-1.464-0.401-2.607
			c0.126-1.08,1.689-3.179,3.209-3.61c0.786-0.223,1.866,0.469,2.807,0.201c0.063-0.018,3.756-2.668,4.011-3.008
			c0.104-0.138,0.634-1.852,0.602-2.005c-0.286-1.37-4.756-2.709-2.206-5.414c1.021-1.083,3.241-0.049,4.612-0.602
			c2.755-1.111,3.002-6.22,5.013-8.423c0.449-0.492,1.854-0.801,1.805-1.805c-0.024-0.496-2.581-1.572-2.406-2.406
			c0.402-1.925,5.021,0.431,6.417-0.401c0.775-0.462,0.654-1.483,1.203-2.206c0.452-0.593,3.522-3.175,4.612-3.409
			c1.94-0.416,4.31,1.123,5.415-0.602l0.602,0.802l0.802,0.602c-1.541,1.458,0.045,2.765-0.201,5.214
			c1.62-0.386,10.998-4.804,6.618-6.217l0.602-0.802v-1.003c2.187,0.479,3.213,2.046,6.016,1.404l-0.1,0.969l0.501,0.835
			c-2.525,1.367,1.434,2.838,1.203,5.013c1.54-0.666,2.404-2.007,4.412-2.206l0.869-0.268l0.535-0.735
			c1.348,0.81,1.835,2.001,2.607,2.407c1.692,0.89,3.074,0.45,4.412,1.203c2.345,1.321,4.137,4.459,4.813,7.62
			c0.197,0.924-0.145,2.102,0.201,3.209c0.571,1.832,2.422,2.908,3.208,4.412c1.229,2.351,1.317,4.226,1.805,7.62
			c0.354,2.459,1.384,4.491,1.604,7.019c0.104,1.188-0.363,2.568-0.201,4.01c0.211,1.879,2.016,3.498,2.406,5.415
			c0.237,1.164,0.168,2.916,0,4.211c-0.096,0.741-0.688,1.605-0.602,2.406c0.143,1.317,0.765,1.036,1.203,2.005
			c0.292,0.645,1.145,3.122,1.404,4.813c0.102,0.665-0.126,1.597,0.201,2.406c0.098,0.243,0.521,1.443,1.203,1.203
			c0.015-0.005,1.699-4.427,2.005-5.214c1.5-3.857,1.354-7.723,2.808-11.631c0.364-0.98,1.019-1.75,1.404-2.808
			c1.258-3.46,2.621-8.294,4.211-11.631L137.099,144.671z M71.925,118c1.518,0.114,1.893-0.915,2.808-1.403
			C73.544,116.283,71.821,116.434,71.925,118z M72.527,122.01c-0.003,0.027-1.382,1.562-1.604,1.604
			c-0.288,0.055-0.784-0.594-1.003-0.401c-1.153,1.015-0.597,2.645,1.203,2.607c0.351-0.007,3.515-1.65,3.81-2.005
			c1.219-1.467-0.638-6.02-3.208-4.011C70.751,120.566,72.583,121.461,72.527,122.01z M63.704,126.222
			c1.479,1.949,4.773-2.503,2.406-2.808C65.4,123.323,62.819,125.056,63.704,126.222z M98.597,127.224
			c-0.952-0.407-0.43-1.358-0.802-1.805c-0.042-0.05-3.591-2.049-3.81-1.805c-0.81,0.903-2.028,1.96-3.409,2.206
			c-0.903,0.161-2.653-0.545-3.409-0.201c-0.427,0.194-0.609,1.687-1.203,2.406c-0.601,0.728-2.1,1.806-3.208,2.407
			c-2.141,1.159-5.041,1.47-6.016,3.81c-0.43,1.031-0.036,2.994-0.602,4.612c-0.343,0.981-1.387,1.972-1.404,2.607
			c-0.048,1.735,1.728,2.433,1.404,4.612c-0.108,0.727-0.544,2.072-1.003,2.808c-0.467,0.749-1.4,0.923-1.604,2.005
			c-0.234,1.243,0.772,2.762,0.401,4.211c-0.292,1.143-2.049,1.591-2.406,3.008c-0.321,1.27,1.125,3.513,1.203,5.615
			c0.06,1.62-0.442,3.244-0.401,4.813c0.046,1.761,0.589,3.185,0.401,4.412c-0.203,1.324-0.873,1.542-0.802,2.406
			c0.069,0.844,1.234,1.646,1.604,3.008c0.352,1.295-0.216,2.914,0,4.211c0.061,0.364,1.209,2.846,1.403,3.008
			c0.96,0.801,4.957,0.529,8.021,0.602c5.894,0.14,12.5-0.721,19.251-1.203c1.863-0.133,3.681-0.456,5.214-0.802
			c1.717-0.388,2.886-1.382,4.211-1.805c1.096-0.35,8.423-1.356,8.021-3.409c-0.219-1.121-3.512-0.976-2.807-3.81
			c0.26-1.047,1.732-1.216,2.005-2.005c0.392-1.133,0.109-3.314-0.201-3.811c-0.576-0.922-2.102-0.198-2.406-1.805
			c-0.266-1.402,1.436-2.697,1.604-4.011c0.07-0.545-0.439-2.057-0.602-3.008c-0.121-0.708-0.004-2.672-0.401-3.208
			c-0.425-0.574-2.831-0.394-3.208-1.604c-0.472-1.513,1.417-2.839,1.604-4.211c0.14-1.028-0.374-4.507-1.002-5.615
			c-0.306-0.54-1.236-0.837-1.604-1.404c-0.356-0.546-0.717-1.199-0.802-2.005c-0.156-1.476,0.887-3.475,0.201-4.612
			c-0.604-1.001-1.669-0.312-2.607-0.802c-1.698-0.888-2.246-3.481-1.604-5.414c0.057-0.172,2.309-3.362,0.401-3.61
			c-0.657-0.085-0.455,0.968-1.404,1.003l-0.234-0.969l-0.769-0.635c0.388-1.058,0.558-2.244,0-2.808
			c-1.167-1.178-3.582,1.702-5.615,1.204c0,0.2,0,0.401,0,0.602h-1.002L98.597,127.224z M78.543,129.229
			c-0.03-0.572-3.021-2.346-3.61-2.406c-0.005,0,0.009,0.196,0,0.201C72.667,128.156,78.724,132.694,78.543,129.229z
			 M65.308,128.628c-0.763-1.45-3.783,0.346-2.406,2.607C63.905,131.205,65.717,129.407,65.308,128.628z M72.928,130.232
			C72.62,127.438,69.374,130.684,72.928,130.232L72.928,130.232z M72.728,133.441c-0.006-0.076-2.459-1.876-2.808-2.005
			c-0.342-0.127-0.669,0.103-0.802,0.201C67.015,133.19,72.988,136.547,72.728,133.441z M58.69,139.256
			c1.024-0.178,1.74-4.281-0.201-3.208C58.019,136.308,57.024,139.546,58.69,139.256z M52.674,147.479
			c1.761-0.564,4.532-1.213,4.612-2.607c0.079-1.375-2.22-1.441-2.206-3.209c-0.012-0.122-0.03-0.237-0.201-0.2
			C53.183,142.658,51.93,144.375,52.674,147.479z M68.115,145.673c-0.076,1.025,1.541,1.029,2.005,1.404
			c0.722,0.583,1.238,2.032,2.206,1.805c1.704-0.4,1.549-5.469-0.2-5.415C71.531,143.486,68.14,145.335,68.115,145.673z
			 M49.064,144.47C44.779,145.09,49.759,150.784,49.064,144.47L49.064,144.47z M61.698,146.275c0.919-0.373,0.207-2-0.802-1.604
			C59.611,145.174,61.064,146.532,61.698,146.275z M60.495,151.289c1.06-0.776-0.703-3.366-1.604-3.008
			C56.826,149.1,59.515,152.006,60.495,151.289z M69.92,151.088c-0.201-1.443-1.026-2.679-2.206-2.607
			c-1.093,0.066-3.248,3.26-1.403,3.208l-0.346,0.858l0.747,0.546c-0.686,0.99,2.172,3.372,3.208,3.208
			c0.918-0.145,2.741-3.163,0.802-3.81l0.1-0.988L69.92,151.088z M55.481,154.497c5.826-0.709-4.401-6.644-3.81-2.406
			c0.1,0.717,0.844,0.648,1.404,1.604l-0.802,0.602v1.003c-2.337-0.103-0.399,2.637-0.602,4.011
			c2.287,0.368,4.565-1.025,3.008-3.209l0.802-0.602V154.497z M44.251,153.695c0.815,0.284,2.046-0.451,2.005-1.404
			c-0.045-1.053-2.382-1.569-2.607-1.404C43.125,151.274,43.436,153.411,44.251,153.695z M59.292,155.299
			c0.053,0.108,1.803,0.803,1.805,0.802c0.978-0.402,1.094-3.971-0.802-3.208C59.695,153.134,58.841,154.374,59.292,155.299z
			 M64.305,158.508c0.916,3.229,4.599,3.69,6.417,6.016C70.317,160.912,68.515,157.648,64.305,158.508z M59.292,158.909
			c-0.171-0.39-1.512-0.641-1.805-0.2C56.606,160.034,60.2,160.972,59.292,158.909z M57.688,164.925
			c1.678-2.967-4.604-3.992-3.811-0.602l-0.748,0.547l-0.655,0.656c-1.241,0.104-0.9-1.373-1.404-2.005
			c-1.127,0.878-2.383,1.628-2.808,3.208c2.312-1.562,5.294,2.922,7.821,2.607c0.376-0.047,4.747-2.525,2.005-2.607l0.1-0.969
			L57.688,164.925z M42.447,166.329c1.696-0.03,1.293-4.904-0.602-3.409C41.062,163.537,41.425,166.347,42.447,166.329z
			 M68.917,169.136c1.678-0.786-0.756-4.753-1.805-4.612c-0.439,0.059-4.373,6.479-0.2,5.214l-0.101,0.953l0.702,0.651
			c0.494,0.977,1.322,1.62,2.406,2.005c0.562-0.521,0.646-2.548-0.201-2.807l0.101-0.989L68.917,169.136z M52.072,169.738
			c-0.303-0.522-5.321-1.148-3.609,1.002C49.41,170.685,53.282,171.82,52.072,169.738z M59.492,171.743
			C55.833,171.157,59.473,174.531,59.492,171.743L59.492,171.743z M62.3,177.158c0.625-1.084,0.365-3.732-0.201-5.214
			C60.638,172.987,60.452,176.359,62.3,177.158z M51.471,175.152c0.736-1.328-2.122-1.849-2.406-1.805
			C44.536,174.049,50.672,176.592,51.471,175.152z M59.091,184.176c1.593-0.898-1.044-2.25-1.204-3.208
			c-0.221-1.331,1.512-2.209,1.404-3.208c-0.162-1.49-3.604-1.202-5.615-1.204c-1.515-0.001,0.308,2.302,0.401,2.808
			c0.227,1.236-0.201,1.636-0.201,3.008C55.897,181.777,57.603,185.015,59.091,184.176z M66.912,180.166
			c0.341,0.374,1.597-0.049,2.005,0c1.217,0.146,1.66,1.138,2.206,0.201c0.185-0.317-0.298-2.005-0.602-2.407
			c-0.418-0.553-1.075-0.612-1.604-0.602C67.13,177.396,65.897,179.053,66.912,180.166z M46.658,179.965
			c0.188,0.781,5.335,2.072,5.214,0.401c-0.124-1.712-2-1.96-3.209-1.805C47.84,178.667,46.259,178.31,46.658,179.965z
			 M63.704,185.179c0.181-0.503-0.123-2.641-0.401-2.807c-1.195-0.714-2.594,3.458-2.406,4.211
			C61.709,186.393,63.34,186.186,63.704,185.179z M54.278,186.783c-0.384,0.272-1.697,0.225-1.805,0.802
			c-0.195,1.042,1.833,1.148,3.008,0.602c1.971-0.917,1.441-3.036-0.201-2.607C54.38,185.815,54.854,186.375,54.278,186.783z
			 M56.284,192.398c0.242-0.093,1.207-1.892,0.802-2.607c-0.049-0.087-0.666,0.007-0.802,0
			C53.761,189.658,54.56,193.063,56.284,192.398z"/>
		<path fill-rule="evenodd" d="M87.768,213.254l0.602,0.802c-4.334,4.519-12.414,5.768-18.449,9.425
			c-1.194,0.724-2.778,2.292-3.609,2.406c0.074-0.01-2.78-0.75-2.808-0.802c-0.907-1.729,1.324-2.319,2.808-2.808
			c1.881-0.619,2.958-1.523,3.609-1.805c0.787-0.341,1.843-0.271,2.607-0.602c4.858-2.104,10.063-5.818,15.241-7.621V213.254z"/>
		<path fill-rule="evenodd" d="M700,95.139c2.029,0.084,2.277,0.744,2.808,2.808c0.331,1.286,1.375,3.14,1.805,4.813
			c0.257,0.998,0.09,2.15,0.401,3.409c0.888,3.583,1.723,4.425-3.008,5.014c-1.709,0.212-3.509,0.26-5.415,0.401
			c-1.922,0.142-4.464,0.439-6.016,0.401c-0.658-0.017-2.588-0.25-3.609-0.602c-0.063-0.022-3.675-1.742-3.811-2.005
			c-0.63-1.22,0.542-4.023,0.401-6.016c-0.104-1.453-0.431-2.537-0.803-4.011c-0.391-1.549-1.169-3.084,1.003-3.61
			c0.646-0.156,1.519,0.152,2.406,0.201C690.771,96.193,695.34,94.946,700,95.139z M701.404,107.772
			c0.178-0.258-0.09-2.473-0.201-3.008c-0.396-1.909-1.313-6.085-2.606-6.618c-1.95-0.804-5.093,0.401-6.818,0.602
			c-1.973,0.229-3.391,0.079-5.014,0.401c-0.088,2.179,0.717,3.257,0.803,5.615c0.048,1.332-1.61,4.662,0.602,4.211
			c1.53-0.312,1.122-0.343,1.002-1.002c-0.289-1.592,0.998-1.57,1.204-2.607c0.479-2.417-1.562-1.405-1.806-2.808
			c-0.438-2.52,6.691-4.139,8.423-2.206c0.779,0.871-0.476,2.708-0.602,3.409c-0.426,2.36,1.966,1.082,1.805,3.008
			c-0.075,0.893-0.911,0.258-1.003,1.403C698.258,108.218,700.869,108.548,701.404,107.772z"/>
		<path fill-rule="evenodd" d="M683.957,64.658c8.701-0.077,20.135,1.479,26.271,5.214c3.785,2.304,7.155,7.913,8.423,13.035
			c0.55,2.224,0.701,4.95,1.203,7.62c1.386,7.384,1.438,16.897,2.205,25.668c0.545,6.219,0.969,12.701,1.203,19.051
			c0.061,1.626-0.395,3.45-0.4,5.014c-0.016,4.034,0.859,7.938,1.003,11.631c0.416,10.713,0.33,21.888,0.802,33.69
			c0.236,5.925,1.02,14.388-0.802,19.853c0.002-0.008-0.166,0.341-0.201,0.401c-2.401,4.18-6.08,8.979-10.428,11.029
			c-3.911,1.845-9.443,2.483-14.438,3.409c-7.64,1.417-15.796,1.416-24.265,1.805c-5.143,0.236-9.81,1.696-15.24,2.206
			c-5.688,0.535-11.681,1.522-18.249,1.604c-6.716,0.084-12.85-0.999-15.04-5.414c-0.839-1.691-1.195-4.353-1.403-7.019
			c-0.203-2.582-0.663-5.476-0.603-7.821c0.032-1.232,0.642-2.583,0.603-3.81c-0.041-1.251-0.705-2.658-0.803-4.211
			c-0.154-2.446,0.107-5.304-0.2-7.821c-0.387-3.157-1.623-6.253-2.006-9.024c-0.457-3.311-0.216-6.447-0.802-9.425
			c-0.611-3.104-1.06-5.985-1.404-8.823c-0.893-7.36-2.242-15.216-3.008-23.864c-0.925-10.46-0.631-21.583-1.403-34.492
			c-0.271-4.519-0.544-9.154-0.401-13.436c0.388-11.656,5.611-18.424,13.837-21.457c9.334-3.442,21.451-3.381,32.486-3.811
			c3.636-0.141,7.496-0.602,11.431-0.602C676.229,64.858,680.191,64.691,683.957,64.658z M717.446,106.369
			c-0.146-2.245-0.326-4.543-0.4-6.818c-0.148-4.545-0.438-10.323-1.604-14.438c-0.235-0.828-0.976-1.47-1.203-2.406
			c-0.188-0.775,0.035-1.774-0.201-2.607c-0.824-2.914-3.384-6.422-5.614-7.821c-1.396-0.875-3.396-1.256-5.214-2.005
			c-1.958-0.807-3.681-1.301-5.815-1.604c-4.376-0.621-9.208-0.343-13.837-1.002c-1.021-0.146-1.382-0.416-2.206-0.201
			c-4.797,1.252-16.011,0.231-21.858,0.201c-2.48-0.013-4.774,0.754-7.019,1.002c-8.469,0.937-18.395,0.808-24.466,3.61
			c-8.262,3.814-11.046,14.107-10.428,25.668c0.828,15.479,0.79,31.738,2.006,47.125c0.407,5.163,1.678,10.205,2.206,15.241
			c0.544,5.195,2.075,10.097,2.406,15.04c0.083,1.248-0.136,3.112,0,4.211c0.36,2.933,1.782,6.254,2.206,9.826
			c0.146,1.235-0.167,2.396,0,3.609c0.26,1.9,1.147,3.747,1.403,5.615c0.384,2.796-0.379,4.895-0.401,7.019
			c-0.024,2.335,0.342,5.891,0.602,8.824c0.219,2.464,1.188,6.25,2.407,7.019c1.374,0.867,6.936,0.969,10.428,0.802
			c4.04-0.192,7.834-0.159,11.029-0.401c6.875-0.522,13.832-2.208,19.853-2.808c7.338-0.731,12.773-0.43,19.854-1.003
			c2.959-0.239,6.145-1.295,9.625-2.005c3.53-0.72,7.15-1.194,9.426-2.206c3.641-1.62,7.56-5.788,8.823-9.626
			c2.636-8.007,0.79-19.578,0.401-29.479c-2.158,2.711,0.386,14.005-3.409,14.238c-1.555,0.095-2.653-1.628-2.808-2.607
			c-0.311-1.958,0.932-6.508,1.203-9.827c0.895-10.958-0.148-20.067-1.003-30.882c-0.442-5.599-1.352-13.49-2.005-20.655
			c-0.18-1.97-0.69-6.272-1.203-6.618c-0.084-0.057-3.267,0.002-4.813,0c-9.533-0.014-18.364-0.942-25.468-0.802
			c-9.377,0.185-19.215-0.651-27.072-0.401c-7.439,0.237-14.401-0.645-21.257,0.401c-0.073,0.011-4.326,0.432-4.612,0.802
			c-0.51,0.66,0.675,4.2,0.803,5.415c0.558,5.297,0.538,11.001,0.802,16.042c0.604,11.54,0.054,23.404,1.604,35.495
			c1.004,7.827,0.907,16.496,2.808,23.463c10.275-2.792,21.072-2.664,32.687-4.011c13.565-1.574,27.612-2.164,40.709-3.208
			c2.484-0.198,10.596-1.387,10.228,1.403c-0.282,2.141-4.925,1.641-7.019,1.805c-2.631,0.206-7.09,0.63-10.629,0.802
			c-9.984,0.483-23.516,1.01-34.492,2.206c-5.725,0.624-10.322,0.688-16.042,1.203c-2.949,0.266-14.095,2.668-14.64,3.409
			c-0.671,0.915,0.788,3.023-0.802,3.61c-0.876,0.323-2.85-0.952-3.409-1.805c-0.78-1.189-0.642-3.334-1.003-5.214
			c-1.292-6.729-1.723-12.873-2.206-20.655c-0.299-4.823-1.492-9.694-1.604-14.639c-0.187-8.278,0.004-16.463-0.201-24.666
			c-0.128-5.126-0.291-10.308-0.602-15.04c-0.211-3.219-1.542-6.501-2.005-10.026c-0.574-4.371-0.53-9.35-0.602-13.837
			c-0.036-2.249-1.067-5.717-0.401-7.821c0.665-2.104,3.477-1.718,5.615-1.604c8.636,0.459,17.082,0.032,24.465-0.201
			c13.49-0.424,26.473,0.104,39.305,0.201c3.31,0.025,6.621,0.498,10.027,0.602c1,0.03,2.778-0.403,4.011-0.401
			c2.011,0.003,7.314,0.303,8.021,1.002c0.936,0.925,0.947,5.629,1.003,8.222c0.337,15.581,3.522,31.142,4.412,48.128
			c0.159,3.034-0.822,6.253,1.203,7.219C719.114,139.569,718.475,122.054,717.446,106.369z M704.412,94.336
			c-6.462-0.18-12.786-0.78-16.845-0.802c-9.379-0.052-18.593-0.802-27.474-0.802c-2.235,0-6.106-0.089-7.42,0.401
			c-2.763,1.032-6.182,0.101-10.228,0.201c-3.07,0.076-6.238,0.729-7.82,0.602c-1.405-0.113-8.369-0.949-9.225,0
			c-0.811,0.899,0.169,3.89,0.2,5.013c0.114,4.092,0.128,9.371,0.602,13.035c0.528,4.083,1.3,3.197,4.813,2.807
			c8.714-0.967,22.818-0.004,30.08-0.2c4.933-0.134,9.874,0.78,14.438,0.802c1.224,0.006,2.403-0.401,3.609-0.401
			c5.431,0,11.038,0.529,15.04,0.401c1.336-0.042,3.275-0.609,4.211-0.602c0.926,0.007,1.842,0.546,2.808,0.602
			c1.678,0.097,3.304-0.437,4.612-0.401c0.891,0.024,4.05,1.296,4.612,0.802c0.381-0.334,0.151-3.192,0-4.612
			c-0.56-5.259-0.927-11.092-1.002-16.845C708.018,94.785,706.497,94.395,704.412,94.336z"/>
		<g>
			<path fill-rule="evenodd" fill="none" stroke="#000000" stroke-width="2.1004" stroke-linecap="round" d="M560.93,69.949
				c-1.888,0.28-3.849,0.372-5.716-0.078"/>
			<path fill-rule="evenodd" fill="none" stroke="#000000" stroke-width="1.9331" stroke-linecap="round" d="M544.887,118.3
				c2.21,0.123,4.43,0.088,6.643,0.226"/>
			<path fill-rule="evenodd" fill="none" stroke="#000000" stroke-width="1.9248" stroke-linecap="round" d="M582.787,159.439
				c1.209-0.619,2.611-0.633,3.911-0.931"/>
			<path fill-rule="evenodd" fill="none" stroke="#000000" stroke-width="1.8776" stroke-linecap="round" d="M95.588,176.155
				c-1.816-0.25-3.469-1.411-4.545-2.875"/>
			<path fill-rule="evenodd" fill="none" stroke="#000000" stroke-width="1.8533" stroke-linecap="round" d="M262.634,306.502
				c-1.925-0.625-3.938-0.994-5.815-1.805"/>
			<path fill-rule="evenodd" fill="none" stroke="#000000" stroke-width="1.9669" stroke-linecap="round" d="M223.429,291.028
				c-39.203-12.533-77.579-27.886-115.221-44.557"/>
			<path fill-rule="evenodd" fill="none" stroke="#000000" stroke-width="1.6992" stroke-linecap="round" d="M104.627,244.809
				c-12.047-6.227-24.806-10.687-37.128-16.186"/>
			<path fill-rule="evenodd" fill="none" stroke="#000000" stroke-width="1.8838" stroke-linecap="round" d="M210.896,301.289
				c-7.15-3.301-14.693-5.442-22.259-7.42"/>
			<path fill-rule="evenodd" fill="none" stroke="#000000" stroke-width="1.8053" stroke-linecap="round" d="M78.443,246.108
				c-2.674-1.472-5.804-1.518-8.623-2.718"/>
			<path fill-rule="evenodd" fill="none" stroke="#000000" stroke-width="1.9363" stroke-linecap="round" d="M324.198,310.713
				c2.025-1.594,4.635-3.018,6.54-5.029c6.623-7,15.494-9.814,23.639-15.032c4.062-2.603,7.997-5.223,11.985-7.983
				c0.021-0.015,0.05-0.022,0.074-0.034c8.797-4.463,16.628-11.022,25.257-16.033c2.74-1.591,5.368-3.355,8.011-5.076
				c6.498-4.229,13.012-7.395,19.749-11.172"/>
			<path fill-rule="evenodd" fill="none" stroke="#000000" stroke-width="1.9656" stroke-linecap="round" d="M308.743,188.717
				c-3.369-1.351-6.972-1.894-10.213-3.538"/>
			<path fill-rule="evenodd" fill="none" stroke="#000000" stroke-width="1.9593" stroke-linecap="round" d="M284.309,179.312
				c-4.356-1.624-8.709-3.259-13.052-4.961"/>
			<path fill-rule="evenodd" fill="none" stroke="#000000" stroke-width="1.5483" stroke-linecap="round" d="M220.395,156.28
				c3.622,1.445,7.167,1.959,11.799,3.456c3.701,1.195,10.291,2.235,12.353,3.623"/>
			<path fill-rule="evenodd" fill="none" stroke="#000000" stroke-width="1.5647" stroke-linecap="round" d="M239.812,63.092
				c4.845-3.384,11.26-5.851,17.007-3.046"/>
			<path fill-rule="evenodd" fill="none" stroke="#000000" stroke-width="1.5486" stroke-linecap="round" d="M314.338,169.236
				c-1.976-0.22-3.097-2.19-4.617-3.27"/>
			<path fill-rule="evenodd" fill="none" stroke="#000000" stroke-width="1.8524" stroke-linecap="round" d="M307.152,165.326
				c-2.92-1.63-4.913-5.007-5.815-8.222"/>
			<path fill-rule="evenodd" fill="none" stroke="#000000" stroke-width="1.9078" stroke-linecap="round" d="M322.995,194.203
				c22.585,8.801,45.14,17.646,67.566,27"/>
			<path fill-rule="evenodd" fill="none" stroke="#000000" stroke-width="1.9743" stroke-linecap="round" d="M518.917,33.173
				c6.669-0.141,13.476,0.005,20.154-0.635"/>
			<path fill-rule="evenodd" fill="none" stroke="#000000" stroke-width="2.0084" stroke-linecap="round" d="M563.837,33.173
				c-3.235-0.083-6.643,0.068-9.927-0.078"/>
			<path fill-rule="evenodd" fill="none" stroke="#000000" stroke-width="1.8142" stroke-linecap="round" d="M507.486,33.976
				c-1.137-0.391-2.286,0.491-3.408,0"/>
			<path fill-rule="evenodd" fill="none" stroke="#000000" stroke-width="1.6617" stroke-linecap="round" d="M500.568,51.901
				c11.329,0.233,23.589,0.585,35.1,0.802c10.552,0.198,21.679,0.827,32.82,0.531c7.398-0.197,14.879-0.658,22.369-0.199
				c11.322,0.694,22.541-1.119,33.692-1.103c15.928,0.023,31.85,0.463,47.718,0.086c21.189-0.504,42.274,0.272,63.428,0.206"/>
			<path fill-rule="evenodd" fill="none" stroke="#000000" stroke-width="1.3729" stroke-linecap="round" d="M483.343,42.278
				c13.169-1.521,30.693-1.152,44.271-1.435c9.126-0.189,18.286-0.505,27.486-0.856c0.417-0.016,0.81,0.034,1.203,0
				c15.704-1.34,32.17,0.747,47.683,0.27c17.799-0.547,35.961,0.115,53.993-1.005c7.917-0.492,15.806-0.267,23.674-0.568
				c20.235-0.776,40.25-2.966,60.03-3.414c4.877-0.11,10.658-0.498,16.171-0.267"/>
			<path fill-rule="evenodd" fill="none" stroke="#000000" stroke-width="1.5316" stroke-linecap="round" d="M429.68,115.794
				c1.416-0.391,1.387-2.066,2.306-2.908"/>
			<path fill-rule="evenodd" fill="none" stroke="#000000" stroke-width="1.6407" stroke-linecap="round" d="M441.21,120.256
				c-1.008-0.746-1.248-2.138-2.268-2.896"/>
			<path fill-rule="evenodd" fill="none" stroke="#000000" stroke-width="1.5068" stroke-linecap="round" d="M441.21,120.256
				c0.947-0.163,1.197-1.203,2.023-1.536"/>
			<path fill-rule="evenodd" fill="none" stroke="#000000" stroke-width="1.6778" stroke-linecap="round" d="M441.21,120.256
				c0.306,2.358-1.933,5.325,0.702,6.968"/>
			<path fill-rule="evenodd" fill="none" stroke="#000000" stroke-width="1.8581" stroke-linecap="round" d="M330.286,138.87
				c-1.255-3.033-1.837-6.302-2.726-9.466"/>
			<path fill-rule="evenodd" fill="none" stroke="#000000" stroke-width="1.6508" stroke-linecap="round" d="M316.177,162.719
				c-1.159-0.338-1.889-1.52-3.108-1.771"/>
			<path fill-rule="evenodd" fill="none" stroke="#000000" stroke-width="1.9639" stroke-linecap="round" d="M432.086,281.235
				c7.903-0.202,15.807-1.22,23.663-2.406"/>
			<path fill-rule="evenodd" fill="none" stroke="#000000" stroke-width="1.7703" stroke-linecap="round" d="M87.768,213.254
				c11.743-5.19,23.432-10.59,34.854-16.482"/>
			<path fill-rule="evenodd" fill="none" stroke="#000000" stroke-width="1.5908" stroke-linecap="round" d="M64.205,193.125
				c-1.492,0.125-3.623,1.332-4.445-0.626"/>
			<path fill-rule="evenodd" fill="none" stroke="#000000" stroke-width="1.8851" stroke-linecap="round" d="M80.348,112.585
				c2.321-1.256,5.254-2.267,7.821-1.203"/>
			<path fill-rule="evenodd" fill="none" stroke="#000000" stroke-width="1.9279" stroke-linecap="round" d="M137.099,144.671
				c2.762-9.213,6.014-21.19,9.244-30.752c0.825-2.44,1.884-3.979,3.59-5.945"/>
			<path fill-rule="evenodd" fill="none" stroke="#000000" stroke-width="1.7266" stroke-linecap="round" d="M150.283,102.776
				c-0.179-1.142-0.236-2.348,0.252-3.426"/>
			<path fill-rule="evenodd" fill="none" stroke="#000000" stroke-width="1.6532" stroke-linecap="round" d="M152.541,90.727
				c0.23-1.429,0.504-2.844,1.041-4.173"/>
			<path fill-rule="evenodd" fill="none" stroke="#000000" stroke-width="1.5133" stroke-linecap="round" d="M165.16,87.619
				c-0.816,2.077-1.062,4.332-1.39,6.518"/>
			<path fill-rule="evenodd" fill="none" stroke="#000000" stroke-width="1.5648" stroke-linecap="round" d="M101.07,116.128
				c-1.64-2.215-4.418-2.996-6.985-3.375"/>
			<path fill-rule="evenodd" fill="none" stroke="#000000" stroke-width="1.6072" stroke-linecap="round" d="M106.584,128.06
				c-1.927,2.663-6.552,1.346-7.386-1.638"/>
			<path fill-rule="evenodd" fill="none" stroke="#000000" stroke-width="1.4006" stroke-linecap="round" d="M65.965,152.547
				c1.574-0.644,3.374-0.162,4.857-1.044"/>
			<path fill-rule="evenodd" fill="none" stroke="#000000" stroke-width="1.7253" stroke-linecap="round" d="M125.969,195.172
				c18.205-7.396,35.748-16.621,53.342-25.401"/>
			<path fill-rule="evenodd" fill="none" stroke="#000000" stroke-width="1.8356" stroke-linecap="round" d="M139.873,157.939
				c1.514,1.758,4.228,1.47,6.351,1.404"/>
			<path fill-rule="evenodd" fill="none" stroke="#000000" stroke-width="1.6862" stroke-linecap="round" d="M55.481,155.5
				c-1.143-0.251-2.357-0.23-3.208-1.203"/>
			<path fill-rule="evenodd" fill="none" stroke="#000000" stroke-width="1.7388" stroke-linecap="round" d="M58.188,165.76
				c-1.682,0.268-3.725,0.245-5.06-0.89"/>
			<path fill-rule="evenodd" fill="none" stroke="#000000" stroke-width="1.5035" stroke-linecap="round" d="M66.812,170.69
				c1.027-0.319,2.002-0.768,3.008-1.139"/>
			<path fill-rule="evenodd" fill="none" stroke="#000000" stroke-width="1.9797" stroke-linecap="round" d="M105.214,189.791
				c3.565-0.601,7.043-1.575,10.428-2.807"/>
		</g>
	</g>
</g>
</svg>
