<?xml version="1.0" encoding="utf-8"?>
<!-- Generator: Adobe Illustrator 15.1.0, SVG Export Plug-In . SVG Version: 6.00 Build 0)  -->
<svg version="1.2" baseProfile="tiny" id="Layer_1" xmlns="http://www.w3.org/2000/svg" xmlns:xlink="http://www.w3.org/1999/xlink"
	 x="0px" y="0px" width="1024px" height="581px" viewBox="0 0 1024 581" overflow="inherit" xml:space="preserve">
<g id="QbEvlP_1_">
	<g>
		<path fill-rule="evenodd" fill="#FFFFFF" d="M261,31.6c-0.4,2.3-3.1,1.1-4.3,1.3c-3.1,0.5-6.5,1.3-9.9,1.7
			c0.5,5.6,9.1,2.1,14.6,1.7c7.1-0.5,15.4-0.5,19.8,3c-2.4,1.2-8.5-1.8-9,2.1c-0.1,1.4,1.7,0.9,1.7,2.1c10.9-0.8,21.3,2,26.6,8.2
			c-1.2,0.8-6.1-2.2-6.4,1.3c3.2,4,10.2,4.1,13.7,7.7c-1.2,1.2-3.8-1.8-4.3,0.9c2,5.2,12.2,5.9,13.7,12.9c0.4,1.6-2.1,0.5-1.7,2.1
			c0.5,4,3.3,5.9,6,7.7c1.1,4.6,2.8,10.9,3,15c-10.1-5.6-26.9-6.9-35.6,0.4c-3.5,1.1-5.4-1.6-7.7-2.6c-0.7-0.3-1,0.6-1.7,0.4
			c-2.4-0.6-4.9-2.6-7.3-3c-8.7-1.5-19-0.2-26.6,0.9c-1.7,0.2-1.8,1.9-3.4,2.1c-17.4,0.9-32.7,4.3-48.9,5.2
			c-0.6-2.4,1.6-2.1,2.1-3.4c-4.6-4-0.2-11.6,0.9-16.3c0.3-2.2-1.6-2.1-1.7-3.9c1.8-5.6,3.7-9.2,3.9-15.9c1.5-1.2,3.2-2.3,4.3-3.9
			c0.6-2.3-1.6-1.8-1.3-3.9c1.6-1.7,1.7-4.9,3.9-6c-0.1,1.8-0.2,3.6,1.3,3.9c3.2-4.2,3.5-11.4,9.4-12.9c0.7-0.6,0.1-2.4,0.9-3
			c3.2-1.8,6.7-3.3,10.3-4.7c1.4,0.6,2.7,1.4,4.3,1.7c1-0.3,0.8-1.8,1.3-2.6C243.6,30.3,250.9,29.4,261,31.6z"/>
		<path fill-rule="evenodd" fill="#FFFFFF" d="M489,112.7c-4.7,0.2-9.5-1.6-13.7-0.4c-6.4-7.5-24.5-4.2-34.3-9.9
			c-3.1-1.8-6.7-4.8-6.4-10.3c15.4-2,24.8,7.8,36.5,9.4c1.1-5.5-4.3-4.8-7.3-6.9c-7.6-5.2-16-22.5-15.9-34.8c0-3.5,0.7-7.1,0.9-10.3
			c14.6,6,20.8,24.2,24.5,42.5c2.1-0.1,2.2,1.8,4.3,1.7c-1-16.5-14.3-35.1-4.7-54.5c14.1,8.3,13.1,30,10.3,49.4
			c0.9,1.4,2.2,2.4,4.3,2.6c1.6-17.6,2.7-39,9.4-52.8c0.4,0,0.9,0,1.3,0c3.9,3,6.8,6.9,9.9,10.7c4.2,12.3,2.2,27.5-4.3,36.5
			c-3.9,5.4-11.1,10.6-13.7,18c-0.7,2.1,0.1,3.8-1.3,5.2C488.8,110.1,489.7,112,489,112.7z"/>
		<path fill-rule="evenodd" d="M620.4,45.3c1.6-0.3,0.9,2.8-0.4,2.1C619.8,46.4,620.1,45.8,620.4,45.3z"/>
		<path fill-rule="evenodd" fill="#FFFFFF" d="M305.7,52.2c0.6-1.2,2.1,0.1,2.6,0.4C307.7,53.8,306.2,52.5,305.7,52.2z"/>
		<path fill-rule="evenodd" d="M931.7,65c-2.8,5.5-7.8,1.7-12.9,1.3c-22-1.6-44.9-2.7-67.4-3.9c-6.9-0.3-13.8,0.5-20.6,0
			c-6-0.4-12-1.7-18-2.1c-12.3-1-24.6-2.9-36.9-3.4c-25.3-1.2-50.7,0-76.9-1.3c-46.4-2.2-93.7,0.4-137-0.4c-3.3-0.1-6.6-0.2-9.9,0
			c-2.4,0.2-5.9,2.1-8.2-0.4c1.4-3.5,12.8-1.8,18.5-2.1c0.8,0,1.1,0,1.3,0c37,0,74.1,0.3,111.2,0c17.6-0.2,35.5,0.1,53.2,0.9
			c18.7,0.8,37.5-0.4,55.8,0.9c21.6,1.5,43.2,3.8,65.3,4.7c22.2,1,44.5,3.4,66.5,4.3C921,63.5,926.7,61.8,931.7,65z"/>
		<path fill-rule="evenodd" fill="#FFFFFF" d="M197.1,54.7c1.4,0.7-0.1,5.5-3,4.7C194.4,57.2,196,56.2,197.1,54.7z"/>
		<path fill-rule="evenodd" d="M556,63.3c15.3,3.8,34.8,1.3,52.8,3.4c30.4,3.7,59.8,3.3,88.9,4.7c14.8,0.7,29.9,0,45.5,0.4
			c25.6,0.7,55,1.9,83.3,3c21.9,0.8,43,2.4,65.3,1.7c7-0.2,13.8,0.5,20.6,0.4c4.2-0.1,8.4-1.7,10.3,0.9c1.1,1.5-1.2,13.7-2.1,18.9
			c-1.2,6.6-2.8,13.6-3,16.7c-0.6,9.1-1,14-2.1,21.9c-1.5,10.5-2.2,22.5-3.9,34.3c-1,7.2-0.6,14.7-1.7,22.3
			c-1.2,8-1.6,16.1-2.1,24.5c-1,15.4-3.7,30.2-5.6,45.1c-1.9,15-1.8,30.7-5.2,45.5c-2.5,1.2-3.8-1.9-5.2-2.1
			c-36.7,1.5-74.6,0.7-112.5,3.4c-20,1.4-43.5,0.9-66.1,0.9c-28,0-56.6-1.8-86.3-2.6c-29.5-0.7-60.9-4.8-88.9,0
			c-3.1-9.4-1.7-19.5-1.3-28.8c0.4-9.4,0.3-18.5,0.9-27.5c1.2-17.9,3.8-35.4,6-52.8c4.5-35.6,7.5-71.5,10.7-109.1
			c0.8-9.6,0.5-16.7,0.4-24.5C555,63.8,555.5,63.5,556,63.3z M875.9,80.5c-14.1,0.7-29.3-1.6-43.8-2.6c-29.9-2-60.2-1.8-90.2-3.4
			c-14.6-0.8-29.2,0.2-43.8-0.4c-14.9-0.6-29.9-1.1-44.7-1.7c-31.6-1.2-61.6-5.4-93.6-3.9c-0.4,23.2-4.4,44.7-4.7,66.1
			c-0.2,15.1-3.2,29.6-4.3,44.2c-1.1,14.4-3.4,28.5-4.7,42.9c-1.3,14.3-4.3,28.6-4.3,43.4c0,12.2,0.8,24.3,0,36.9
			c29.1-3.2,57.8,1.3,86.7,1.7c14.2,0.2,28.5,0.8,42.9,1.7c29.9,1.8,60.5,1,88.9,0.4c14.6-0.3,29.1-2,43.8-2.6
			c29.9-1.3,59.8,0.5,88.9-1.7c1.8-18,3.3-35.5,6-52c1.3-7.9,1.8-15.9,2.6-23.6c1.7-16.4,3.8-32.6,4.3-48.9c0.2-7.4,2-15.1,2.6-22.8
			c0.7-8.2,1.6-16.2,3-24c1.5-8.3,1.1-16.9,2.6-25.3c1.5-8.1,3.8-15.8,3.9-24C904.2,80.1,890.3,79.8,875.9,80.5z"/>
		<path fill-rule="evenodd" fill="#FFFFFF" d="M193.2,66.8c1.2,3.3-2.1,5.9-4.7,6.9C189.2,70.5,191.2,68.7,193.2,66.8z"/>
		<path fill-rule="evenodd" d="M927,72.3c0.9,1.3-1.3,3.3-3,3.4C924.3,74,926.8,74.3,927,72.3z"/>
		<path fill-rule="evenodd" d="M824.4,103.7c1.4,3.2-0.9,6.7-1.3,10.7c-1,9.5,0.6,21-1.3,29.6c-14,2.8-30.7-1-46.4-2.6
			c-7.1-0.7-13.8-0.3-20.2,0c-4.9,0.2-13.1-0.2-19.3,0.4c-2.5,0.3-8.1,2-8.2-1.7c0-3.4,10.3-2.9,12-3c25.9-1.8,50.6,4.5,76.4,4.7
			c4.4-9.8,1.2-23,3-34.3c-24-3.5-52-7.7-80.7-3.9c-2.6,10.1-3.2,22.3-5.6,32.6c-1.9,0.6-2.5,0-4.7,0c-0.6-3.8,2.5-7.5,1.7-12.9
			c-7.3,3-13.3,7.3-18.5,12.5c-6.2,2.2-10.1,8-15.5,11.6c-7.3,4.9-15.9,8-21.5,15c1.4,5.5,2.8,10.9,2.6,18c14.1,0.9,27.3,0.2,38.6,3
			c1.1-6.1,0.8-11.3,3-15.9c17.8,3.6,39.2,0.1,57.5,2.6c3.2,0.4,6.3,1.9,9.4,2.1c3.8,0.3,7.6-0.2,11.2,0c3.3,0.2,7.1,0.2,9.9,1.7
			c3.4,10.4,0.1,25.9-0.4,36.9c-15.7,1.4-33.6-0.6-50.7-1.7c-8-0.5-15.2-2.9-22.8-2.1c-4.1,0.4-8.9,1.1-13.3-0.9
			c-2.2,1.2-3.1,2-6.4,1.3c-0.5-5.6,1.6-12.4,2.1-18.5c-10.6-4-24.1-4.6-37.8-3.9c-3.6,10.2-7.7,19.8-15.5,25.8
			c9.9,12,21.8,22,33.5,32.2c0.8-1.1-0.8-4.5,1.7-5.6c3-0.6,2.7,2.1,4.7,2.6c27.9,0.9,52.1,1.6,77.3,3.4c5.1,0.4,10.5,2.3,16.7,0.9
			c3,3.6,2,11.6,1.7,17.2c-0.5,9.3,1.1,18.3-8.2,19.8c-8.3,1.3-18.4-0.6-27.9-0.9c-1.8,0-3.7,0.5-5.6,0.4
			c-10.7-0.2-21.6-1.9-31.8-2.1c-10.4-0.3-19.5,2.2-27.9,0.4c-2.1-9.5,2.2-18.1,0-27c-0.7-3-6.1-7.7-9-10.3
			c-9.9-9-20.3-19-29.2-27.5c-19.1,12.9-49.8,6.9-65.7-6c-5.3-4.3-9.1-6-11.6-12c-2.7-6.5-5-17.2-3.9-24c1.2-6.8,5.9-11.9,7.3-18
			c1-0.7,1.6-1.8,3-2.1c0.5-1.5,0.7-3.3,1.3-4.7c19.3-22.5,74.6-16.1,84.2,11.2c4.8-6.1,13.9-8.8,20.6-13.7
			c12-8.9,23.2-19.9,37.8-26.6c1-4.7,1.4-14.2,3.4-18c12,0.9,23.5-0.9,35.2-1.7C788.9,97.3,805.3,104.7,824.4,103.7z M580.9,179.7
			c1.4,16.5,10,25.3,21.9,31.3c14.6,7.4,34.9,9.7,50.7,1.3c8.3-4.4,16.9-15,18.5-25.3c0.3-1.8-0.6-3.1-0.4-4.3
			c0.2-1.1,1.2-1.8,1.3-3.4c0.6-14.3-6-26.1-14.6-32.6c-9.8-7.5-24-9.4-37.4-9.4c-11.8,0-23.1,3.7-30.1,12.5c-0.6,1.9-0.2,2.7,0,4.7
			c-1.3,0.3-2.3,0.9-3,1.7C585.6,163.5,580,169.6,580.9,179.7z M723,172c-3.2,9.6-3.7,21.5-4.3,32.2c26.7-3,56.6,6.4,83.3,3.4
			c0.6-11,2.8-21.2,0.4-30.9C775.4,173.7,749.8,172.9,723,172z M700.7,244.5c0.8,9.5,0.4,22.3,0.4,32.2c4.1-1.7,9.7-1.2,14.2-0.9
			c14.7,1,37.5,2,53.2,2.6c7,0.3,19.8,0.7,22.8-2.1c3.8-3.7,1.3-23.3,1.3-27.5C762.3,247,731.5,242.2,700.7,244.5z"/>
		<path fill-rule="evenodd" fill="#FFFFFF" d="M274.4,104.5c-0.7,5.9-3.5,15-8.2,17.6c-2.8,1.6-8.6,1.9-10.7,0.4
			c-4.1-2.8-2.7-11.1-3.4-18C259,101.4,267.3,104.1,274.4,104.5z M261.5,115.7c3.8,0.6,7.9-3.3,6.9-7.3c-0.3-0.1-0.8,0-0.9-0.4
			c-2.9,0.4-2.6,4-5.6,4.3c-1.5-0.2-0.6-2.8-0.9-4.3C253,106.5,258,115.2,261.5,115.7z"/>
		<path fill-rule="evenodd" fill="#FFFFFF" d="M317.7,105.4c-2.4,4.3-2.4,12.5-5.2,17.2c-0.7,1.2-5.2,5.7-7.3,5.6
			c-5.1-0.4-10.8-16.1-7.3-22.8C304.3,104,311.8,102.5,317.7,105.4z M305.7,113.1c-1.1-1.3-1.1-3.7-3.9-3.4
			c-2.2,2.4,0.4,5.8,2.1,6.9c5.3-0.2,10.2-2.9,8.2-9C307.4,106.9,310.5,114,305.7,113.1z"/>
		<path fill-rule="evenodd" d="M261,108c0.2,1.5-0.6,4.1,0.9,4.3c3-0.3,2.7-3.9,5.6-4.3c0,0.4,0.5,0.3,0.9,0.4c1,4-3.1,7.9-6.9,7.3
			C258,115.2,253,106.5,261,108z"/>
		<path fill-rule="evenodd" d="M312.1,107.6c2,6.1-2.9,8.8-8.2,9c-1.8-1.1-4.3-4.5-2.1-6.9c2.7-0.3,2.7,2.1,3.9,3.4
			C310.5,114,307.4,106.9,312.1,107.6z"/>
		<path fill-rule="evenodd" d="M880.6,113.1c0.2,1.7-1.5,1.7-2.1,2.6c-1.8,0-1.4-2-3-2.1c-6.2-0.7-10.7,4.6-17.2,4.3
			c-3.8-0.2-6.7-2.7-9.4-2.1c-3.3,0.7-4.7,4.5-8.2,4.3c-1.8-0.1-3.1-2.1-4.7-2.1c-0.8,1.5-0.4,4.2-3,3.9c-1.6-2.7-0.8-6.9,0-9.4
			c4.5-0.3,4.9,3.4,8.6,3.9c2.1-0.7,2.6-2.8,4.3-3.9c6-0.7,9.9,3.1,15.9,2.1C867.3,113.5,874.2,104.7,880.6,113.1z"/>
		<path fill-rule="evenodd" fill="#FFFFFF" d="M468.9,115.3c0.6,0,1.1,0,1.7,0c-0.2,3.6,0.1,5-0.9,7.7
			C469,120.8,468.9,118.1,468.9,115.3z"/>
		<path fill-rule="evenodd" fill="#FFFFFF" d="M475.7,116.1c0.9,2,2.3,6.3,0,7.7C472.4,123,474.2,117.9,475.7,116.1z"/>
		<path fill-rule="evenodd" fill="#FFFFFF" d="M479.6,116.1c1.9,1.1,3.8,6.1,1.3,7.7C479.7,123.1,481,117.9,479.6,116.1z"/>
		<path fill-rule="evenodd" fill="#FFFFFF" d="M483.9,117c0.6-1,3-0.2,4.3-0.4c0.6,2,0.4,4.8,0.9,6.9c-0.6,0.7-2.2,0.4-3.4,0.4
			C485.5,121.1,485.1,118.7,483.9,117z"/>
		<path fill-rule="evenodd" fill="#FFFFFF" d="M541,117c0.9-0.6,0.2,4,0.4,5.6C540.5,123.2,541.2,118.5,541,117z"/>
		<path fill-rule="evenodd" fill="#FFFFFF" d="M491.6,117c1.4,0,2.9,0,4.3,0c0,2.4,0,4.9,0,7.3c-0.6-0.6-1.9-0.4-3-0.4
			C492.2,121.9,491.9,119.4,491.6,117z"/>
		<path fill-rule="evenodd" d="M800.7,122.2c-2.7,2.2-5.7,0.5-9,0.9c-4,0.5-7.8,3-11.6,3.4c-5.4,0.7-11.5-1.9-17.6-1.7
			c-4.9,0.1-9.2,2.6-14.6,0.4c-1.4,2.4-1.3,8.3-5.6,6.4c0.2-2.7,0.1-8.7,3-10.3c2.2-1.2,7.5,1.1,11.2,0.9c5-0.3,9.6-1.2,15-0.4
			c2.5,0.3,4.8,1.4,7.3,1.3C785.3,122.7,793.5,116.6,800.7,122.2z"/>
		<path fill-rule="evenodd" fill="#FFFFFF" d="M540.6,124.3c1.2,2.6,0,6.6,0,9.4C539.7,130.5,540.4,127.6,540.6,124.3z"/>
		<path fill-rule="evenodd" fill="#FFFFFF" d="M495.9,126.9c-0.7,10-0.7,19.9-0.9,30.1c-0.2,11.7-1.8,21.7-2.6,35.2
			c-0.5,9.1-1.5,19.1-2.6,28.8c-1.1,9.7-3,19.8-6.9,25.8c-8.5,13.3-30.5,5.3-43.8,0.9c-7.7-2.6-16-3.7-24-5.6
			c-7.9-1.9-15.8-4.2-23.6-6c-16.4-3.8-29.5-9.6-48.1-12c-3.6-0.5-7.2-1.3-10.7-0.9c-0.2,2.5,1.9,5.6,6.4,4.7
			c-11.8,35.2-7.1,77.4-3,118.5c-6.4-0.5-10.9,4.3-15.9,5.2c-5.4,0.9-11.1,1.7-16.7,3c-5.6,1.3-11.3,2-16.3,3.4
			c-2,0.6-3.9,2.2-6,2.6c-10,1.9-19.1,0.4-29.2-0.9c-1.5,0.4-2.5,1.2-3.4,2.1c-4.9-1.9-10.4-0.9-15.9-2.1c-5.5-1.3-11.1-4.2-16.7-6
			c-6.1-1.9-12.6-2.1-17.6-6c-1.8-0.6-3.4,1.1-3.9,0.4c-0.8-12.6-0.9-25.5-2.6-38.6c-1.4-10.8-2.2-22.1-3.9-32.2
			c-0.6-3.8-1.9-7.3-2.1-11.2c-1-14.7-4-27.6-11.2-36.5c-4.9,4-4,12.1-4.7,18.5c-0.8,7.3-1.8,15.4-1.3,22.8c0.5,7.7,1.9,15,1.7,22.3
			c-0.3,10.5-1.2,20.7-1.3,30.5c-0.2,22.7,5,44,3.4,67.4c-6.4,1.7-14.7,2.1-20.2,0.9c-0.6-16.4-1.2-32.7-0.4-50.7
			c1.5-33.2-3.1-67.9-0.9-99.2c0.3-3.6-0.4-7.5,0-11.2c0.9-7.5,3.6-15.8,7.3-21.5c23.1-7.1,52.8-11,77.3-12c2,2.7,2.6,6.8,4.3,9.9
			c16.8,4.6,33-2,39.9-12.5c16.4-3.5,34.1,0.7,51.1,3c3.9,0.5,7.8,0.2,11.6,0.9c9.5,1.6,21,6.3,30.9,8.2c7.5,1.4,14.8,2.7,22.3,4.3
			c15.1,3.2,26.3,8.4,42.5,12.5c5.8,1.5,18.5,6.7,21,4.7c2.8-2.2,3.3-23.2,3.9-28.3c2.3-21.2,4.5-42.2,5.6-60.1
			c0.2-3.8-0.3-8.2,0.4-12c0-0.4,0-0.9,0-1.3C477,127.1,487.6,127.2,495.9,126.9z"/>
		<path fill-rule="evenodd" d="M285.9,126.9c3.1,4.3,3.9,11,8.2,14.2c-0.2,2.3-1.2,3.7-2.1,5.2c-4.8,0.4-13.1,1-15-3
			c3.4-2.4,8.7,1.8,12.9,0c-1.2-5.1-6.1-8.8-4.7-15C284.9,127.2,285.9,127.6,285.9,126.9z"/>
		<path fill-rule="evenodd" d="M861.3,132.9c-1.8,7-10.6,1.8-17.6,2.6c-4.2,0.4-9.5,2.5-13.3,0c-0.6-4.7,7.5-3,11.6-3.4
			c4.8-0.5,9.8,0.1,11.6,1.3C856.4,133.4,859.3,129.8,861.3,132.9z"/>
		<path fill-rule="evenodd" fill="#FFFFFF" d="M539.7,136.3c1.4,0.8,0.3,3.6,0,5.2C538.7,140.5,539.3,137.4,539.7,136.3z"/>
		<path fill-rule="evenodd" fill="#FFFFFF" d="M587.8,156.1c0.7-0.9,1.7-1.4,3-1.7c-0.2-2-0.6-2.9,0-4.7
			c6.9-8.8,18.2-12.5,30.1-12.5c13.3,0,27.6,2,37.4,9.4c8.6,6.6,15.2,18.4,14.6,32.6c-0.1,1.6-1.1,2.3-1.3,3.4
			c-0.2,1.2,0.7,2.5,0.4,4.3c-1.6,10.3-10.2,20.9-18.5,25.3c-15.8,8.4-36.1,6.1-50.7-1.3c-11.9-6-20.5-14.8-21.9-31.3
			C580,169.6,585.6,163.5,587.8,156.1z"/>
		<path fill-rule="evenodd" d="M285.5,156.5c-0.9,4.6-7.4,5-11.2,5.2c-7.7,0.3-16-5.7-16.7-11.2c-0.1-1.2,1.1-1.2,2.1-1.3
			c3.2,2.8,5.3,7.1,9.9,8.6C275.7,159.7,280.5,155.5,285.5,156.5z"/>
		<path fill-rule="evenodd" fill="#FFFFFF" d="M802.5,176.7c2.4,9.7,0.2,19.9-0.4,30.9c-26.7,3-56.6-6.4-83.3-3.4
			c0.6-10.7,1.1-22.6,4.3-32.2C749.8,172.9,775.4,173.7,802.5,176.7z M762.1,187c-1.6,0.2-3.1,1.5-4.7,1.7
			c-3.5,0.4-7.1-1.4-10.7-1.7c-4.8-0.4-6.8,2-10.3,2.1c-2.3,0.1-6.3-2.7-9-0.4c-0.4,2.7-1.6,4.7,0,6.9c2.8,0.4,2.1-2.7,3.4-3.9
			c5.1,3.3,9-1.6,13.7-1.7c4.1-0.1,8.5,2.4,12.9,2.1c2.4-0.1,4.7-1.7,6.9-1.7c1.9,0,4.7,1.1,6.9,1.7c1.4,0.4,5.2,3.3,6-0.4
			C773,189.3,767.7,186.3,762.1,187z"/>
		<path fill-rule="evenodd" fill="#FFFFFF" d="M535.4,172.4c1,2.3-0.6,5.7,0,9C534.1,179.7,535.2,175.1,535.4,172.4z"/>
		<path fill-rule="evenodd" fill="#FFFFFF" d="M249.5,173.7c4.7,1.1,9.9,1.5,15,2.1c0.2,6.2,1.3,9.7,0,16.7
			c-2.5,3.6-10.4,3-13.7,3.4C249.8,190.7,251.2,179.6,249.5,173.7z"/>
		<path fill-rule="evenodd" d="M860.4,176.7c-0.8,1.8-3.5,5.2-6.4,5.6c-3.9,0.6-10.2-3.8-15.5-3c-3.4,0.5-5.5,4.3-7.7,4.3
			c-2.9,0-6.4-4.1-9-2.6c-0.9,1.5,2.1,6-1.7,6c-2.4-1.1-2.1-5-2.1-8.6c4.2-4,8.9,0.8,13.3,1.7c4.5-7.1,14.3-1.6,22.3-1.3
			C855.5,177.8,857.9,173.3,860.4,176.7z"/>
		<path fill-rule="evenodd" d="M777.1,191.7c-0.8,3.7-4.6,0.8-6,0.4c-2.1-0.6-5-1.7-6.9-1.7c-2.2,0-4.5,1.6-6.9,1.7
			c-4.3,0.2-8.8-2.2-12.9-2.1c-4.7,0.1-8.6,5-13.7,1.7c-1.3,1.1-0.6,4.2-3.4,3.9c-1.6-2.1-0.4-4.2,0-6.9c2.7-2.3,6.7,0.6,9,0.4
			c3.5-0.2,5.5-2.5,10.3-2.1c3.6,0.3,7.3,2.1,10.7,1.7c1.6-0.2,3.2-1.5,4.7-1.7C767.7,186.3,773,189.3,777.1,191.7z"/>
		<path fill-rule="evenodd" d="M859.1,200.7c2.2,0.4,0.2-2.1,3-1.7c1.6,0.4,1.6,2.4,2.1,3.9c-6.8,3.5-13.7-2.9-19.3-4.7
			c-4.8,2.1-12.2,4.9-19.8,4.3c-3-0.2-8.5,0-9.4-3.4c2.6-2.9,6.7,0.1,10.3,0.4c3.5,0.3,7.5,0.1,10.3-0.9c2.2-0.8,4.3-3.1,6.4-3.4
			C849.4,194.2,853.3,200.3,859.1,200.7z"/>
		<path fill-rule="evenodd" fill="#FFFFFF" d="M268.8,196c-0.5,2,1.2,1.7,0.9,3.4c-1.7,1-4,2.8-6.4,1.7c0.3-1.3-0.4-1.6-0.4-2.6
			C264.5,197.4,266.1,196.2,268.8,196z"/>
		<path fill-rule="evenodd" fill="#FFFFFF" d="M240.9,196.9c2.4,0.5,3.3,3.1,0.4,3.9C241.2,199.4,239.7,198.2,240.9,196.9z"/>
		<path fill-rule="evenodd" fill="#FFFFFF" d="M259.3,199c-0.2,1.9,0.2,3.2,0.4,4.7c-2.3-0.2-3,1.3-5.6,0.9
			C253.3,201.7,254.3,197.4,259.3,199z"/>
		<path fill-rule="evenodd" fill="#FFFFFF" d="M250.7,199.4c0,2.2,0.2,4.5-0.9,5.6c-2.6,0.5-3.1-1.2-5.2-1.3
			C245.7,201.3,246.7,198.8,250.7,199.4z"/>
		<path fill-rule="evenodd" fill="#FFFFFF" d="M530.7,221.8c0.4-1.9,0.8,2.4,0.4,3C531,225,530.2,224.1,530.7,221.8z"/>
		<path fill-rule="evenodd" d="M598.1,233.4c2.4-0.8,3-3.2,5.2-4.3c9,3.7,20-2,24.9,6c-2,1.7-6.5,0-8.2-1.3c-5.2,2.7-9.7,0.9-15-0.4
			c-2.7,1.5-3.5,4.1-6.4,4.3c-3.7,0.3-7.1-5-12-2.6c-1.2-1.1-1.5-3.1-3-3.9c-1.5,1.9-0.9,6-5.2,5.2c0.7-4.6,1.4-9.2,4.3-11.6
			c3,0.6,3.8,3.3,5.6,5.2C592.9,229.7,594.7,232.3,598.1,233.4z"/>
		<path fill-rule="evenodd" fill="#FFFFFF" d="M792.6,248.8c0.1,4.1,2.5,23.8-1.3,27.5c-2.9,2.9-15.8,2.4-22.8,2.1
			c-15.7-0.6-38.6-1.6-53.2-2.6c-4.5-0.3-10.1-0.8-14.2,0.9c0-9.9,0.4-22.7-0.4-32.2C731.5,242.2,762.3,247,792.6,248.8z
			 M707.1,264.7c2.6,0.6,1.5-2.5,3-3c0.7,0.9,1.2,2,2.6,2.1c3.7-4,8.1,1,13.3,0c1.5-0.3,2.7-2.2,4.3-2.6c4.4-1.1,9.9,2.3,15,1.7
			c3.6-0.4,7.2-1.7,9-5.6c-4.5-0.3-6,2.3-9.9,2.6c-5.1,0.4-9.8-3.5-14.2-3c-2.1,0.3-3.9,3.2-6,3.4c-3.8,0.4-8.1-5.9-12-1.7
			C708.6,253.1,703,260.6,707.1,264.7z"/>
		<path fill-rule="evenodd" d="M649.2,247.5c-3.7,7.8-13,1.7-19.8,2.1c-2.7,0.2-5.2,2.7-7.7,3c-5,0.6-10.1-3-15.9-2.6
			c-2.2,0.2-4.2,1.9-6.4,2.1c-3.6,0.4-7.5-0.8-11.2-0.9c-4.9-0.1-10.3,1.4-13.3-2.1c0.5-3.2,4.1-1.8,6-0.9
			c8.1-0.7,17.7,2.3,22.8-1.7c9.5-0.9,18,5.9,23.6-0.9c5-0.8,9.4,2,13.7,2.1C643.9,248,646.6,246,649.2,247.5z"/>
		<path fill-rule="evenodd" d="M861.3,250.1c-0.3,4.4-4.9,5-7.3,5.2c-7.3,0.6-17.6-5.7-23.6-3c-3.2,1.4-4.8,5.1-8.2,5.2
			c-4,0-6.8-4.3-10.7-3.9c-2.5,1.4-1.1,6.8-2.6,8.2c-5.2-1.6-1.6-11.2,1.3-12c4.5-1.3,7.8,4.1,11.6,3.9c1.9-0.1,3.3-3.2,6-4.3
			c8.3-3.2,19.8,4,26.6,3C856.6,251.9,859.2,249.2,861.3,250.1z"/>
		<path fill-rule="evenodd" d="M712.3,258.7c4-4.2,8.3,2.1,12,1.7c2.1-0.2,3.9-3.2,6-3.4c4.4-0.5,9.1,3.4,14.2,3
			c3.9-0.3,5.4-2.9,9.9-2.6c-1.8,3.9-5.4,5.2-9,5.6c-5.1,0.6-10.6-2.8-15-1.7c-1.6,0.4-2.8,2.3-4.3,2.6c-5.2,1-9.6-4-13.3,0
			c-1.4-0.2-1.9-1.3-2.6-2.1c-1.5,0.5-0.4,3.6-3,3C703,260.6,708.6,253.1,712.3,258.7z"/>
		<path fill-rule="evenodd" d="M845,280.2c-4.2-0.4-5.2-5-9.9-5.6c-2-0.3-4.8,1.3-7.7,1.7c-5.4,0.8-11.8-1.2-15.5-0.9
			c-1.8,0.2-4.3,2.5-5.6,0c2.1-7.1,11.3-1.8,18.5-2.1c3.8-0.2,7.3-2.5,10.7-2.1C840.8,271.7,844.5,276.5,845,280.2z"/>
		<path fill-rule="evenodd" fill="#FFFFFF" d="M627.7,320.5c5.3,0.9,12.2-0.1,16.3,0.9c0.6,1.8-1.9,2.5-3,3.9
			c-2.7,3.2-3.8,7.4-6,11.6c-5.3,10.2-15.1,18.7-19.8,28.8c-7.2,12.4-14.9,24.3-22.8,36.1c-0.1,6.7-4.4,11.8-7.3,18.5
			c-4,9.3-9.9,17.6-14.2,26.6c-2.3,4.8-3,9.9-4.7,15.5c-3.1,9.6-9,18.7-10.7,29.6c-4.8-1.3-9.4,1.2-15,0.4c0.7-5.3,1.5-10.5,3-15
			c6.4-13.7,11.3-28.1,18.5-41.6c6.9-13.1,12.7-27,20.2-39.9c10.6-18.3,21.5-37.7,33.9-56.2C619.8,334,628.3,326.1,627.7,320.5z"/>
		<path fill-rule="evenodd" fill="#FFFFFF" d="M789.1,322.7c2.4,3,3.2,7,4.7,10.7c1.4,3.4,3.3,6.8,4.7,10.3
			c4.9,12.3,7.1,26,14.2,36.5c7.1,16.6,14.7,32.8,21,51.5c6.3,18.7,13,38.4,18.5,58.4c-6.7,1.1-13.8-1.1-18.9-3
			c-10.2-25.4-15-52.4-26.2-76.9c-5.6-12.2-10-24.7-15-36.9c-2.6-6.2-5.1-12.5-7.3-18.9c-3.6-10.3-6.5-22.5-9.9-31.3
			C779.6,322.9,785.2,323.6,789.1,322.7z"/>
		<path fill-rule="evenodd" fill="#FFFFFF" d="M336.2,350.1c0.7,1.9,0.6,3.6,0.4,5.6c-8.8-0.2-13.7,2.6-21,3
			c4.1-3.1,11.9-4.7,16.7-5.6C333.4,351.9,333.6,349.8,336.2,350.1z"/>
		<path fill-rule="evenodd" fill="#FFFFFF" d="M211.7,354.9c2.9,0.4,4.8,1.8,7.7,2.1C217.1,357.8,212.7,356.8,211.7,354.9z"/>
		<path fill-rule="evenodd" fill="#FFFFFF" d="M324.6,359.2c-1.5,2-5.1,2.1-7.7,3c-1.4,0.3-0.7-0.9-0.4-1.3
			c-8.3,2.7-17.5,5.6-27,8.2c-0.4-1-0.8-2.1-0.9-3.4C299.6,364.1,311.2,359.7,324.6,359.2z"/>
		<path fill-rule="evenodd" fill="#FFFFFF" d="M329.7,362.2c-5.4,2.6-12.9,4.8-18.5,4.7C316.6,364.4,323.4,363.6,329.7,362.2z"/>
		<path fill-rule="evenodd" fill="#FFFFFF" d="M282.1,363.9c0.3,1.3-0.4,1.6-0.4,2.6c5.9,3.1,2.7,10,6,15.5
			c-7.9,3-23.4,2.2-33.1,1.7c0.3-6.5,0.6-8.6-0.4-14.2c-0.3-1.5,1.6-0.7,1.7-1.7c0.7-2.1-2.2-0.6-1.7-2.6
			C264,364.8,273.9,364.9,282.1,363.9z M258,369.5c1.1,3.9,1.1,6.4,1.7,10.7c5.1-2.7,11.3-0.6,18-2.1c0.1-3.7-0.8-6.4-1.3-9.4
			C271.2,368.7,262.9,368.5,258,369.5z"/>
		<path fill-rule="evenodd" fill="#FFFFFF" d="M336.6,366.5c-0.1,1-0.7,1.6-0.4,3c-2.8,0-2.9,0.1-5.2,0.4
			C332,367.9,334.6,367.5,336.6,366.5z"/>
		<path fill-rule="evenodd" fill="#FFFFFF" d="M249.5,369c0,1,0.7,1.3,0.4,2.6c-7.3-0.3-13.4-1.7-18.9-3.9
			C236,365.8,245.4,369.8,249.5,369z"/>
		<path fill-rule="evenodd" d="M276.5,368.6c0.5,3.1,1.4,5.8,1.3,9.4c-6.7,1.6-12.9-0.6-18,2.1c-0.7-4.4-0.6-6.8-1.7-10.7
			C262.9,368.5,271.2,368.7,276.5,368.6z M263.2,372.9c-0.6,5.2,6.1,2.4,9.9,2.6c0.3-1.5-0.6-1.7-0.4-3
			C268.4,372.3,266.5,372.7,263.2,372.9z"/>
		<path fill-rule="evenodd" fill="#FFFFFF" d="M307,368.2c-0.9,1.2-3.1,1.2-4.7,1.7C303.2,368.7,305,368.3,307,368.2z"/>
		<path fill-rule="evenodd" fill="#FFFFFF" d="M195.8,368.6c0.3,0.2,0.7,0.4,1.3,0.4c-1,4.9,4.1,3.6,4.3,7.3
			c-1.4,0.5-3.9-1.1-5.6-1.7C196.2,372.4,195.6,371.4,195.8,368.6z"/>
		<path fill-rule="evenodd" fill="#FFFFFF" d="M272.6,372.5c-0.2,1.4,0.8,1.5,0.4,3c-3.8-0.2-10.5,2.6-9.9-2.6
			C266.5,372.7,268.4,372.3,272.6,372.5z"/>
		<path fill-rule="evenodd" fill="#FFFFFF" d="M210.4,375c4.9-0.9,12.9,1.1,18,2.6C223.7,378.7,215.1,377.5,210.4,375z"/>
		<path fill-rule="evenodd" fill="#FFFFFF" d="M249,376.8c-3.9,2.5-8.5-0.7-12.9-0.4C239.2,374.5,244.9,376.9,249,376.8z"/>
		<path fill-rule="evenodd" fill="#FFFFFF" d="M213.4,379.3c11.4,0.6,23.6,3.8,35.2,3.9c-7.1,1.5-16.1-0.6-22.8-1.7
			C221.4,380.8,216.3,381.5,213.4,379.3z"/>
		<path fill-rule="evenodd" fill="#FFFFFF" d="M172.2,394.8c-0.6,2,0.4,3.1-1.3,3.9c-0.9-0.9-0.1-3.3-2.1-3c-1.9-0.2-1.2,2.2-2.1,3
			c-1.4-0.5-2.7-2.7-2.1-3.9C167,395.7,169.7,394.1,172.2,394.8z"/>
		<path fill-rule="evenodd" fill="#FFFFFF" d="M795.6,394.4c1.2,3.5,3.2,6.3,4.3,9.9c-5.1-1.8-10.5-0.4-16.3,0
			c-5.5,0.4-11.5-0.6-17.2-0.4c-37.5,0.8-79.5,4.9-118.5,5.2c-18.2,0.1-35.8-0.6-52.4,2.1c0.4-2.8,1.9-4.7,2.6-7.3
			c7.3-2.7,15.2-2.5,23.2-3c8-0.5,16-2.3,24-2.6c6.1-0.2,12.5,0.9,18.9,0.9c18.5,0,36.7-1.5,55-2.1c11.8-0.4,24.7-0.3,37.4-0.9
			C770,395.4,784.3,396.4,795.6,394.4z"/>
		<path fill-rule="evenodd" fill="#FFFFFF" d="M155.9,396.1c1.6-0.2,2.2,2,1.3,3C155.4,399.1,155.2,397.4,155.9,396.1z"/>
		<path fill-rule="evenodd" fill="#FFFFFF" d="M167,402.1c0.7-0.1,0.7,0.4,1.3,0.4c0.5,8,8,15.1,9.9,22.3c0.9,3.8,1.4,9-1.7,11.6
			c-4.5-6.2-3.7-17.8-6.9-25.3c-6.4-2.4-4.7,4.6-7.3,6.9c3.1,12.3-1.7,23.2-4.7,33.1c-1.8,0.9-2.6,2.9-5.2,3
			c-4.8-12,6.9-20.3,5.6-30.1c-1,0.1-1.6-0.1-2.1-0.4c-2.3,1.4-1.3,3.6-2.1,5.6c-2.7,6.4-8.4,10.1-6.9,21c-3.3-1.8-1.7-8.9-0.4-13.3
			c1.6-5.4,7.1-9.9,6.4-15.9c-0.7-0.7-1.6-1.3-2.6-1.7c-1.7,0.5-2.2,2.4-2.1,4.7c-3.7,5.1-6,11.5-8.6,17.6
			c0.8-15.6,7.9-25,12.9-36.5c0.9-0.8,3.7,0.2,3-2.1c2.6,4.3,6.7-2.5,9.9,1.3C166.2,403.9,167,403.4,167,402.1z"/>
		<path fill-rule="evenodd" fill="#FFFFFF" d="M302.7,409c0.3,0,0.6,0,0.9,0c-0.6,22.3,2.2,44.3,3.9,65.7
			c-20.6,1.6-43.6,5.3-62.7,6.9c-2.8-21.1-4.2-42.5-7.3-63.5c6.6-3.9,16.1-4.6,24.5-5.6c13.7-1.7,27.1-0.4,40.4-3.4
			C302.4,409,302.5,409,302.7,409z"/>
		<path fill-rule="evenodd" d="M978.5,454.9c-3.3,2.6-6.4,0.1-9.4-0.4c-5.9-1-12.7-1.3-19.3-1.7c-29-1.6-62.9-2.3-89.7-1.7
			c-3.9,0.1-9.9,2.2-11.6-1.3c4.5-2.5,10.2-1.2,15.5-1.3c33.3-0.8,71.1,0.9,105.2,3.4C972,452.1,977.1,451,978.5,454.9z"/>
		<path fill-rule="evenodd" fill="#FFFFFF" d="M364.1,502.1c3.6,6.2-0.2,14.6,6.4,17.2c2.2,0.8,6.1,0.7,9.4,1.3
			c8.7,1.6,20.2,4.9,26.6,8.2c-32.6,2.4-63.4,2.9-94.9,6.4c-0.6-7.3-1.4-17.4,1.7-23.2C329.2,509.3,347.9,505.9,364.1,502.1z"/>
		<path fill-rule="evenodd" fill="#FFFFFF" d="M0.4-0.2c341.2,0,682.4,0,1023.6,0c0,205.4,0,410.8,0,616.1c-341,0-682.1,0-1023.1,0
			c-0.5,0.1-0.8-0.1-0.9-0.4C0,410.7,0,205.9,0,1.1C0,0.5-0.1-0.1,0.4-0.2z M537.1,166.8c7.8-27.8,3.6-69.3,6.4-99.6
			c0.2-2.5,3.4-11.8-0.9-11.2c-2.9,0.4-3.2,13.8-3.4,18c-0.9,18.2,0.6,26.7-0.9,40.8c-1,10.2-1.1,20.6-2.6,31.3
			c-6.9,51.4-10.5,114.3-13.3,166.6c30.9,3.5,65.1,8,101.3,8.6c-3.9,8-9.8,14.5-14.6,21.9c-4.8,7.4-9.8,14.9-14.2,22.8
			c-8.7,15.6-19.2,30.5-26.2,47.7c-4,2.5-3.7,6.3-5.6,10.3c-2.4,5.1-5.3,8.9-7.7,12.9c-3.3,5.5-4.6,12.4-8.2,17.6
			c-14.4-4.7-32.9-0.9-50.2,0c-10.3,0.5-20.8,0.5-31.3,1.3c-19.5,1.4-37.4,2.7-55.4,3.9c-13.6,0.9-26.6,2.5-38.2,3.9
			c-4.5,0.5-10-0.9-12.5,2.1c1.2,3.1,5.1,1.5,7.3,1.3c5.5-0.6,12.4-1.8,17.6-2.6c5.8-0.9,11.4,0,17.2-0.4c11-0.8,21.5-2.7,33.1-3.4
			c10.9-0.7,22.2-0.5,33.5-1.3c26.2-1.8,52.4-2.7,78.1-2.1c-2.9,6-5.9,11.4-7.7,18c-1.3,4.7-0.9,10-2.1,15c-0.6,2.7-3.5,4.7-1.7,7.7
			c6.5-0.4,13.8-2.8,20.6-5.2c1.3,0.6,2.3,3.2,4.3,1.7c3-5.3,4-12.2,6.4-18.5c2.5-6.3,4.6-12.7,6.9-18.9c2.3,0.8,4.7,0.7,6.9,0.4
			c9.7-1.3,18.5-3.4,27.9-4.3c9.2-0.9,18.9-1.1,29.2-0.9c42.9,1.1,79.9-0.3,119.4-0.4c12.8,0,24.9-0.1,36.5,0.4
			c4.1,0.2,8-0.1,11.6,0c3.1,0.1,9.3,3.2,10.3-2.1c-2-2.6-6.7-0.9-9.4-0.9c-6.3,0.2-13-0.2-19.3-0.4c-36.2-1.3-74.2,1.5-111.6,0.4
			c-11.8-0.3-23.2,0.5-34.8,0.4c-11.7,0-22.9-0.4-34.3,0.9c-10.6,1.2-20.9,3.4-31.3,3c5.8-13.1,12.5-25.3,18.9-37.8
			c4.1,0.5,7.6-1.9,11.6-2.6c21.7-3.7,41.3,0,61.8-1.3c45.5-2.9,93.3-4.8,134.8-4.7c10.9,20.7,14.7,48.6,23.6,71.3
			c0.3,1-2.6-1.2-2.1,0.9c2.5,2.4,4.3,5.4,5.2,9.4c4.6,1.8,11.6,4.2,18.5,4.7c4.4,0.3,10.2,0.2,12.5-1.3
			c-2.5-14.4-10.8-28.9-13.3-43.4c-7.7-19.2-13.2-38.3-21.5-56.2c-2.6-5.6-6.1-10.5-8.6-15.9c-8.1-17.6-12.9-35.7-20.2-54.1
			c30.8,2.4,69.4-6.2,105.6-3c5.2,0.5,10.2,3.1,15.9,2.1c0.2-16.3,2.3-30.7,2.6-46.4c0.3-20,2.2-41.3,3.9-58.8
			c1.9-20.4,3.2-40.2,6-60.1c1.8-12.9,2.4-25.9,3-38.6c0.7-14.5-0.2-30,2.1-40.4c0.7-3,4.3-9.1-0.9-11.6c-2.8,7-4.4,15.6-5.2,24.5
			c-1.2,13.9-0.4,29.3-0.4,40.4c-1.8,5.1-1.7,11-2.1,16.7c-2.4,29.3-6.8,58.5-9.4,86.7c-2.6,28-1.4,56.8-4.7,83.3
			c-4.8,0.3-7.1-1.7-11.6-1.7c-0.8-2.3-0.2-6.1-2.6-6.9c-0.9,0.9,1,5-0.4,6.4c-37.7,1.4-76.6,3.9-116.4,4.7
			c-25.5,0.5-51.6-0.8-77.3-0.9c-60.4-0.2-122-0.5-174.7-9.9c-1.4-15.7,1.1-32.1,2.1-48.5c1.4-22,1.5-44.2,3.4-64.4
			c0.4-3.7,2.5-8.5,0.9-12c-1,0.4,0.2,3.1-0.9,3.4c-1-3.7,1.4-4,2.1-6c-0.2-5.2,1-9,0.9-14.2c-0.3-1.5-0.9,2.1-1.3,0.4
			c0.8-3.9,0.1-9.4,2.1-12C537.1,158.8,536.7,164.3,537.1,166.8z M228.4,28.6c-5.8,4-14.1,5.3-18,11.2c-4.6,1-4.8,3.9-8.2,6.9
			c-5.7,5.2-14.3,8.4-11.6,17.2c-3.4,3.3-6.3,7.2-6.9,13.3c1.1,1,4.3,0,4.7,1.7c0.2,3.3-2.9,3.4-2.6,6.9c0.3,1.5,3.3,0.4,3.9,1.7
			c-0.1,4.9-2.2,7.9-3.4,11.6c-0.1,2.9,3,0.1,2.6,3c-4,2-11.7,0.3-13.3,4.7c0.9,4.8,0.5,9.4,3.9,10.7c3.6,1.4,8.5-3.1,12.9-2.6
			c2,7,5.6,13.3,8.6,19.8c3,6.5,5.6,13.5,9.9,18.9c0.2,0.3,1,1.4,1.3,1.7c9.1,8.5,19.6,14.9,33.9,18c0.2,6.4,0.5,15.2-0.4,21
			c-1.4-0.3-2.2-1.3-3.9-1.3c-5,2.5-12.9,1.1-19.3,1.7c-11,1.1-23.4,2.4-32.2,4.3c-10.8,2.4-21.2,3.5-30.9,5.2
			c-3.4,2.1-6.6,3.9-8.2,7.7c-3,7.5-3.9,19.8-4.7,29.6c-0.4,5-1.4,12.3-1.3,18c0.4,14,1.9,26,1.7,39.5c-0.2,12-0.7,23.4-0.4,34.3
			c0.3,12.9-0.9,25.1-0.9,37.4c0,5.1,0.9,10.4,0.9,15.5c-0.1,7.2,2.2,12.5,0.9,18.9c-1.4,6.8-6.8,11.8-9.4,18
			c-2.9,7-3.4,14.3-3.4,22.8c1.9,0.8,3.2,1,4.7,1.3c0.9,6.2,7.7,6.6,10.3,11.2c16.7,1,14.1-17.4,19.3-27.9c1.2,4.3,2.1,9.8,5.6,10.7
			c3.6,1,7.8-2.5,8.6-4.3c5.6-12.4-11-27.1-12.5-34.8c1.2-0.3,5.3,0.7,6-1.3c2.3-20.1-1.1-44-2.6-66.1c-1.4-21.3,1.5-41-0.4-61.4
			c-1.2-12.5-0.3-23.7,2.6-32.6c2.4,7.7,4.5,15.8,5.2,24.5c1.1,14.6,4.1,29.7,5.6,45.1c3.2,33.5,4.1,69.1,5.2,102.2
			c1,1.3,3.4,0.1,4.3,2.1c-0.4,26.3,2.7,53.1,3.9,73.8c-9.7,2.9-18.3,3.7-29.6,5.2c-12.5,1.7-25.4,5.6-38.6,7.3
			c-6.6,0.8-13.1,2.2-19.8,3.9c-20.8,5.2-41.5,8-60.5,14.6c2.1,5.6,8.9,0.6,12.9-0.4c3-0.8,5.8-1.5,8.2-2.1
			c13.3-3.6,28.1-5.5,39.5-8.2c5.3-1.2,10.4-2.9,15.9-3.9c23.9-4.3,50-7.4,73-12.5c2.3,10.9,5.9,19.8,3,30.5
			c0.7,3.3,3.3,6.8,2.1,9.9c-0.8,2.3-5.9,4.8-8.6,6.4c-3.7,2.3-6.1,4.5-9,6.4c-7,4.5-13.8,7.5-16.3,12.5c4.3,2.6,10-0.5,12.9-3
			c8.8-0.6,16.1-3.7,24.9-5.6c6.5-1.4,13.1-3.7,19.8-4.3c2.7-0.2,5.2,0.5,7.7,0.4c6-0.2,13.2-1.1,19.3-1.3c2.6-0.1,5.5,1.4,6.9-1.7
			c-0.6-3.1-3.9-3.8-5.6-6c-3.6-4.7-5.1-11-8.2-16.3c-0.2-1.5,1.5-1.1,1.3-2.6c-2.8-10.6-3.8-23.1-5.6-32.6
			c10.4,0,19.6-3.2,29.2-3.9c2.4-0.2,4.9,0.4,7.3,0c8-1.2,17.2-4,25.8-1.3c-0.7,7.8,0.8,14.5,1.3,21c0.5,8-2,14-2.6,21.9
			c-0.4,5.4,0.5,10.3,0,15.9c1.8,0.4,3.5-0.1,5.6,0.9c19.3-4,39.9-4.2,60.5-4.7c13.5-0.4,27.3-1.5,39.9-1.3c2.5,0,5.8,1.6,6.9-2.1
			c-12.2-9.4-30.5-12.7-48.1-16.7c-1.7-7.9-3.8-15.4-5.6-23.2c-1.4,3-1.8,3.1-1.3,8.2c-17.1,1.6-32.4,6.1-48.1,7.7
			c-3.8-7.9-2.6-20.5-3.4-30.9c-2-24.2-5-48.6-4.7-71.3c-5.8-1.1-12,0.9-18.5,1.7c-19,2.4-40.6,2.5-57.1,8.2
			c1.6,21.5,5.5,41.7,7.7,61.8c1.5,13.3,4.5,25.8,3.9,39.1c-10.3,0-24.6,3.4-34.8,3.4c0.2-10.4-2.4-17.9-4.3-26.2
			c3.3-4.9,0.1-10.6-0.4-18c-0.6-8.8-1.9-14.6-2.6-22.8c-0.3-4.1,0.2-8.5,0-12.9c-0.4-8.5-1.9-16.9-1.3-24.5
			c0.6-6.9,0.2-11.5-1.3-17.2c0-1.6-3-0.1-2.6-2.1c0.4-5.7-0.6-12.3-0.4-16.3c6.1,1.5,11.7,3.5,18,4.3c7.2,0.9,14.6,3.1,21.5,3.9
			c10.3,1.2,22.1,0.6,32.6,0.4c24.4-0.5,48.7-5.9,66.1-13.3c-0.9,4.1,1.1,5.2,3,6.4c0.3,17.4,3.6,31.9,3.9,49.4c1.6,1,5.1,0,6,1.7
			c3.4,20.9,5.3,41.9,9.9,62.3c1.3-0.3,4,1.2,5.6,0.4c-3.2-12.6-5.7-26.3-7.3-40.4c-0.8-7.5-3.3-13.4-3.9-19.8
			c-0.3-2.8,0.2-5.7,0-8.6c-0.3-3.5-1.5-6.9-1.7-10.3c-0.2-2.7,1.2-6.3-1.3-8.6c-2.8-0.6-1.8,2.5-3,3.4c-1.8-15-3.6-32.2-2.1-48.9
			c3.4,0.1,7.1,0.5,6.9-3c-1.5-1.5-4.3,0.9-5.6-0.4c1.5-0.1,1.1-1.1,0.9-2.1c-1.3-0.9-3.1,0.9-3.9-0.9c-0.6-3.9,1.3-5.2,1.7-8.2
			c-0.1-1.6-2.3-1.2-2.6-2.6c-3.1-34.9-10.4-85.7,3-116.4c14.6,1.2,25.4,5.3,39.1,9c10.2,2.8,20.6,5.7,30.5,8.2
			c8.3,2.1,17.4,2.8,26.2,6c14.1,5.2,26.7,8.2,39.9,4.3c7.8-5.3,12.5-16.6,14.2-28.3c1.8-12.1,2.3-25.5,3-37.4
			c0.4-6.6,1.6-13,2.1-19.3c1.1-13.4-0.3-29,0.9-42.1c0.1-1.9,2.4-1.6,2.6-3.4c-4.3-1.5-1.7-8.6-2.6-11.6c-1.9-1.3-3.9-0.8-6-1.3
			c-0.6-3.2,0.3-6.9,1.7-9.4c5.9-10.9,16.3-17.3,18.5-32.2c1.4-9.5-0.8-17-3.4-24c-2.2-2.3-3.6-5-6.4-7.7c-1.5-1.5-5.9-5.6-8.2-5.2
			c-3,0.6-4,6.9-5.2,10.3c-1.4,4.1-2.5,8.5-3.9,11.6c-1.6-4.8-2.9-10.1-5.6-13.7c-2.3-3.1-6-6.4-10.3-7.3c-4,6.8-6.1,17.4-5.2,26.6
			c-5.5-5.8-10.1-14.8-18.9-15.9c-2.2,2.8-2.3,7.1-2.6,10.7c-1.4,15.9,6.6,26.5,11.6,36.5c-6.7-2.6-14.9-5.6-23.6-4.7
			c-4.6,3.8-1.5,10.2,1.3,13.3c6.9,7.6,21.6,9.4,33.1,10.7c-3.1,2-1.7,8.6-3.9,11.6c-0.1,1.7,1.8,1.3,1.7,3
			c-0.5,29.8-5,66.2-8.2,97.5c-10.7-2.8-23-4.9-35.6-8.6c-4.4-1.3-8.5-3.4-12.9-4.7c-4.9-1.4-9.8-2-15-3c-7.7-1.5-15.1-4.3-22.8-6
			c-4.1-0.9-8.4-1-12.5-2.1c-3.9-1.1-7.4-2.7-11.2-3.4c-13.6-2.7-28.7-3.6-42.9-5.2c-11.7-1.3-20.9-0.4-30.9,1.7
			c-0.8-1.3-3.4-0.9-3.9-2.6c0.5-4.5,0.6-9.5-0.4-14.6c36.2-2.7,58.2-25.3,60.5-61.8c1.6,0.1,3.8,1,4.7,0.4c1.3-3.5,4.8-7.6,3-11.6
			c-2.2-1.7-5.3-2.5-8.2-3.4c-2.9-10.9-3.1-24.7-10.7-30.9c-0.1-1.3,1-2.1,0-3c-2-3.4-5.8-5-8.2-8.2c2.9,0,5.5-0.2,6-2.6
			c-6.5-5.1-15.7-7.5-22.3-12.5c0.6-1.3,2.2-1.5,1.7-3.9c-5.4-3.4-14.9-2.5-20.6-5.6c0.5-1.3,2-1.6,0.9-3.4
			C263.7,26.8,242.7,26.7,228.4,28.6z M620,47.4c1.4,0.6,2.1-2.5,0.4-2.1C620.1,45.8,619.8,46.4,620,47.4z M915.8,63.3
			c-22.1-0.9-44.4-3.3-66.5-4.3c-22.1-1-43.6-3.2-65.3-4.7c-18.3-1.3-37.1,0-55.8-0.9c-17.7-0.8-35.6-1-53.2-0.9
			c-37.1,0.3-74.2,0-111.2,0c-0.2,0-0.5,0-1.3,0c-5.7,0.3-17.1-1.4-18.5,2.1c2.2,2.5,5.7,0.6,8.2,0.4c3.3-0.2,6.6-0.1,9.9,0
			c43.2,0.8,90.6-1.8,137,0.4c26.1,1.2,51.5,0.1,76.9,1.3c12.3,0.6,24.6,2.4,36.9,3.4c6,0.5,12,1.7,18,2.1c6.8,0.5,13.7-0.3,20.6,0
			c22.5,1.1,45.4,2.3,67.4,3.9c5.1,0.4,10,4.2,12.9-1.3C926.7,61.8,921,63.5,915.8,63.3z M554.7,64.2c0.1,7.8,0.4,14.9-0.4,24.5
			c-3.2,37.6-6.2,73.4-10.7,109.1c-2.2,17.4-4.8,34.9-6,52.8c-0.6,9-0.4,18.1-0.9,27.5c-0.4,9.3-1.8,19.3,1.3,28.8
			c28-4.8,59.4-0.7,88.9,0c29.7,0.8,58.3,2.5,86.3,2.6c22.6,0,46.2,0.6,66.1-0.9c37.9-2.7,75.7-1.9,112.5-3.4
			c1.3,0.2,2.7,3.4,5.2,2.1c3.3-14.8,3.2-30.5,5.2-45.5c1.9-14.9,4.5-29.7,5.6-45.1c0.6-8.4,1-16.5,2.1-24.5
			c1.1-7.6,0.7-15.1,1.7-22.3c1.7-11.8,2.4-23.8,3.9-34.3c1.1-7.9,1.5-12.7,2.1-21.9c0.2-3.1,1.8-10.1,3-16.7
			c0.9-5.2,3.3-17.4,2.1-18.9c-1.9-2.5-6.1-0.9-10.3-0.9c-6.8,0.1-13.7-0.6-20.6-0.4c-22.3,0.7-43.3-0.9-65.3-1.7
			c-28.3-1.1-57.7-2.3-83.3-3c-15.6-0.4-30.7,0.3-45.5-0.4c-29.1-1.4-58.5-1.1-88.9-4.7c-18-2.2-37.5,0.3-52.8-3.4
			C555.5,63.5,555,63.8,554.7,64.2z M924,75.8c1.7-0.2,3.9-2.1,3-3.4C926.8,74.3,924.3,74,924,75.8z M969,451.9
			c-34.1-2.5-71.9-4.3-105.2-3.4c-5.2,0.1-11-1.2-15.5,1.3c1.7,3.5,7.7,1.4,11.6,1.3c26.8-0.6,60.8,0.1,89.7,1.7
			c6.6,0.4,13.4,0.7,19.3,1.7c3.1,0.5,6.2,3,9.4,0.4C977.1,451,972,452.1,969,451.9z"/>
		<path fill-rule="evenodd" fill="#FFFFFF" d="M324.2,119.6c-3.2,18.2-10.5,35.6-26.2,43.8c-7.8,4.1-19.4,7.8-29.2,8.6
			c-20.6,1.7-44.4-6.3-55-20.6c-1.8-2.4-4-6.4-5.6-9c-4.9-8.4-8.1-18-12-28.8c2.1-0.6,4.4-1,6.9-1.3c-1.9,10.2,2.5,21.1,6,28.8
			c7.2,1,15-2.1,14.6-8.6c-4.7,1.5-11.2,10.3-14.2,0.4c-1.4-4.7-3.7-14.5-1.3-18c3.1-1.1,1.4,2.6,3.9,2.1c1.7,0.4,1.5-1,2.6-1.3
			c0.5-2.4-2.8-3.2-2.1-4.3c9.3-1.5,21.7-2.1,30.5-2.6c0.3,14,4.4,25.3,18.9,24.5c10.7-0.6,15.2-11.1,18.9-18.5c3.2-0.2,4-0.1,7.3,0
			c1.5,3.2,1.3,7.1,2.6,10.3c2.4,5.8,7.9,13.8,14.6,13.7C315.1,138.8,321.5,128.4,324.2,119.6z M285.1,128.2
			c-1.4,6.2,3.5,9.9,4.7,15c-4.1,1.8-9.5-2.4-12.9,0c1.9,4,10.2,3.4,15,3c1-1.5,2-2.9,2.1-5.2c-4.3-3.2-5.1-9.8-8.2-14.2
			C285.9,127.6,284.9,127.2,285.1,128.2z M269.6,157.8c-4.6-1.5-6.6-5.8-9.9-8.6c-1.1,0-2.2,0.1-2.1,1.3c0.8,5.5,9.1,11.5,16.7,11.2
			c3.7-0.1,10.3-0.6,11.2-5.2C280.5,155.5,275.7,159.7,269.6,157.8z"/>
		<path fill-rule="evenodd" d="M275.6,29c1.1,1.8-0.3,2.2-0.9,3.4c5.7,3,15.2,2.2,20.6,5.6c0.5,2.4-1.1,2.6-1.7,3.9
			c6.7,4.9,15.8,7.3,22.3,12.5c-0.5,2.3-3.1,2.6-6,2.6c2.3,3.1,6.1,4.7,8.2,8.2c1,1-0.1,1.7,0,3c7.7,6.2,7.8,20,10.7,30.9
			c2.9,1,6,1.8,8.2,3.4c1.8,4-1.7,8-3,11.6c-0.9,0.6-3.1-0.4-4.7-0.4c-2.4,36.5-24.4,59.1-60.5,61.8c1,5.1,0.9,10.1,0.4,14.6
			c0.5,1.7,3,1.3,3.9,2.6c10-2.1,19.2-3,30.9-1.7c14.2,1.5,29.3,2.5,42.9,5.2c3.8,0.7,7.3,2.3,11.2,3.4c4,1.1,8.4,1.2,12.5,2.1
			c7.6,1.7,15.1,4.5,22.8,6c5.2,1,10.1,1.6,15,3c4.4,1.3,8.5,3.4,12.9,4.7c12.7,3.6,24.9,5.7,35.6,8.6c3.1-31.2,7.7-67.7,8.2-97.5
			c0.1-1.7-1.8-1.3-1.7-3c2.2-3,0.7-9.6,3.9-11.6c-11.4-1.4-26.2-3.1-33.1-10.7c-2.8-3.1-5.9-9.5-1.3-13.3
			c8.7-0.9,16.9,2.2,23.6,4.7c-4.9-10-13-20.6-11.6-36.5c0.3-3.6,0.4-8,2.6-10.7c8.8,1.1,13.4,10.1,18.9,15.9
			c-0.9-9.3,1.1-19.8,5.2-26.6c4.3,0.9,8,4.2,10.3,7.3c2.7,3.6,4,9,5.6,13.7c1.3-3.1,2.5-7.5,3.9-11.6c1.2-3.4,2.2-9.7,5.2-10.3
			c2.3-0.4,6.6,3.7,8.2,5.2c2.9,2.7,4.2,5.4,6.4,7.7c2.6,7.1,4.8,14.5,3.4,24c-2.2,14.9-12.6,21.3-18.5,32.2
			c-1.4,2.5-2.3,6.2-1.7,9.4c2.1,0.5,4.1,0,6,1.3c0.9,3-1.7,10.1,2.6,11.6c-0.1,1.9-2.5,1.5-2.6,3.4c-1.1,13,0.2,28.6-0.9,42.1
			c-0.5,6.3-1.8,12.8-2.1,19.3c-0.7,11.9-1.2,25.3-3,37.4c-1.7,11.7-6.4,23-14.2,28.3c-13.2,3.9-25.9,0.9-39.9-4.3
			c-8.8-3.2-17.9-4-26.2-6c-9.8-2.5-20.3-5.4-30.5-8.2c-13.7-3.8-24.5-7.8-39.1-9c-13.4,30.7-6.1,81.5-3,116.4
			c0.3,1.4,2.5,1,2.6,2.6c-0.4,2.9-2.3,4.3-1.7,8.2c0.8,1.7,2.6,0,3.9,0.9c0.3,1,0.7,2-0.9,2.1c1.2,1.3,4.1-1.1,5.6,0.4
			c0.2,3.5-3.5,3.1-6.9,3c-1.4,16.8,0.4,34,2.1,48.9c1.3-0.9,0.2-4.1,3-3.4c2.5,2.3,1.1,5.9,1.3,8.6c0.3,3.4,1.4,6.9,1.7,10.3
			c0.2,2.9-0.3,5.7,0,8.6c0.6,6.3,3,12.2,3.9,19.8c1.6,14.1,4.1,27.8,7.3,40.4c-1.6,0.8-4.3-0.7-5.6-0.4
			c-4.6-20.3-6.5-41.3-9.9-62.3c-0.9-1.7-4.4-0.7-6-1.7c-0.3-17.5-3.5-32-3.9-49.4c-1.9-1.2-3.9-2.3-3-6.4
			c-17.5,7.4-41.8,12.9-66.1,13.3c-10.5,0.2-22.3,0.8-32.6-0.4c-6.9-0.8-14.3-2.9-21.5-3.9c-6.3-0.8-11.9-2.8-18-4.3
			c-0.1,4,0.8,10.6,0.4,16.3c-0.5,2,2.6,0.6,2.6,2.1c1.5,5.7,1.8,10.3,1.3,17.2c-0.6,7.6,0.9,16,1.3,24.5c0.2,4.4-0.3,8.8,0,12.9
			c0.7,8.1,2,14,2.6,22.8c0.5,7.4,3.7,13.2,0.4,18c1.9,8.3,4.5,15.8,4.3,26.2c10.1,0,24.5-3.4,34.8-3.4c0.6-13.3-2.4-25.8-3.9-39.1
			c-2.2-20.1-6.1-40.4-7.7-61.8c16.5-5.7,38.1-5.7,57.1-8.2c6.4-0.8,12.7-2.8,18.5-1.7c-0.3,22.7,2.8,47,4.7,71.3
			c0.8,10.4-0.4,23,3.4,30.9c15.7-1.6,31-6.2,48.1-7.7c-0.5-5.1-0.1-5.2,1.3-8.2c1.8,7.8,3.9,15.3,5.6,23.2
			c17.6,4,35.9,7.4,48.1,16.7c-1.1,3.8-4.4,2.2-6.9,2.1c-12.6-0.2-26.4,0.9-39.9,1.3c-20.7,0.6-41.2,0.8-60.5,4.7
			c-2-0.9-3.8-0.4-5.6-0.9c0.5-5.6-0.4-10.5,0-15.9c0.6-7.9,3.1-13.9,2.6-21.9c-0.4-6.6-2-13.3-1.3-21c-8.6-2.7-17.8,0.1-25.8,1.3
			c-2.4,0.4-4.9-0.2-7.3,0c-9.6,0.6-18.8,3.9-29.2,3.9c1.8,9.5,2.8,22.1,5.6,32.6c0.2,1.5-1.5,1.1-1.3,2.6
			c3.1,5.3,4.6,11.7,8.2,16.3c1.7,2.2,5,2.9,5.6,6c-1.4,3.1-4.3,1.6-6.9,1.7c-6.1,0.2-13.3,1.1-19.3,1.3c-2.6,0.1-5.1-0.7-7.7-0.4
			c-6.6,0.6-13.3,2.9-19.8,4.3c-8.8,1.9-16.1,5-24.9,5.6c-2.9,2.5-8.6,5.7-12.9,3c2.6-4.9,9.3-7.9,16.3-12.5c2.9-1.9,5.3-4.2,9-6.4
			c2.7-1.7,7.7-4.1,8.6-6.4c1.1-3.1-1.5-6.6-2.1-9.9c2.9-10.7-0.7-19.5-3-30.5c-23,5.1-49.1,8.1-73,12.5c-5.5,1-10.6,2.6-15.9,3.9
			c-11.4,2.7-26.2,4.5-39.5,8.2c-2.4,0.6-5.1,1.4-8.2,2.1c-4,1-10.7,6.1-12.9,0.4c19-6.6,39.8-9.4,60.5-14.6
			c6.6-1.7,13.1-3,19.8-3.9c13.2-1.7,26.2-5.6,38.6-7.3c11.3-1.5,19.9-2.2,29.6-5.2c-1.2-20.8-4.3-47.6-3.9-73.8
			c-0.9-2-3.3-0.9-4.3-2.1c-1.1-33.1-1.9-68.6-5.2-102.2c-1.5-15.3-4.5-30.4-5.6-45.1c-0.6-8.7-2.7-16.8-5.2-24.5
			c-2.9,9-3.7,20.1-2.6,32.6c1.9,20.4-1,40.1,0.4,61.4c1.5,22.1,4.8,46,2.6,66.1c-0.8,1.9-4.8,0.9-6,1.3
			c1.4,7.7,18.1,22.3,12.5,34.8c-0.8,1.8-5,5.3-8.6,4.3c-3.5-1-4.4-6.5-5.6-10.7c-5.2,10.5-2.6,28.9-19.3,27.9
			c-2.6-4.6-9.4-4.9-10.3-11.2c-1.5-0.3-2.8-0.5-4.7-1.3c0.1-8.4,0.5-15.8,3.4-22.8c2.6-6.2,8-11.3,9.4-18
			c1.4-6.4-0.9-11.7-0.9-18.9c0-5.1-0.8-10.4-0.9-15.5c0-12.2,1.2-24.5,0.9-37.4c-0.3-11,0.2-22.3,0.4-34.3
			c0.2-13.5-1.3-25.5-1.7-39.5c-0.2-5.7,0.9-13,1.3-18c0.8-9.9,1.7-22.1,4.7-29.6c1.5-3.8,4.8-5.6,8.2-7.7
			c9.7-1.7,20.1-2.8,30.9-5.2c8.8-1.9,21.2-3.2,32.2-4.3c6.5-0.7,14.3,0.8,19.3-1.7c1.7,0,2.5,0.9,3.9,1.3c0.9-5.8,0.7-14.7,0.4-21
			c-14.3-3.1-24.8-9.6-33.9-18c-0.3-0.3-1-1.4-1.3-1.7c-4.3-5.4-6.9-12.3-9.9-18.9c-3-6.5-6.6-12.7-8.6-19.8
			c-4.4-0.6-9.3,4-12.9,2.6c-3.3-1.3-3-5.9-3.9-10.7c1.6-4.4,9.3-2.7,13.3-4.7c0.4-2.9-2.6-0.1-2.6-3c1.3-3.7,3.4-6.7,3.4-11.6
			c-0.6-1.3-3.5-0.2-3.9-1.7c-0.3-3.5,2.8-3.5,2.6-6.9c-0.4-1.7-3.6-0.7-4.7-1.7c0.6-6.2,3.4-10,6.9-13.3c-2.7-8.7,5.9-12,11.6-17.2
			c3.3-3,3.6-5.9,8.2-6.9c3.9-5.8,12.3-7.2,18-11.2C242.7,26.7,263.7,26.8,275.6,29z M232.7,32c-0.5,0.8-0.3,2.3-1.3,2.6
			c-1.6-0.4-2.9-1.1-4.3-1.7c-3.6,1.4-7.1,2.9-10.3,4.7c-0.7,0.6-0.1,2.4-0.9,3c-5.9,1.5-6.2,8.7-9.4,12.9c-1.4-0.3-1.4-2.1-1.3-3.9
			c-2.2,1.1-2.2,4.4-3.9,6c-0.3,2.1,1.9,1.6,1.3,3.9c-1.1,1.6-2.7,2.7-4.3,3.9c-0.1,6.7-2,10.3-3.9,15.9c0.1,1.7,2,1.7,1.7,3.9
			c-1,4.8-5.5,12.4-0.9,16.3c-0.6,1.3-2.7,1-2.1,3.4c16.3-0.8,31.5-4.3,48.9-5.2c1.6-0.3,1.7-2,3.4-2.1c7.7-1,17.9-2.3,26.6-0.9
			c2.4,0.4,4.9,2.4,7.3,3c0.7,0.2,1.1-0.7,1.7-0.4c2.3,0.9,4.3,3.7,7.7,2.6c8.8-7.3,25.5-6,35.6-0.4c-0.2-4.1-1.9-10.4-3-15
			c-2.7-1.8-5.5-3.7-6-7.7c-0.4-1.6,2.1-0.5,1.7-2.1c-1.6-7-11.8-7.7-13.7-12.9c0.5-2.7,3.1,0.4,4.3-0.9c-3.6-3.6-10.5-3.8-13.7-7.7
			c0.3-3.5,5.2-0.5,6.4-1.3c-5.3-6.1-15.7-9-26.6-8.2c-0.1-1.2-1.8-0.7-1.7-2.1c0.5-4,6.6-0.9,9-2.1c-4.3-3.5-12.6-3.5-19.8-3
			c-5.5,0.3-14.1,3.9-14.6-1.7c3.4-0.4,6.7-1.2,9.9-1.7c1.2-0.2,3.9,1,4.3-1.3C250.9,29.4,243.6,30.3,232.7,32z M488.6,108.8
			c1.3-1.4,0.6-3.1,1.3-5.2c2.6-7.5,9.9-12.7,13.7-18c6.5-8.9,8.5-24.1,4.3-36.5c-3.1-3.8-6-7.8-9.9-10.7c-0.4,0-0.9,0-1.3,0
			c-6.8,13.8-7.9,35.2-9.4,52.8c-2.1-0.2-3.4-1.2-4.3-2.6c2.8-19.3,3.8-41-10.3-49.4c-9.5,19.4,3.7,38,4.7,54.5
			c-2,0-2.2-1.8-4.3-1.7c-3.7-18.3-9.9-36.5-24.5-42.5c-0.1,3.2-0.8,6.8-0.9,10.3c-0.1,12.3,8.3,29.6,15.9,34.8
			c3,2.1,8.4,1.4,7.3,6.9c-11.7-1.7-21.1-11.5-36.5-9.4c-0.2,5.5,3.3,8.5,6.4,10.3c9.9,5.7,27.9,2.4,34.3,9.9
			c4.2-1.2,9.1,0.6,13.7,0.4C489.7,112,488.8,110.1,488.6,108.8z M308.3,52.6c-0.5-0.3-2-1.7-2.6-0.4
			C306.2,52.5,307.7,53.8,308.3,52.6z M194.1,59.5c2.9,0.8,4.4-4,3-4.7C196,56.2,194.4,57.2,194.1,59.5z M188.5,73.6
			c2.6-1,5.9-3.6,4.7-6.9C191.2,68.7,189.2,70.5,188.5,73.6z M252,104.5c0.7,6.9-0.6,15.3,3.4,18c2.1,1.5,7.9,1.1,10.7-0.4
			c4.7-2.6,7.4-11.7,8.2-17.6C267.3,104.1,259,101.4,252,104.5z M298,105.4c-3.5,6.7,2.2,22.4,7.3,22.8c2.1,0.2,6.6-4.4,7.3-5.6
			c2.7-4.7,2.7-12.8,5.2-17.2C311.8,102.5,304.3,104,298,105.4z M305.3,138.9c-6.7,0.1-12.2-8-14.6-13.7c-1.3-3.2-1.1-7.1-2.6-10.3
			c-3.3-0.1-4.1-0.2-7.3,0c-3.7,7.4-8.2,17.9-18.9,18.5c-14.5,0.8-18.5-10.5-18.9-24.5c-8.8,0.5-21.2,1.1-30.5,2.6
			c-0.7,1.1,2.7,1.9,2.1,4.3c-1,0.2-0.9,1.7-2.6,1.3c-2.4,0.4-0.8-3.2-3.9-2.1c-2.4,3.5-0.1,13.3,1.3,18c3,9.9,9.4,1.1,14.2-0.4
			c0.4,6.5-7.4,9.6-14.6,8.6c-3.5-7.6-7.9-18.6-6-28.8c-2.4,0.3-4.7,0.7-6.9,1.3c3.9,10.8,7.1,20.4,12,28.8c1.5,2.6,3.8,6.6,5.6,9
			c10.5,14.3,34.4,22.3,55,20.6c9.8-0.8,21.4-4.5,29.2-8.6c15.7-8.1,23-25.6,26.2-43.8C321.5,128.4,315.1,138.8,305.3,138.9z
			 M469.7,123c1-2.7,0.7-4.1,0.9-7.7c-0.6,0-1.1,0-1.7,0C468.9,118.1,469,120.8,469.7,123z M475.7,123.9c2.3-1.4,0.9-5.7,0-7.7
			C474.2,117.9,472.4,123,475.7,123.9z M480.9,123.9c2.5-1.7,0.6-6.6-1.3-7.7C481,117.9,479.7,123.1,480.9,123.9z M485.6,123.9
			c1.2-0.1,2.8,0.2,3.4-0.4c-0.5-2.1-0.2-4.9-0.9-6.9c-1.3,0.3-3.7-0.5-4.3,0.4C485.1,118.7,485.5,121.1,485.6,123.9z M492.9,123.9
			c1.1,0,2.5-0.2,3,0.4c0-2.4,0-4.9,0-7.3c-1.4,0-2.9,0-4.3,0C491.9,119.4,492.2,121.9,492.9,123.9z M469.3,126.4c0,0.4,0,0.9,0,1.3
			c-0.7,3.8-0.2,8.2-0.4,12c-1.1,18-3.2,38.9-5.6,60.1c-0.6,5.2-1,26.2-3.9,28.3c-2.5,1.9-15.3-3.3-21-4.7
			c-16.2-4.1-27.4-9.3-42.5-12.5c-7.5-1.6-14.8-2.9-22.3-4.3c-9.9-1.9-21.4-6.5-30.9-8.2c-3.7-0.6-7.7-0.3-11.6-0.9
			c-17-2.3-34.7-6.5-51.1-3c-6.9,10.5-23.2,17.1-39.9,12.5c-1.7-3-2.3-7.2-4.3-9.9c-24.4,1-54.1,4.9-77.3,12
			c-3.7,5.7-6.4,14-7.3,21.5c-0.4,3.6,0.3,7.5,0,11.2c-2.3,31.3,2.3,66,0.9,99.2c-0.8,17.9-0.2,34.3,0.4,50.7
			c5.5,1.3,13.8,0.8,20.2-0.9c1.6-23.4-3.6-44.7-3.4-67.4c0.1-9.8,1-20,1.3-30.5c0.2-7.4-1.2-14.7-1.7-22.3
			c-0.5-7.4,0.5-15.5,1.3-22.8c0.7-6.4-0.2-14.5,4.7-18.5c7.2,8.9,10.2,21.8,11.2,36.5c0.3,3.8,1.5,7.3,2.1,11.2
			c1.7,10.1,2.5,21.4,3.9,32.2c1.7,13.2,1.8,26.1,2.6,38.6c0.5,0.7,2-1.1,3.9-0.4c5,3.9,11.5,4.1,17.6,6c5.6,1.8,11.3,4.8,16.7,6
			c5.4,1.2,11,0.3,15.9,2.1c0.9-1,1.9-1.8,3.4-2.1c10.1,1.2,19.2,2.8,29.2,0.9c2.1-0.4,4-2,6-2.6c5-1.5,10.7-2.1,16.3-3.4
			c5.6-1.3,11.4-2.1,16.7-3c5-0.8,9.5-5.6,15.9-5.2c-4-41.1-8.8-83.3,3-118.5c-4.5,0.9-6.7-2.3-6.4-4.7c3.5-0.4,7.2,0.4,10.7,0.9
			c18.6,2.5,31.7,8.2,48.1,12c7.8,1.8,15.7,4.1,23.6,6c8.1,1.9,16.3,3,24,5.6c13.3,4.4,35.3,12.4,43.8-0.9
			c3.8-5.9,5.8-16.1,6.9-25.8c1.1-9.6,2-19.7,2.6-28.8c0.8-13.6,2.4-23.5,2.6-35.2c0.2-10.2,0.2-20,0.9-30.1
			C487.6,127.2,477,127.1,469.3,126.4z M250.7,196c3.3-0.5,11.2,0.2,13.7-3.4c1.3-7,0.2-10.6,0-16.7c-5.1-0.6-10.4-1.1-15-2.1
			C251.2,179.6,249.8,190.7,250.7,196z M262.8,198.6c0,1,0.7,1.3,0.4,2.6c2.4,1.1,4.7-0.7,6.4-1.7c0.3-1.8-1.4-1.5-0.9-3.4
			C266.1,196.2,264.5,197.4,262.8,198.6z M241.3,200.7c2.8-0.8,2-3.3-0.4-3.9C239.7,198.2,241.2,199.4,241.3,200.7z M254.2,204.6
			c2.6,0.4,3.3-1,5.6-0.9c-0.2-1.5-0.6-2.8-0.4-4.7C254.3,197.4,253.3,201.7,254.2,204.6z M244.7,203.7c2,0.1,2.5,1.8,5.2,1.3
			c1-1.1,0.9-3.4,0.9-5.6C246.7,198.8,245.7,201.3,244.7,203.7z M332.3,353.1c-4.9,0.9-12.7,2.5-16.7,5.6c7.3-0.4,12.2-3.2,21-3
			c0.2-2,0.3-3.6-0.4-5.6C333.6,349.8,333.4,351.9,332.3,353.1z M219.4,357c-3-0.3-4.8-1.8-7.7-2.1
			C212.7,356.8,217.1,357.8,219.4,357z M288.5,365.6c0.1,1.3,0.4,2.4,0.9,3.4c9.6-2.5,18.7-5.5,27-8.2c-0.3,0.4-1,1.6,0.4,1.3
			c2.6-0.9,6.2-1,7.7-3C311.2,359.7,299.6,364.1,288.5,365.6z M311.3,366.9c5.6,0,13.1-2.1,18.5-4.7
			C323.4,363.6,316.6,364.4,311.3,366.9z M254.2,365.2c-0.5,1.9,2.4,0.5,1.7,2.6c-0.1,1-2,0.3-1.7,1.7c1,5.5,0.7,7.7,0.4,14.2
			c9.6,0.5,25.1,1.3,33.1-1.7c-3.3-5.5-0.1-12.4-6-15.5c0-1,0.7-1.3,0.4-2.6C273.9,364.9,264,364.8,254.2,365.2z M331,369.9
			c2.3-0.3,2.4-0.4,5.2-0.4c-0.2-1.4,0.3-2,0.4-3C334.6,367.5,332,367.9,331,369.9z M231,367.7c5.5,2.1,11.6,3.6,18.9,3.9
			c0.3-1.3-0.4-1.6-0.4-2.6C245.4,369.8,236,365.8,231,367.7z M302.3,369.9c1.6-0.6,3.8-0.5,4.7-1.7
			C305,368.3,303.2,368.7,302.3,369.9z M195.8,374.6c1.7,0.6,4.2,2.2,5.6,1.7c-0.2-3.7-5.3-2.4-4.3-7.3c-0.6,0-0.9-0.2-1.3-0.4
			C195.6,371.4,196.2,372.4,195.8,374.6z M295.4,380.6c-1.2-0.1-3.2-1.6-3.4-0.4c0.6,3,5.5,1.7,8.2,1.3c2.4-0.3,5.2-0.8,7.3-1.3
			c5-1.2,11.9-3.1,16.7-4.7c1.9-0.6,4.3-1,4.7-2.6C318.5,374.3,307.1,381.7,295.4,380.6z M228.4,377.6c-5.2-1.5-13.2-3.5-18-2.6
			C215.1,377.5,223.7,378.7,228.4,377.6z M236.1,376.3c4.4-0.2,9,2.9,12.9,0.4C244.9,376.9,239.2,374.5,236.1,376.3z M225.8,381.5
			c6.7,1.1,15.7,3.3,22.8,1.7c-11.7-0.1-23.9-3.3-35.2-3.9C216.3,381.5,221.4,380.8,225.8,381.5z M164.4,394.8
			c-0.6,1.1,0.8,3.4,2.1,3.9c0.9-0.8,0.2-3.2,2.1-3c2-0.3,1.3,2.1,2.1,3c1.7-0.8,0.7-1.8,1.3-3.9C169.7,394.1,167,395.7,164.4,394.8
			z M157.1,399.1c0.9-1.1,0.3-3.2-1.3-3C155.2,397.4,155.4,399.1,157.1,399.1z M165.3,404.2c-3.2-3.8-7.2,3-9.9-1.3
			c0.7,2.4-2.1,1.3-3,2.1c-5,11.4-12.1,20.9-12.9,36.5c2.6-6.1,4.9-12.5,8.6-17.6c0-2.3,0.4-4.2,2.1-4.7c1,0.5,1.9,1,2.6,1.7
			c0.7,6-4.8,10.5-6.4,15.9c-1.3,4.4-2.9,11.5,0.4,13.3c-1.5-10.9,4.1-14.7,6.9-21c0.9-2-0.1-4.2,2.1-5.6c0.5,0.4,1.2,0.6,2.1,0.4
			c1.3,9.8-10.4,18.1-5.6,30.1c2.6-0.1,3.3-2.1,5.2-3c3.1-9.8,7.8-20.8,4.7-33.1c2.6-2.2,0.9-9.2,7.3-6.9c3.2,7.5,2.3,19.1,6.9,25.3
			c3.2-2.6,2.7-7.8,1.7-11.6c-1.8-7.3-9.4-14.4-9.9-22.3c-0.5,0-0.6-0.6-1.3-0.4C167,403.4,166.2,403.9,165.3,404.2z M302.3,409
			c-13.2,3-26.6,1.8-40.4,3.4c-8.4,1-17.8,1.7-24.5,5.6c3.1,21.1,4.5,42.5,7.3,63.5c19.1-1.5,42.1-5.2,62.7-6.9
			c-1.6-21.4-4.4-43.4-3.9-65.7c-0.3,0-0.6,0-0.9,0C302.5,409,302.4,409,302.3,409z M313.4,512c-3.1,5.8-2.3,15.9-1.7,23.2
			c31.5-3.5,62.3-4.1,94.9-6.4c-6.4-3.3-17.9-6.6-26.6-8.2c-3.3-0.6-7.2-0.4-9.4-1.3c-6.6-2.5-2.8-11-6.4-17.2
			C347.9,505.9,329.2,509.3,313.4,512z M210,524c-1,5.1,2.5,7.6,2.1,10.7c-8.8,5-16.9,10.5-24.9,16.3c20.7-3.4,43.3-12.1,67.8-10.3
			c-3.6-6.4-6.4-13.7-9.4-20.6C233.2,519.5,220.5,521.5,210,524z"/>
		<path fill-rule="evenodd" fill="#FFFFFF" d="M533.3,192.6c1.1,2.3-0.5,5.5-0.4,8.2C531.2,198,533.8,195.7,533.3,192.6z"/>
		<path fill-rule="evenodd" fill="#FFFFFF" d="M328.9,372.9c-0.4,1.6-2.8,1.9-4.7,2.6c-4.8,1.6-11.7,3.5-16.7,4.7
			c-2.1,0.5-4.9,0.9-7.3,1.3c-2.6,0.4-7.6,1.7-8.2-1.3c0.3-1.2,2.2,0.3,3.4,0.4C307.1,381.7,318.5,374.3,328.9,372.9z"/>
		<path fill-rule="evenodd" d="M538,156.1c-2.1,2.7-1.4,8.1-2.1,12c0.4,1.7,1-2,1.3-0.4c0.2,5.2-1,9-0.9,14.2c-0.7,2-3.2,2.3-2.1,6
			c1.1-0.4-0.1-3,0.9-3.4c1.7,3.5-0.5,8.3-0.9,12c-2,20.2-2,42.4-3.4,64.4c-1.1,16.5-3.6,32.8-2.1,48.5
			c52.7,9.4,114.4,9.7,174.7,9.9c25.7,0.1,51.7,1.4,77.3,0.9c39.8-0.8,78.7-3.3,116.4-4.7c1.4-1.4-0.5-5.5,0.4-6.4
			c2.4,0.8,1.8,4.5,2.6,6.9c4.5,0,6.8,2.1,11.6,1.7c3.3-26.5,2.2-55.3,4.7-83.3c2.6-28.3,7.1-57.5,9.4-86.7
			c0.5-5.7,0.3-11.6,2.1-16.7c0-11.1-0.8-26.4,0.4-40.4c0.8-8.9,2.4-17.4,5.2-24.5c5.1,2.5,1.6,8.6,0.9,11.6
			c-2.4,10.3-1.5,25.8-2.1,40.4c-0.6,12.7-1.2,25.7-3,38.6c-2.8,19.9-4.1,39.7-6,60.1c-1.7,17.5-3.6,38.8-3.9,58.8
			c-0.2,15.7-2.4,30.1-2.6,46.4c-5.6,1-10.7-1.7-15.9-2.1c-36.2-3.2-74.9,5.4-105.6,3c7.2,18.4,12.1,36.5,20.2,54.1
			c2.5,5.4,6,10.3,8.6,15.9c8.3,18,13.8,37,21.5,56.2c2.5,14.4,10.8,29,13.3,43.4c-2.2,1.5-8,1.6-12.5,1.3
			c-6.8-0.5-13.8-2.9-18.5-4.7c-0.8-4.1-2.7-7-5.2-9.4c-0.4-2.1,2.4,0.2,2.1-0.9c-8.9-22.7-12.7-50.5-23.6-71.3
			c-41.5-0.1-89.3,1.8-134.8,4.7c-20.6,1.3-40.1-2.4-61.8,1.3c-4,0.7-7.5,3-11.6,2.6c-6.4,12.5-13.1,24.7-18.9,37.8
			c10.4,0.4,20.7-1.8,31.3-3c11.4-1.3,22.6-0.9,34.3-0.9c11.6,0,23-0.8,34.8-0.4c37.4,1.1,75.4-1.7,111.6-0.4
			c6.3,0.2,13,0.6,19.3,0.4c2.7-0.1,7.5-1.7,9.4,0.9c-1,5.4-7.2,2.3-10.3,2.1c-3.6-0.1-7.5,0.2-11.6,0c-11.6-0.6-23.7-0.5-36.5-0.4
			c-39.4,0.1-76.5,1.5-119.4,0.4c-10.3-0.3-20,0-29.2,0.9c-9.4,0.9-18.2,3-27.9,4.3c-2.1,0.3-4.5,0.4-6.9-0.4
			c-2.2,6.2-4.4,12.6-6.9,18.9c-2.4,6.3-3.5,13.1-6.4,18.5c-2,1.5-3-1.1-4.3-1.7c-6.8,2.3-14.1,4.8-20.6,5.2c-1.8-3.1,1.1-5,1.7-7.7
			c1.2-5,0.9-10.4,2.1-15c1.8-6.7,4.8-12,7.7-18c-25.7-0.5-51.9,0.4-78.1,2.1c-11.3,0.8-22.6,0.6-33.5,1.3
			c-11.5,0.7-22,2.7-33.1,3.4c-5.7,0.4-11.4-0.4-17.2,0.4c-5.2,0.8-12.1,2-17.6,2.6c-2.2,0.2-6.1,1.9-7.3-1.3c2.5-3,8-1.6,12.5-2.1
			c11.6-1.3,24.6-3,38.2-3.9c18-1.2,35.9-2.4,55.4-3.9c10.5-0.8,21-0.8,31.3-1.3c17.3-0.9,35.8-4.7,50.2,0
			c3.5-5.3,4.8-12.1,8.2-17.6c2.4-3.9,5.3-7.8,7.7-12.9c1.9-4,1.6-7.8,5.6-10.3c7-17.2,17.5-32.1,26.2-47.7
			c4.4-7.8,9.4-15.4,14.2-22.8c4.8-7.4,10.7-13.9,14.6-21.9c-36.3-0.6-70.4-5.1-101.3-8.6c2.8-52.3,6.5-115.2,13.3-166.6
			c1.4-10.8,1.5-21.1,2.6-31.3c1.4-14.1,0-22.6,0.9-40.8c0.2-4.3,0.5-17.6,3.4-18c4.2-0.6,1.1,8.7,0.9,11.2
			c-2.8,30.3,1.4,71.8-6.4,99.6C536.7,164.3,537.1,158.8,538,156.1z M541.4,122.6c-0.2-1.5,0.5-6.2-0.4-5.6
			C541.2,118.5,540.5,123.2,541.4,122.6z M540.6,133.7c0-2.9,1.2-6.8,0-9.4C540.4,127.6,539.7,130.5,540.6,133.7z M539.7,141.5
			c0.3-1.5,1.4-4.4,0-5.2C539.3,137.4,538.7,140.5,539.7,141.5z M535.4,181.4c-0.6-3.3,1-6.7,0-9
			C535.2,175.1,534.1,179.7,535.4,181.4z M532.8,200.7c-0.1-2.7,1.5-5.9,0.4-8.2C533.8,195.7,531.2,198,532.8,200.7z M531.1,224.8
			c0.3-0.6-0.1-4.9-0.4-3C530.2,224.1,531,225,531.1,224.8z M616.1,339.4c-12.5,18.5-23.3,38-33.9,56.2
			c-7.5,12.9-13.3,26.8-20.2,39.9c-7.2,13.5-12.1,27.9-18.5,41.6c-1.5,4.5-2.3,9.7-3,15c5.7,0.8,10.2-1.7,15-0.4
			c1.7-10.9,7.7-20,10.7-29.6c1.8-5.5,2.4-10.6,4.7-15.5c4.3-9.1,10.1-17.4,14.2-26.6c2.9-6.7,7.2-11.8,7.3-18.5
			c7.8-11.8,15.5-23.7,22.8-36.1c4.6-10,14.5-18.6,19.8-28.8c2.2-4.2,3.3-8.4,6-11.6c1.1-1.3,3.6-2,3-3.9c-4.1-0.9-11,0.1-16.3-0.9
			C628.3,326.1,619.8,334,616.1,339.4z M649.6,321.4c-0.4,4.3-4.5,6.6-6.9,9.9c-1.6,2.2-2,4.8-3.4,7.3c-3.9,6.8-9.2,13.7-14.2,20.2
			c-7.4,9.6-13.1,20.7-19.3,30.5c-1.8,2.8-4.6,5.8-4.3,9.4c16.7-1.4,34.5-4.4,52-3.9c27.3,0.9,55.3-1.2,83.3-1.7
			c19.5-0.4,39.2-1.1,58.4-2.1c-9.3-21.9-17.2-45.2-25.3-68.3C729.5,323.2,687.1,320.6,649.6,321.4z M775,323.1
			c3.3,8.9,6.3,21,9.9,31.3c2.2,6.4,4.7,12.6,7.3,18.9c5.1,12.2,9.4,24.7,15,36.9c11.2,24.4,15.9,51.5,26.2,76.9
			c5.1,1.9,12.2,4.1,18.9,3c-5.4-20-12.1-39.7-18.5-58.4c-6.3-18.7-13.9-34.9-21-51.5c-7-10.5-9.2-24.2-14.2-36.5
			c-1.4-3.5-3.4-6.9-4.7-10.3c-1.5-3.7-2.3-7.7-4.7-10.7C785.2,323.6,779.6,322.9,775,323.1z M756.5,396.1
			c-12.7,0.6-25.6,0.5-37.4,0.9c-18.3,0.6-36.5,2.1-55,2.1c-6.4,0-12.8-1.1-18.9-0.9c-8.1,0.3-16.1,2.1-24,2.6
			c-7.9,0.5-15.9,0.3-23.2,3c-0.7,2.6-2.1,4.5-2.6,7.3c16.6-2.8,34.2-2,52.4-2.1c39-0.2,81-4.3,118.5-5.2c5.7-0.1,11.7,0.8,17.2,0.4
			c5.9-0.4,11.2-1.8,16.3,0c-1.1-3.6-3.1-6.4-4.3-9.9C784.3,396.4,770,395.4,756.5,396.1z"/>
		<path fill-rule="evenodd" fill="#FFFFFF" d="M918,80.9c-0.1,8.3-2.4,15.9-3.9,24c-1.5,8.4-1.1,17-2.6,25.3c-1.4,7.8-2.3,15.9-3,24
			c-0.6,7.6-2.3,15.4-2.6,22.8c-0.5,16.3-2.6,32.5-4.3,48.9c-0.8,7.7-1.3,15.7-2.6,23.6c-2.7,16.5-4.3,33.9-6,52
			c-29,2.3-58.9,0.5-88.9,1.7c-14.7,0.6-29.2,2.3-43.8,2.6c-28.3,0.6-59,1.4-88.9-0.4c-14.4-0.9-28.7-1.5-42.9-1.7
			c-28.9-0.4-57.6-4.9-86.7-1.7c0.8-12.7,0-24.8,0-36.9c0-14.7,3-29.1,4.3-43.4c1.3-14.4,3.6-28.6,4.7-42.9
			c1.1-14.6,4.1-29.1,4.3-44.2c0.3-21.4,4.3-42.9,4.7-66.1c32-1.5,62,2.6,93.6,3.9c14.8,0.6,29.7,1.1,44.7,1.7
			c14.6,0.6,29.2-0.4,43.8,0.4c29.9,1.6,60.2,1.4,90.2,3.4c14.5,1,29.7,3.3,43.8,2.6C890.3,79.8,904.2,80.1,918,80.9z M769.8,98.5
			c-11.8,0.8-23.2,2.6-35.2,1.7c-2,3.8-2.4,13.3-3.4,18c-14.5,6.7-25.8,17.7-37.8,26.6c-6.7,5-15.8,7.6-20.6,13.7
			c-9.5-27.3-64.9-33.6-84.2-11.2c-0.5,1.5-0.7,3.3-1.3,4.7c-1.4,0.3-2,1.4-3,2.1c-1.4,6.1-6.1,11.3-7.3,18
			c-1.2,6.8,1.2,17.5,3.9,24c2.5,6,6.3,7.7,11.6,12c15.8,12.9,46.6,18.9,65.7,6c8.9,8.5,19.3,18.5,29.2,27.5c2.9,2.6,8.3,7.3,9,10.3
			c2.2,9-2.1,17.6,0,27c8.5,1.8,17.5-0.7,27.9-0.4c10.2,0.2,21.1,1.9,31.8,2.1c1.9,0,3.7-0.5,5.6-0.4c9.5,0.3,19.6,2.2,27.9,0.9
			c9.2-1.5,7.6-10.5,8.2-19.8c0.3-5.5,1.3-13.6-1.7-17.2c-6.2,1.4-11.7-0.5-16.7-0.9c-25.2-1.8-49.4-2.5-77.3-3.4
			c-2-0.4-1.7-3.1-4.7-2.6c-2.5,1.1-0.9,4.5-1.7,5.6C683.9,233,672,223,662.1,211c7.8-6,11.9-15.6,15.5-25.8
			c13.7-0.7,27.2-0.1,37.8,3.9c-0.5,6.1-2.6,12.8-2.1,18.5c3.4,0.7,4.2-0.1,6.4-1.3c4.4,2,9.2,1.3,13.3,0.9
			c7.6-0.8,14.7,1.6,22.8,2.1c17.1,1.1,34.9,3.1,50.7,1.7c0.5-11,3.9-26.5,0.4-36.9c-2.8-1.5-6.6-1.5-9.9-1.7
			c-3.6-0.2-7.3,0.3-11.2,0c-3.2-0.3-6.2-1.7-9.4-2.1c-18.4-2.4-39.7,1-57.5-2.6c-2.2,4.6-1.9,9.8-3,15.9c-11.3-2.8-24.5-2.1-38.6-3
			c0.2-7.1-1.2-12.5-2.6-18c5.6-7,14.1-10.1,21.5-15c5.4-3.6,9.2-9.4,15.5-11.6c5.2-5.1,11.1-9.5,18.5-12.5
			c0.8,5.4-2.3,9.1-1.7,12.9c2.2,0,2.8,0.6,4.7,0c2.4-10.3,3-22.5,5.6-32.6c28.7-3.8,56.8,0.3,80.7,3.9c-1.8,11.3,1.4,24.6-3,34.3
			c-25.8-0.2-50.5-6.6-76.4-4.7c-1.7,0.1-12-0.4-12,3c0,3.7,5.7,2,8.2,1.7c6.3-0.7,14.4-0.2,19.3-0.4c6.4-0.3,13.1-0.7,20.2,0
			c15.7,1.6,32.3,5.4,46.4,2.6c1.9-8.6,0.3-20.1,1.3-29.6c0.4-4,2.7-7.6,1.3-10.7C805.3,104.7,788.9,97.3,769.8,98.5z M861.7,114.4
			c-6,1-9.8-2.8-15.9-2.1c-1.6,1.1-2.2,3.2-4.3,3.9c-3.7-0.4-4.1-4.2-8.6-3.9c-0.8,2.5-1.6,6.8,0,9.4c2.6,0.3,2.2-2.3,3-3.9
			c1.7,0,3,2,4.7,2.1c3.5,0.2,4.9-3.6,8.2-4.3c2.7-0.6,5.7,2,9.4,2.1c6.5,0.3,11-5,17.2-4.3c1.6,0.1,1.2,2.2,3,2.1
			c0.7-0.9,2.3-0.8,2.1-2.6C874.2,104.7,867.3,113.5,861.7,114.4z M778.8,123c-2.4,0.1-4.8-1-7.3-1.3c-5.5-0.7-10,0.1-15,0.4
			c-3.7,0.2-9-2.1-11.2-0.9c-2.9,1.6-2.8,7.7-3,10.3c4.3,1.9,4.2-4.1,5.6-6.4c5.4,2.2,9.7-0.3,14.6-0.4c6.1-0.2,12.2,2.4,17.6,1.7
			c3.8-0.5,7.6-3,11.6-3.4c3.3-0.4,6.3,1.3,9-0.9C793.5,116.6,785.3,122.7,778.8,123z M853.5,133.3c-1.8-1.2-6.8-1.8-11.6-1.3
			c-4.1,0.5-12.2-1.2-11.6,3.4c3.8,2.5,9.1,0.4,13.3,0c7-0.7,15.8,4.5,17.6-2.6C859.3,129.8,856.4,133.4,853.5,133.3z M853.5,178.8
			c-8-0.3-17.9-5.8-22.3,1.3c-4.4-0.9-9.1-5.7-13.3-1.7c0,3.5-0.3,7.5,2.1,8.6c3.8,0,0.8-4.5,1.7-6c2.7-1.5,6.2,2.6,9,2.6
			c2.3,0,4.3-3.8,7.7-4.3c5.2-0.8,11.5,3.6,15.5,3c2.9-0.4,5.6-3.7,6.4-5.6C857.9,173.3,855.5,177.8,853.5,178.8z M842.8,195.1
			c-2.1,0.3-4.2,2.7-6.4,3.4c-2.8,1-6.8,1.2-10.3,0.9c-3.6-0.3-7.7-3.4-10.3-0.4c1,3.4,6.4,3.2,9.4,3.4c7.6,0.6,14.9-2.2,19.8-4.3
			c5.6,1.9,12.5,8.2,19.3,4.7c-0.6-1.4-0.5-3.5-2.1-3.9c-2.8-0.4-0.8,2.1-3,1.7C853.3,200.3,849.4,194.2,842.8,195.1z M588.2,229.9
			c-1.8-1.8-2.6-4.6-5.6-5.2c-2.9,2.4-3.6,7-4.3,11.6c4.2,0.8,3.6-3.3,5.2-5.2c1.5,0.8,1.8,2.8,3,3.9c4.9-2.4,8.3,2.9,12,2.6
			c2.9-0.2,3.7-2.8,6.4-4.3c5.3,1.3,9.9,3.2,15,0.4c1.7,1.3,6.2,3,8.2,1.3c-4.9-8.1-15.9-2.3-24.9-6c-2.1,1-2.8,3.5-5.2,4.3
			C594.7,232.3,592.9,229.7,588.2,229.9z M641,248c-4.4-0.1-8.7-3-13.7-2.1c-5.6,6.8-14.1,0-23.6,0.9c-5.1,4-14.7,1-22.8,1.7
			c-1.9-1-5.5-2.3-6,0.9c3,3.5,8.4,2.1,13.3,2.1c3.7,0,7.6,1.3,11.2,0.9c2.2-0.3,4.2-2,6.4-2.1c5.7-0.5,10.9,3.1,15.9,2.6
			c2.5-0.3,5-2.8,7.7-3c6.7-0.4,16.1,5.6,19.8-2.1C646.6,246,643.9,248,641,248z M854.4,252.2c-6.8,1-18.4-6.3-26.6-3
			c-2.7,1.1-4.1,4.2-6,4.3c-3.8,0.2-7-5.1-11.6-3.9c-2.9,0.8-6.5,10.4-1.3,12c1.5-1.3,0.1-6.7,2.6-8.2c4-0.5,6.7,3.9,10.7,3.9
			c3.4,0,4.9-3.7,8.2-5.2c6-2.7,16.3,3.6,23.6,3c2.4-0.2,7-0.8,7.3-5.2C859.2,249.2,856.6,251.9,854.4,252.2z M835.5,271.1
			c-3.4-0.4-6.9,2-10.7,2.1c-7.1,0.4-16.4-5-18.5,2.1c1.3,2.5,3.7,0.2,5.6,0c3.7-0.3,10.1,1.6,15.5,0.9c2.9-0.4,5.7-2,7.7-1.7
			c4.7,0.6,5.7,5.2,9.9,5.6C844.5,276.5,840.8,271.7,835.5,271.1z"/>
		<path fill-rule="evenodd" fill="#FFFFFF" d="M769.8,322.7c8.1,23.1,16.1,46.3,25.3,68.3c-19.2,1-38.9,1.8-58.4,2.1
			c-28,0.5-56,2.6-83.3,1.7c-17.5-0.6-35.2,2.5-52,3.9c-0.3-3.6,2.5-6.7,4.3-9.4c6.2-9.8,11.9-20.9,19.3-30.5
			c5-6.5,10.3-13.4,14.2-20.2c1.4-2.5,1.9-5.1,3.4-7.3c2.3-3.3,6.5-5.5,6.9-9.9C687.1,320.6,729.5,323.2,769.8,322.7z"/>
		<path fill-rule="evenodd" fill="#FFFFFF" d="M245.6,520.2c3.1,6.9,5.9,14.2,9.4,20.6c-24.6-1.8-47.2,6.9-67.8,10.3
			c8-5.8,16.1-11.3,24.9-16.3c0.4-3.1-3.1-5.6-2.1-10.7C220.5,521.5,233.2,519.5,245.6,520.2z"/>
	</g>
</g>
</svg>
